<svg width="484" height="353" viewBox="0 0 484 353" fill="none" xmlns="http://www.w3.org/2000/svg">
<g clip-path="url(#clip0_157_4868)">
<path d="M270.156 347.411C366.34 347.411 444.312 269.64 444.312 173.706C444.312 77.7706 366.34 0 270.156 0C173.972 0 95.999 77.7706 95.999 173.706C95.999 269.64 173.972 347.411 270.156 347.411Z" fill="#F1E5DD"/>
<path d="M323.384 108.509C348.397 108.509 368.674 88.2841 368.674 63.3358C368.674 38.3876 348.397 18.1631 323.384 18.1631C298.371 18.1631 278.094 38.3876 278.094 63.3358C278.094 88.2841 298.371 108.509 323.384 108.509Z" fill="#FF6584"/>
<path d="M133.518 33.7552L134.756 59.4974C139.888 66.3241 145.424 74.1361 150.888 82.6502L151.668 43.3778L152.099 43.6522C145.778 39.149 139.354 35.7036 133.088 33.5166L133.518 33.7552Z" fill="#DDB14E"/>
<path d="M133.854 58.3015L132.655 33.3658C125.618 30.9721 118.79 30.178 112.549 31.2881C112.225 31.3459 111.905 31.4124 111.587 31.4798C113.173 33.1767 122.414 43.1983 133.854 58.3015Z" fill="#DDB14E"/>
<path d="M190.674 89.0126L191.089 89.4079C189.383 86.2086 187.576 83.098 185.665 80.0762L174.028 125.748L173.831 125.575C174.672 127.579 175.473 129.569 176.231 131.545L190.674 89.0126Z" fill="#DDB14E"/>
<path d="M172.945 63.0475L173.374 63.3896C167.221 56.1185 160.227 49.5998 152.537 43.9697L151.741 83.9904C156.826 91.9936 161.378 99.8766 165.398 107.639L172.945 63.0475Z" fill="#DDB14E"/>
<path d="M88.5264 75.542C89.1802 82.2875 90.5156 88.9499 92.5123 95.4277L161.91 102.567C158.287 95.9037 154.547 89.6521 150.916 83.9544L88.7028 76.0862L88.5264 75.542Z" fill="#DDB14E"/>
<path d="M95.0377 102.898L94.8508 102.355L165.087 108.582C164.239 106.926 163.381 105.293 162.513 103.681L92.8599 96.5157L92.6768 95.9717C93.3788 98.2549 94.1658 100.564 95.0377 102.898Z" fill="#DDB14E"/>
<path d="M184.875 79.1241L185.297 79.4955C181.815 74.0329 177.967 68.811 173.78 63.8652L166.131 109.06C168.782 114.252 171.183 119.37 173.334 124.416L184.875 79.1241Z" fill="#DDB14E"/>
<path d="M183.39 154.62C186.181 166.668 187.239 178.059 186.54 188.669C190.468 180.322 205.405 145.742 199.822 113.515L183.39 154.62Z" fill="#DDB14E"/>
<path d="M107.922 127.255C111.638 132.248 115.686 136.987 120.038 141.44L119.868 140.837L182.346 153.657C180.72 146.929 178.692 140.305 176.271 133.82L107.922 127.255Z" fill="#DDB14E"/>
<path d="M133.315 58.7219C120.933 42.3844 111.163 32.0584 111.023 31.9106L111.184 31.5664C101.788 33.694 95.1541 40.0701 91.5039 49.299L133.315 58.7219Z" fill="#DDB14E"/>
<path d="M176.81 133.078C177.04 133.693 177.275 134.309 177.498 134.921C179.643 140.784 181.467 146.759 182.962 152.82L199.238 112.104L199.635 112.502C198.605 106.836 196.859 101.324 194.439 96.0958C193.479 94.046 192.474 92.027 191.424 90.0391L176.81 133.078Z" fill="#DDB14E"/>
<path d="M150.19 82.8195C144.782 74.406 139.308 66.6878 134.235 59.9415L91.4655 50.3021L91.3205 49.7637C88.6505 56.7769 87.6742 65.3926 88.4829 75.0154L150.19 82.8195Z" fill="#DDB14E"/>
<path d="M182.598 154.726L120.578 142C146.665 168.71 183.162 189.194 185.492 190.489C186.579 178.721 185.346 166.633 182.598 154.726Z" fill="#DDB14E"/>
<path d="M175.832 132.723L175.845 132.682C172.863 124.841 169.46 117.165 165.65 109.689L95.2412 103.446C96.4366 106.604 97.7876 109.795 99.2942 113.02C101.489 117.614 104.099 121.999 107.092 126.121L175.832 132.723Z" fill="#DDB14E"/>
<path d="M265.395 120.462L249.887 141.076C249.474 149.599 248.742 159.137 247.506 169.171L273.22 139.42L273.376 139.905C271.388 132.416 268.643 125.675 265.216 120.005L265.395 120.462Z" fill="#DDB14E"/>
<path d="M249.957 139.581L264.979 119.613C261.09 113.293 256.339 108.338 250.823 105.222C250.535 105.06 250.247 104.908 249.959 104.758C250.095 107.074 250.804 120.671 249.957 139.581Z" fill="#DDB14E"/>
<path d="M274.08 199.381L274.147 199.95C274.88 196.401 275.476 192.855 275.938 189.312L237.769 217.085L237.728 216.827C237.094 218.905 236.438 220.947 235.759 222.952L274.08 199.381Z" fill="#DDB14E"/>
<path d="M277.03 168.104L277.141 168.641C277.052 159.126 275.834 149.656 273.511 140.428L247.307 170.745C246.105 180.144 244.57 189.111 242.702 197.647L277.03 168.104Z" fill="#DDB14E"/>
<path d="M204.021 124.023C200.211 129.635 196.979 135.616 194.375 141.875L243.259 191.522C244.729 184.085 245.847 176.891 246.694 170.193L203.809 124.555L204.021 124.023Z" fill="#DDB14E"/>
<path d="M191.543 149.235L191.746 148.698L241.86 198.175C242.265 196.361 242.649 194.557 243.011 192.764L193.947 142.934L194.154 142.398C193.234 144.604 192.364 146.882 191.543 149.235Z" fill="#DDB14E"/>
<path d="M275.937 188.076L276.025 188.631C276.836 182.208 277.212 175.739 277.149 169.266L242.357 199.208C241.079 204.893 239.655 210.363 238.086 215.618L275.937 188.076Z" fill="#DDB14E"/>
<path d="M226.515 245.278C220.961 256.333 214.491 265.779 207.169 273.506C215.532 269.576 249.149 252.445 265.457 224.072L226.515 245.278Z" fill="#DDB14E"/>
<path d="M185.891 176.191C185.56 182.401 185.647 188.626 186.151 194.825L186.406 194.252L226.328 243.871C229.378 237.656 232.052 231.264 234.334 224.729L185.891 176.191Z" fill="#DDB14E"/>
<path d="M249.273 139.562C250.184 119.103 249.263 104.935 249.249 104.731L249.593 104.569C240.996 100.23 231.81 100.921 223.097 105.707L249.273 139.562Z" fill="#DDB14E"/>
<path d="M235.224 224.5C235.008 225.12 234.795 225.744 234.575 226.356C232.479 232.237 230.063 237.999 227.338 243.618L265.91 222.614L265.962 223.173C268.791 218.154 270.972 212.797 272.451 207.231C273.022 205.042 273.539 202.848 274.002 200.648L235.224 224.5Z" fill="#DDB14E"/>
<path d="M246.86 168.856C248.075 158.936 248.795 149.509 249.202 141.086L222.425 106.453L222.657 105.946C216.116 109.649 209.855 115.664 204.324 123.59L246.86 168.856Z" fill="#DDB14E"/>
<path d="M225.839 244.856L186.21 195.6C189.222 232.767 204.232 271.762 205.198 274.241C213.561 265.869 220.341 255.775 225.839 244.856Z" fill="#DDB14E"/>
<path d="M234.697 223.604L234.734 223.582C237.452 215.645 239.739 207.569 241.586 199.387L191.349 149.787C190.251 152.979 189.251 156.297 188.349 159.739C187.101 164.673 186.307 169.711 185.977 174.79L234.697 223.604Z" fill="#DDB14E"/>
<path d="M110.768 147.984L119.923 172.084C126.919 176.994 134.605 182.717 142.44 189.129L131.011 151.54L131.506 151.668C124.1 149.334 116.922 148.038 110.285 147.89L110.768 147.984Z" fill="#DDB14E"/>
<path d="M118.695 171.225L109.827 147.88C102.393 147.773 95.6534 149.123 90.0619 152.103C89.771 152.258 89.4881 152.419 89.2061 152.582C91.2401 153.706 103.134 160.388 118.695 171.225Z" fill="#DDB14E"/>
<path d="M182.249 182.915L182.767 183.163C180.153 180.646 177.47 178.245 174.717 175.96L177.803 222.983L177.562 222.879C178.983 224.525 180.361 226.171 181.695 227.817L182.249 182.915Z" fill="#DDB14E"/>
<path d="M157.342 163.687L157.856 163.88C149.751 158.862 141.079 154.819 132.021 151.835L143.667 190.141C150.982 196.185 157.755 202.278 163.983 208.422L157.342 163.687Z" fill="#DDB14E"/>
<path d="M80.9297 201.595C83.6419 207.809 86.9766 213.734 90.883 219.279L159.094 204.673C153.584 199.453 148.09 194.661 142.871 190.361L81.2661 202.059L80.9297 201.595Z" fill="#DDB14E"/>
<path d="M95.5988 225.604L95.2527 225.145L163.979 209.414C162.659 208.101 161.337 206.812 160.013 205.547L91.5497 220.206L91.207 219.745C92.5823 221.7 94.0462 223.653 95.5988 225.604Z" fill="#DDB14E"/>
<path d="M173.67 175.298L174.187 175.521C169.182 171.4 163.904 167.62 158.39 164.207L165.121 209.547C169.251 213.667 173.121 217.795 176.73 221.93L173.67 175.298Z" fill="#DDB14E"/>
<path d="M195.653 247.555C202.042 258.152 206.578 268.66 209.202 278.965C210.35 269.816 213.839 232.324 198.542 203.396L195.653 247.555Z" fill="#DDB14E"/>
<path d="M115.4 244.796C120.482 248.399 125.8 251.658 131.319 254.552L130.971 254.03L194.361 246.961C190.731 241.064 186.749 235.389 182.437 229.968L115.4 244.796Z" fill="#DDB14E"/>
<path d="M118.312 171.791C101.474 160.071 88.9828 153.262 88.8034 153.165L88.8498 152.788C80.5734 157.708 76.2403 165.817 75.6289 175.72L118.312 171.791Z" fill="#DDB14E"/>
<path d="M182.72 229.097C183.13 229.61 183.544 230.123 183.945 230.637C187.803 235.551 191.389 240.671 194.689 245.974L197.55 202.235L198.051 202.49C195.315 197.42 191.947 192.716 188.025 188.49C186.477 186.836 184.895 185.226 183.281 183.659L182.72 229.097Z" fill="#DDB14E"/>
<path d="M141.828 189.506C134.078 183.172 126.48 177.519 119.565 172.667L75.9022 176.685L75.5975 176.218C75.2316 183.711 76.9732 192.206 80.7244 201.108L141.828 189.506Z" fill="#DDB14E"/>
<path d="M194.934 247.899L132.007 254.917C165.094 272.277 206.152 280.506 208.769 281.019C206.155 269.492 201.237 258.376 194.934 247.899Z" fill="#DDB14E"/>
<path d="M181.68 229.061L181.68 229.018C176.414 222.479 170.799 216.229 164.859 210.293L95.9629 226.063C98.0782 228.697 100.352 231.316 102.784 233.918C106.295 237.611 110.136 240.977 114.26 243.974L181.68 229.061Z" fill="#DDB14E"/>
<path d="M484 295.253C484 316.086 376.553 353 244.01 353C111.467 353 4.01953 316.086 4.01953 295.253C4.01953 274.42 111.467 277.557 244.01 277.557C376.553 277.557 484 274.42 484 295.253Z" fill="#3F3D56"/>
<path opacity="0.1" d="M484 295.253C484 316.086 376.553 353 244.01 353C111.467 353 4.01953 316.086 4.01953 295.253C4.01953 274.42 111.467 277.557 244.01 277.557C376.553 277.557 484 274.42 484 295.253Z" fill="#D9E5E7"/>
<path d="M244.01 332.975C376.553 332.975 484 316.087 484 295.254C484 274.421 376.553 257.532 244.01 257.532C111.467 257.532 4.01953 274.421 4.01953 295.254C4.01953 316.087 111.467 332.975 244.01 332.975Z" fill="#D9E5E7"/>
<path opacity="0.1" d="M285.617 255.826C285.617 278.523 253.898 271.502 215.061 271.502C176.224 271.502 144.977 278.523 144.977 255.826C144.977 233.129 176.691 228.192 215.528 228.192C254.365 228.192 285.617 233.129 285.617 255.826Z" fill="black"/>
<path d="M285.617 250.238C285.617 272.935 253.898 265.914 215.061 265.914C176.224 265.914 144.977 272.935 144.977 250.238C144.977 227.541 176.691 222.604 215.528 222.604C254.365 222.604 285.617 227.541 285.617 250.238Z" fill="#3F3D56"/>
<path d="M160.681 187.785C161.535 187.179 162.478 186.707 163.476 186.387C169.805 184.038 176.436 182.598 183.171 182.111C189.027 181.697 195.374 182.189 199.948 185.859C200.66 186.38 201.242 187.057 201.65 187.837C202.226 189.076 202.051 190.515 201.865 191.868C201.823 192.392 201.691 192.906 201.473 193.385C200.857 194.554 199.342 194.964 198.026 194.823C196.71 194.683 195.474 194.128 194.176 193.87C193.373 193.73 192.56 193.648 191.745 193.623L183.602 193.184C178.539 192.91 173.408 192.641 168.442 193.66C166.913 193.935 165.435 194.442 164.061 195.166C162.927 195.801 162.163 196.713 161.11 195.539C159.261 193.478 158.238 189.689 160.681 187.785Z" fill="#2F2E41"/>
<path d="M173.298 191.376C173.298 191.376 184.25 186.48 188.405 192.13C192.559 197.78 186.139 195.52 186.139 195.52L178.963 197.78L171.032 196.273L173.298 191.376Z" fill="#F2F2F2"/>
<path d="M173.865 187.798C173.865 187.798 175.376 194.955 174.243 196.839C173.11 198.722 180.663 201.359 180.663 201.359L187.839 198.346C187.839 198.346 185.95 186.668 187.839 184.408L173.865 187.798Z" fill="#FFB9B9"/>
<path opacity="0.1" d="M173.865 187.798C173.865 187.798 175.376 194.955 174.243 196.839C173.11 198.722 180.663 201.359 180.663 201.359L187.839 198.346C187.839 198.346 185.95 186.668 187.839 184.408L173.865 187.798Z" fill="black"/>
<path d="M166.788 273.857C167.803 275.957 168.638 278.139 169.284 280.38C169.294 280.454 169.32 280.525 169.36 280.588C169.4 280.652 169.453 280.706 169.516 280.747C169.578 280.789 169.649 280.816 169.723 280.829C169.797 280.841 169.872 280.838 169.945 280.819L176.662 280.811C177.491 280.81 178.604 280.545 178.595 279.718C178.589 279.137 177.994 278.775 177.55 278.398C176.321 277.351 176.001 275.626 175.491 274.095C174.501 271.147 172.594 268.592 170.046 266.801C169.702 266.532 169.305 266.336 168.882 266.227C168.456 266.165 168.022 266.189 167.606 266.296C166.427 266.533 162.023 267.345 162.855 269.056C163.213 269.793 164.54 270.559 165.097 271.247C165.746 272.06 166.312 272.934 166.788 273.857Z" fill="#575A89"/>
<path d="M190.148 266.086C189.912 266.583 189.648 267.066 189.359 267.534C188.386 269.135 187.237 270.628 186.331 272.268C185.72 273.269 185.343 274.395 185.227 275.562C185.175 276.145 185.265 276.733 185.488 277.274C185.711 277.816 186.061 278.297 186.509 278.675C187.484 279.413 188.821 279.448 190.033 279.276C191.245 279.104 192.45 278.757 193.671 278.848C193.259 276.525 195.223 274.481 195.715 272.173C195.853 271.525 195.873 270.853 196.058 270.217C196.257 269.635 196.512 269.073 196.818 268.54C197.797 266.64 198.488 264.607 198.87 262.505C198.916 262.25 192.899 262.209 192.334 262.33C190.573 262.71 190.83 264.629 190.148 266.086Z" fill="#575A89"/>
<path d="M143.767 229.59C142.049 232.272 142.445 235.825 143.652 238.771C144.858 241.717 146.779 244.321 148.093 247.22C148.931 249.069 149.518 251.029 150.462 252.826C151.63 255.051 153.336 257.013 154.12 259.4C154.62 260.922 154.735 262.59 155.544 263.972C156.034 264.711 156.592 265.403 157.212 266.036C158.956 268.029 160.265 270.362 161.057 272.886C161.797 270.687 164.012 269.246 166.288 268.77C168.564 268.295 170.922 268.618 173.224 268.942C171.94 266.958 170.643 264.948 169.878 262.713C169.137 260.552 168.919 258.252 168.42 256.022C167.397 251.45 165.212 247.234 163.05 243.076L174.167 242.196C175.981 242.014 177.806 241.947 179.629 241.994C182.498 242.129 185.309 242.83 188.164 243.155C191.018 243.479 194.037 243.394 196.581 242.062C191.717 249.023 189.184 257.339 189.344 265.822C190.431 264.982 191.693 264.395 193.036 264.104C194.38 263.813 195.773 263.826 197.111 264.141C198.449 264.456 199.7 265.065 200.772 265.925C201.844 266.784 202.709 267.872 203.305 269.108C207.662 263.17 207.144 254.903 210.596 248.4C211.306 247.063 212.176 245.818 212.942 244.512C214.39 241.889 215.629 239.157 216.649 236.341C217.615 233.878 218.587 231.136 217.661 228.658C217.277 227.718 216.717 226.859 216.011 226.127C214.019 223.936 211.247 222.316 208.282 222.248C203.732 222.145 199.974 225.509 195.982 227.69C191.217 230.216 185.828 231.331 180.449 230.903C174.966 230.516 169.73 228.726 164.506 227.15C161.893 226.324 159.237 225.641 156.55 225.103C154.31 224.683 152.177 225.148 149.969 225.719C147.566 226.341 145.15 227.431 143.767 229.59Z" fill="#2F2E41"/>
<path d="M191.238 180.64C191.236 183.637 190.041 186.51 187.917 188.628C185.793 190.747 182.912 191.939 179.908 191.941C179.233 191.942 178.559 191.882 177.895 191.76C175.775 191.378 173.808 190.401 172.224 188.944C170.641 187.486 169.507 185.608 168.956 183.531C168.405 181.453 168.459 179.262 169.112 177.214C169.766 175.166 170.991 173.346 172.644 171.968C174.298 170.59 176.311 169.711 178.447 169.434C180.584 169.157 182.756 169.493 184.708 170.404C186.659 171.314 188.31 172.761 189.467 174.574C190.624 176.387 191.238 178.491 191.238 180.64Z" fill="#FFB9B9"/>
<path d="M173.299 191.377C173.299 191.377 175.376 192.319 176.131 193.072C176.886 193.825 179.152 197.969 182.929 195.332C186.706 192.695 187.083 191.188 188.216 191.188C189.349 191.188 190.86 193.449 190.86 193.449L201.246 224.525C198.447 227.677 195.202 230.405 191.615 232.624C185.573 236.391 178.397 238.274 174.998 236.768C171.599 235.261 165.179 234.131 164.046 231.117C162.913 228.104 161.024 219.063 161.024 219.063L166.312 196.085L173.299 191.377Z" fill="#F2F2F2"/>
<path d="M171.841 222.807C172.664 221.033 172.784 219.025 172.853 217.072C172.964 215.137 172.913 213.196 172.7 211.27C172.365 208.75 171.542 206.323 171.023 203.834C170.567 201.652 170.346 199.427 170.362 197.198C170.37 196.181 170.444 195.11 170.999 194.257C171.387 193.662 171.993 193.201 172.236 192.534C172.711 191.226 171.537 189.856 170.251 189.317C168.684 188.731 166.971 188.663 165.362 189.121C163.766 189.581 162.225 190.21 160.763 190.998C159.658 191.468 158.642 192.123 157.759 192.935C156.586 194.145 156.071 195.83 155.655 197.461C155.321 198.766 155.025 200.127 155.279 201.45C155.69 203.598 157.446 205.213 158.382 207.191C159.469 209.488 159.396 212.164 158.963 214.667C158.531 217.169 157.764 219.616 157.527 222.145C157.29 224.673 157.654 227.391 159.242 229.376C159.889 230.185 161.645 232.102 162.83 231.885C163.761 231.715 165.11 229.671 165.86 229.023C168.026 227.152 170.597 225.487 171.841 222.807Z" fill="#2F2E41"/>
<path d="M191.627 190.148C191.66 192.249 190.732 194.246 189.64 196.042C188.548 197.839 187.265 199.539 186.461 201.48C185.461 203.911 185.257 206.595 185.877 209.148C186.108 210.018 186.386 210.875 186.711 211.714L188.78 217.375C189.058 218.266 189.462 219.112 189.98 219.888C190.447 220.483 190.996 221.01 191.61 221.453C193.182 222.719 194.991 223.66 196.931 224.221C198.885 224.779 200.97 224.66 202.848 223.885C203.047 216.21 204.283 208.598 206.523 201.253C206.936 199.897 207.388 198.469 207.069 197.088C206.712 195.541 205.466 194.38 204.282 193.319C200.66 190.075 196.677 186.668 191.83 186.231C189.024 185.978 191.603 188.629 191.627 190.148Z" fill="#2F2E41"/>
<path d="M166.843 233.943C167.13 234.504 167.309 235.115 167.593 235.677C168.012 236.431 168.53 237.126 169.134 237.744C171.659 240.537 174.746 243.319 178.512 243.487C178.887 243.522 179.264 243.475 179.618 243.348C179.936 243.186 180.21 242.948 180.415 242.655C180.62 242.363 180.75 242.025 180.794 241.671C181.061 240.212 180.416 238.756 179.769 237.421C178.368 234.527 176.792 231.559 174.169 229.692C172.859 228.797 171.363 228.21 169.792 227.974C168.222 227.738 166.619 227.861 165.103 228.332C163.736 228.752 161.471 229.485 163.28 230.728C164.652 231.672 166.047 232.39 166.843 233.943Z" fill="#FFB9B9"/>
<path d="M183.126 197.095C182.733 196.036 182.13 195.066 181.353 194.245C180.57 193.584 179.643 193.116 178.646 192.877C177.354 192.508 176.018 192.317 174.674 192.309C173.075 192.299 171.22 192.727 170.541 194.171C170.002 195.318 170.42 196.676 170.963 197.821C171.195 198.415 171.581 198.935 172.083 199.33C172.772 199.795 173.664 199.78 174.482 199.936C175.75 200.257 176.951 200.8 178.028 201.539L180.83 203.228L185.642 206.129C185.515 206.052 185.56 202.761 185.412 202.222C184.936 200.484 183.864 198.74 183.126 197.095Z" fill="#FFB9B9"/>
<path d="M169.109 279.527C167.983 281.053 168.209 283.234 167.212 284.847C166.347 286.245 164.718 286.978 163.637 288.216C163.291 288.628 162.984 289.069 162.717 289.535C161.714 291.211 160.899 293.359 161.887 295.044C162.682 296.399 164.352 296.929 165.884 297.29C167.82 297.746 169.832 298.112 171.791 297.763C173.75 297.414 175.664 296.218 176.363 294.36C176.5 293.892 176.663 293.433 176.851 292.984C177.913 290.899 181.243 290.877 182.33 288.805C183.09 287.355 182.391 285.602 181.692 284.122L179.558 279.6C178.85 278.099 175.979 278.962 174.483 278.603C172.531 278.134 170.513 277.617 169.109 279.527Z" fill="#2F2E41"/>
<path d="M185.614 275.642C184.741 276.329 184.073 277.241 183.684 278.281C182.628 280.711 182.265 283.375 181.913 286C181.712 287.044 181.691 288.115 181.852 289.166C182.307 291.31 184.255 292.889 186.351 293.545C188.448 294.2 190.697 294.099 192.891 293.992C193.599 294.01 194.302 293.868 194.947 293.575C196.05 292.969 196.481 291.543 196.291 290.301C196.102 289.059 195.422 287.954 194.756 286.888C194.09 285.822 193.409 284.717 193.219 283.475C192.898 281.387 193.803 278.321 192.517 276.431C191.227 274.537 187.335 274.44 185.614 275.642Z" fill="#2F2E41"/>
<path d="M190.953 174.752C190.751 174.076 190.307 173.498 189.706 173.128C189.737 172.404 189.648 171.68 189.442 170.985C188.756 168.962 187.131 169.078 185.597 168.183C184.932 167.795 184.973 167.452 184.626 166.815C184.173 165.979 183.493 165.287 182.664 164.818C181.68 164.193 180.642 163.549 179.478 163.47C177.032 163.303 175.156 165.598 172.818 166.335C171.788 166.659 170.68 166.672 169.645 166.979C168.609 167.286 167.575 168.019 167.421 169.086C167.349 169.578 167.475 170.084 167.403 170.576C167.259 171.555 166.398 172.24 165.822 173.045C164.548 174.825 164.693 177.34 165.713 179.276C165.927 179.677 166.173 180.06 166.447 180.423C166.532 181.338 166.796 182.228 167.223 183.043C168.242 184.98 169.996 186.427 171.828 187.629C171.678 186.987 171.587 186.332 171.556 185.674C171.53 185.454 171.559 185.232 171.639 185.026C171.843 184.6 172.382 184.487 172.793 184.254C173.645 183.772 173.978 182.704 174.003 181.728C174.028 180.751 173.82 179.774 173.923 178.802C173.927 178.579 173.978 178.359 174.072 178.156C174.167 177.954 174.303 177.773 174.471 177.627C174.786 177.448 175.144 177.362 175.506 177.381C177.25 177.31 179.072 177.278 180.611 176.455C181.107 176.126 181.64 175.857 182.2 175.653C183.507 175.313 184.843 176.227 185.597 177.346C186.35 178.465 186.726 179.796 187.421 180.951C188.116 182.107 189.317 183.137 190.662 183.001C190.737 183.001 190.812 182.985 190.881 182.954C190.951 182.924 191.013 182.879 191.063 182.823C191.121 182.719 191.147 182.6 191.137 182.481L191.212 177.357C191.275 176.48 191.187 175.599 190.953 174.752Z" fill="#2F2E41"/>
<path d="M155.096 201.559C154.015 203.15 152.769 204.679 152.175 206.507C151.826 207.581 151.717 208.717 151.464 209.818C150.622 213.485 148.189 216.742 147.944 220.496C147.859 221.331 147.982 222.173 148.302 222.948C149 224.462 150.67 225.261 152.264 225.763C153.857 226.265 155.568 226.626 156.84 227.707C157.48 228.319 158.061 228.991 158.574 229.712C160.649 232.286 163.44 234.191 166.597 235.188C166.348 233.474 166.231 231.408 167.605 230.348C168.348 229.775 169.342 229.673 170.278 229.592L174.703 229.211C171.753 226.356 168.5 223.829 165.003 221.674C163.78 220.92 162.448 220.124 161.889 218.803C161.6 217.951 161.481 217.051 161.536 216.154C161.506 212.871 161.227 209.596 160.703 206.355C160.338 204.105 159.856 201.875 159.304 199.663C159.15 199.042 158.234 196.257 157.107 196.909C156.842 197.062 156.594 198.829 156.439 199.196C156.07 200.025 155.62 200.817 155.096 201.559Z" fill="#2F2E41"/>
<path d="M206.062 195.548L207.869 199.296C208.74 200.837 209.136 202.6 209.009 204.365L209.116 215.609C209.199 217.111 209.075 218.618 208.745 220.086C208.633 220.57 208.42 221.026 208.122 221.423C207.816 221.766 207.454 222.056 207.053 222.282C203.633 224.414 199.199 225.625 195.585 223.839C194.758 223.399 193.971 222.887 193.234 222.308C191.794 221.244 190.333 220.16 189.255 218.732C188.128 217.237 187.482 215.447 186.723 213.736C185.362 210.667 183.603 207.79 181.491 205.177C181.141 204.832 180.914 204.382 180.843 203.896C180.821 202.911 181.993 202.425 182.907 202.05C184.469 201.41 185.942 200.174 186.203 198.51C189.524 202.853 193.188 207.443 198.429 209.03C198.511 209.082 198.606 209.112 198.703 209.115C198.801 209.118 198.897 209.094 198.982 209.047C199.068 209 199.139 208.93 199.188 208.846C199.236 208.762 199.262 208.666 199.261 208.569C199.558 207.328 199.663 206.049 199.881 204.792C200.28 202.501 201.048 200.291 202.156 198.245C202.777 197.099 204.787 192.902 206.062 195.548Z" fill="#2F2E41"/>
<path opacity="0.1" d="M161.22 206.388C161.27 209.049 160.704 211.685 159.564 214.092C159.268 214.624 159.05 215.195 158.916 215.789C158.718 217.055 159.44 218.281 160.266 219.263C161.895 221.195 164.009 222.661 166.39 223.513" fill="black"/>
<path opacity="0.1" d="M200.46 204.145C200.194 204.859 200.436 205.648 200.641 206.382C201.236 208.511 201.513 210.716 201.465 212.925C201.474 212.964 201.472 213.004 201.462 213.042C201.451 213.08 201.431 213.115 201.403 213.143C201.375 213.171 201.341 213.192 201.303 213.204C201.265 213.216 201.225 213.218 201.186 213.21C200.314 213.264 199.316 213.269 198.725 212.628" fill="black"/>
<path opacity="0.1" d="M348.597 310.621C381.088 310.621 407.427 304.992 407.427 298.047C407.427 291.103 381.088 285.474 348.597 285.474C316.106 285.474 289.767 291.103 289.767 298.047C289.767 304.992 316.106 310.621 348.597 310.621Z" fill="black"/>
<path d="M378.012 185.814L373.81 190.006L378.012 194.197L382.214 185.814H378.012Z" fill="#A0616A"/>
<path d="M378.958 149.471C380.137 149.952 380.698 151.268 381.142 152.459L386.593 167.069L387.654 169.912C388.175 171.307 388.695 172.702 389.136 174.124C389.414 175.024 389.66 175.932 389.873 176.85C390.094 177.635 390.179 178.452 390.124 179.266C389.977 180.162 389.649 181.018 389.161 181.784C387.264 185.078 384.563 187.841 381.309 189.816C381.122 188.608 380.633 187.466 379.889 186.495C379.144 185.524 378.168 184.754 377.048 184.257L379.867 182.711C380.463 182.432 381 182.04 381.446 181.557C381.719 181.18 381.913 180.753 382.017 180.3C382.121 179.847 382.132 179.377 382.05 178.92C381.88 178.007 381.599 177.118 381.213 176.274C380.267 173.92 379.446 171.517 378.754 169.077C378.345 167.633 377.969 166.15 377.157 164.887C376.421 163.741 375.355 162.824 374.687 161.638C373.667 159.83 373.694 157.604 374.144 155.579C374.524 153.87 375.161 152.225 375.697 150.56C376.118 149.253 377.695 148.955 378.958 149.471Z" fill="#D0CDE1"/>
<path d="M352.969 110.438C350.801 111.168 348.838 112.875 348.394 115.114C348.188 116.152 348.314 117.23 348.141 118.274C347.74 120.694 345.835 122.542 344.078 124.259C342.321 125.976 340.507 127.971 340.379 130.421C340.238 133.103 342.189 135.616 341.851 138.281C341.459 141.378 338.181 143.384 337.37 146.398C336.829 148.411 337.492 150.579 338.583 152.357C340.662 155.743 344.217 158.042 348.001 159.275C351.786 160.507 355.817 160.767 359.798 160.808C364.646 160.859 369.909 160.444 373.552 157.253C375.632 155.414 376.939 152.858 377.209 150.098C377.555 146.402 376.009 142.583 377.075 139.026C377.747 136.788 379.431 134.743 379.179 132.42C378.934 130.149 376.945 128.539 375.581 126.704C374.307 124.991 373.534 122.968 372.776 120.973L370.184 114.149C369.674 112.807 369.115 111.396 367.979 110.516C365.853 108.867 362.435 109.191 359.949 109.531C357.642 109.847 355.187 109.691 352.969 110.438Z" fill="#2F2E41"/>
<path d="M354.974 132.929C354.974 132.929 355.228 140.521 354.467 141.28C353.706 142.039 357.512 147.101 357.512 147.101L364.362 146.848L367.914 144.064L364.87 140.015C364.87 140.015 363.601 133.435 364.616 131.917C365.631 130.398 354.974 132.929 354.974 132.929Z" fill="#A0616A"/>
<path opacity="0.1" d="M354.974 132.929C354.974 132.929 355.228 140.521 354.467 141.28C353.706 142.039 357.512 147.101 357.512 147.101L364.362 146.848L367.914 144.064L364.87 140.015C364.87 140.015 363.601 133.435 364.616 131.917C365.631 130.398 354.974 132.929 354.974 132.929Z" fill="black"/>
<path d="M339.116 191.513L343.43 201.13L346.728 197.081L340.131 188.477L339.116 191.513Z" fill="#A0616A"/>
<path d="M327.572 287.806L325.796 297.676L322.751 301.978L324.527 302.99L327.572 302.484L331.124 301.218L332.646 295.398L335.437 287.806H327.572Z" fill="#A0616A"/>
<path d="M360.048 281.732L359.033 295.905L361.57 297.929L365.63 294.386V284.01L360.048 281.732Z" fill="#A0616A"/>
<path d="M359.16 135.839C364.205 135.839 368.294 131.76 368.294 126.729C368.294 121.697 364.205 117.618 359.16 117.618C354.116 117.618 350.026 121.697 350.026 126.729C350.026 131.76 354.116 135.839 359.16 135.839Z" fill="#A0616A"/>
<path d="M366.209 138.982C365.935 138.851 365.636 138.78 365.332 138.774C365.029 138.768 364.727 138.828 364.449 138.948C363.895 139.193 363.357 139.473 362.838 139.786C361.505 140.477 359.994 140.752 358.502 140.572C358.327 140.559 358.155 140.515 357.995 140.442C357.825 140.337 357.67 140.211 357.531 140.068C356.99 139.63 356.299 139.418 355.605 139.478C354.911 139.538 354.267 139.864 353.809 140.388C353.54 140.722 353.357 141.12 353.064 141.432C352.306 142.241 351.055 142.273 349.945 142.271C347.643 142.207 345.342 142.418 343.091 142.898C340.829 143.385 338.746 144.486 337.072 146.079C336.615 146.507 336.251 147.025 336.003 147.599C335.697 148.387 335.737 149.271 335.462 150.07C335.156 150.959 334.477 151.689 334.202 152.589C333.995 153.266 334.024 154.021 333.678 154.639C335.16 155.919 336.417 157.626 337.899 158.907C338.881 159.754 339.909 160.671 340.278 161.913C340.444 162.678 340.518 163.461 340.498 164.244C340.681 167.987 342.717 171.383 344.993 174.365C345.617 175.249 346.364 176.041 347.211 176.715C348.361 177.497 349.668 178.02 351.041 178.249C353.633 178.778 356.301 178.775 358.946 178.749C361.68 178.722 364.463 178.664 367.062 177.817C368.384 177.449 369.574 176.712 370.492 175.692C371.561 174.383 371.978 172.488 373.436 171.63C373.79 171.469 374.124 171.27 374.434 171.036C374.731 170.715 374.941 170.323 375.045 169.899C375.555 168.309 375.836 166.655 375.88 164.987C375.842 163.986 375.911 162.984 376.083 161.997C376.335 161.127 376.703 160.295 377.176 159.522L380.198 154.055C380.444 153.61 380.38 152.957 380.402 152.45C380.38 151.719 380.155 151.008 379.752 150.397C377.792 146.941 374.713 144.253 371.019 142.772C370.728 142.673 370.451 142.538 370.194 142.369C369.892 142.115 369.636 141.811 369.439 141.47C368.637 140.265 367.657 138.907 366.209 138.982Z" fill="#D0CDE1"/>
<path d="M328.541 168.757C327.945 170.202 327.507 171.708 327.236 173.247C326.944 175.373 327.288 177.538 328.224 179.471C329.853 182.815 333.059 185.083 335.322 188.037C337.425 190.781 338.678 194.071 340.498 197.009C340.181 196.261 340.567 195.395 341.086 194.77C341.606 194.144 342.27 193.626 342.651 192.908C342.91 192.352 343.074 191.756 343.133 191.146C343.405 189.324 343.552 187.344 342.621 185.754C341.92 184.556 340.709 183.761 339.75 182.757C338.791 181.736 338.087 180.504 337.693 179.161C337.299 177.818 337.227 176.401 337.483 175.025C337.667 174.078 338.007 173.169 338.261 172.238C338.575 170.987 338.814 169.718 338.974 168.438L340.117 160.61C340.421 158.528 340.678 156.225 339.495 154.482C339.265 154.117 338.946 153.816 338.568 153.607C338.255 153.464 337.923 153.371 337.581 153.33C336.338 153.127 334.653 152.584 334.046 153.913C333.314 155.517 332.803 157.265 332.19 158.919L328.541 168.757Z" fill="#D0CDE1"/>
<path d="M372.087 173.04C372.087 173.04 357.004 175.95 353.452 175.95H347.109C347.109 175.95 344.825 179.999 344.825 184.048C344.825 188.098 329.856 244.785 329.856 244.785C329.856 244.785 315.647 291.349 331.378 291.602C347.109 291.855 357.004 292.614 357.258 287.3C357.512 281.986 359.034 213.404 359.034 213.404L361.402 248.669C362.039 257.399 361.359 266.175 359.386 274.704C358.25 279.485 358.426 284.727 364.108 285.782C375.019 287.806 388.72 286.035 388.72 282.239C388.72 278.443 381.615 194.171 381.615 194.171C381.615 194.171 378.063 181.771 376.034 180.759C374.004 179.746 372.087 173.04 372.087 173.04Z" fill="#2F2E41"/>
<path d="M324.781 301.471L330.363 299.447L334.169 289.83L338.229 289.324C338.229 289.324 335.945 294.133 334.677 294.892C333.408 295.651 331.378 301.978 331.378 301.978C331.378 301.978 332.393 304.508 327.572 305.521C322.752 306.533 319.199 307.292 319.199 307.292C319.199 307.292 318.692 306.28 320.975 303.749C323.259 301.218 325.925 296.958 325.925 296.958L324.781 301.471Z" fill="#2F2E41"/>
<path d="M359.033 289.831L358.019 297.423C358.019 297.423 360.81 301.472 361.571 301.472C362.332 301.472 366.391 297.929 366.391 297.929C366.391 297.929 366.138 294.133 366.391 293.121C366.645 292.108 367.153 287.3 366.391 287.047C365.63 286.794 365.63 292.687 365.63 292.687L362.332 296.157L359.152 294.255L359.033 289.831Z" fill="#2F2E41"/>
<path d="M359.922 126.728C365.387 126.728 369.817 124.349 369.817 121.414C369.817 118.479 365.387 116.1 359.922 116.1C354.457 116.1 350.026 118.479 350.026 121.414C350.026 124.349 354.457 126.728 359.922 126.728Z" fill="#2F2E41"/>
<path d="M0 225.705C0 255.517 18.7512 279.641 41.924 279.641L0 225.705Z" fill="#3F3D56"/>
<path d="M41.9238 279.641C41.9238 249.494 62.849 225.1 88.7086 225.1L41.9238 279.641Z" fill="#DDB14E"/>
<path d="M15.1895 228.408C15.1895 256.727 27.1467 279.642 41.9236 279.642L15.1895 228.408Z" fill="#DDB14E"/>
<path d="M41.9238 279.642C41.9238 241.12 66.1101 209.949 95.9997 209.949L41.9238 279.642Z" fill="#3F3D56"/>
<path d="M33.1045 280.022C33.1045 280.022 39.05 279.839 40.8418 278.566C42.6337 277.294 49.9875 275.774 50.432 277.815C50.8766 279.856 59.367 287.966 52.6546 288.02C45.9421 288.074 37.0578 286.978 35.2694 285.891C33.4811 284.804 33.1045 280.022 33.1045 280.022Z" fill="#A8A8A8"/>
<path opacity="0.2" d="M52.7744 287.31C46.0619 287.364 37.1776 286.267 35.3892 285.18C34.0273 284.353 33.4846 281.384 33.303 280.014C33.1772 280.019 33.1045 280.021 33.1045 280.021C33.1045 280.021 33.4811 284.804 35.2695 285.891C37.0578 286.977 45.9421 288.074 52.6546 288.02C54.5922 288.004 55.2615 287.317 55.2248 286.298C54.9556 286.914 54.2166 287.298 52.7744 287.31Z" fill="black"/>
</g>
<defs>
<clipPath id="clip0_157_4868">
<rect width="484" height="353" fill="white"/>
</clipPath>
</defs>
</svg>
