<svg width="28" height="16" viewBox="0 0 28 16" fill="none" xmlns="http://www.w3.org/2000/svg">
<path d="M1.375 7C0.822715 7 0.375 7.44772 0.375 8C0.375 8.55228 0.822715 9 1.375 9V7ZM27.6226 8.70711C28.0131 8.31658 28.0131 7.68342 27.6226 7.29289L21.2586 0.928932C20.8681 0.538408 20.235 0.538408 19.8444 0.928932C19.4539 1.31946 19.4539 1.95262 19.8444 2.34315L25.5013 8L19.8444 13.6569C19.4539 14.0474 19.4539 14.6805 19.8444 15.0711C20.235 15.4616 20.8681 15.4616 21.2586 15.0711L27.6226 8.70711ZM1.375 9L26.9155 9V7L1.375 7V9Z" fill="#EBEEF3"/>
</svg>
