<svg width="28" height="16" viewBox="0 0 28 16" fill="none" xmlns="http://www.w3.org/2000/svg">
<path d="M26.8472 9C27.3995 9 27.8472 8.55228 27.8472 8C27.8472 7.44772 27.3995 7 26.8472 7L26.8472 9ZM0.599562 7.2929C0.209038 7.68342 0.209038 8.31658 0.599562 8.70711L6.96352 15.0711C7.35405 15.4616 7.98721 15.4616 8.37774 15.0711C8.76826 14.6805 8.76826 14.0474 8.37774 13.6569L2.72088 8L8.37774 2.34315C8.76826 1.95262 8.76826 1.31946 8.37774 0.928934C7.98721 0.538409 7.35405 0.538409 6.96352 0.928934L0.599562 7.2929ZM26.8472 7L1.30667 7L1.30667 9L26.8472 9L26.8472 7Z" fill="#EBEEF3"/>
</svg>
