<svg width="12" height="13" viewBox="0 0 12 13" fill="none" xmlns="http://www.w3.org/2000/svg">
<g id="vuesax/linear/crown">
<g id="crown">
<path id="Vector" d="M8.34961 9.98969H3.64961C3.43961 9.98969 3.20461 9.82469 3.13461 9.62469L1.06461 3.83469C0.769611 3.00469 1.11461 2.74969 1.82461 3.25969L3.77461 4.65469C4.09961 4.87969 4.46961 4.76469 4.60961 4.39969L5.48961 2.05469C5.76961 1.30469 6.23461 1.30469 6.51461 2.05469L7.39461 4.39969C7.53461 4.76469 7.90461 4.87969 8.22461 4.65469L10.0546 3.34969C10.8346 2.78969 11.2096 3.07469 10.8896 3.97969L8.86961 9.63469C8.79461 9.82469 8.55961 9.98969 8.34961 9.98969Z" stroke="#DDB14E" stroke-width="0.75" stroke-linecap="round" stroke-linejoin="round"/>
<path id="Vector_2" d="M3.25 11.5H8.75" stroke="#DDB14E" stroke-width="0.75" stroke-linecap="round" stroke-linejoin="round"/>
<path id="Vector_3" d="M4.75 7.5H7.25" stroke="#DDB14E" stroke-width="0.75" stroke-linecap="round" stroke-linejoin="round"/>
</g>
</g>
</svg>
