<svg width="49" height="48" viewBox="0 0 49 48" fill="none" xmlns="http://www.w3.org/2000/svg">
<path opacity="0.2" d="M14.2144 28C14.8053 28 15.3905 27.8836 15.9364 27.6575C16.4824 27.4313 16.9785 27.0998 17.3963 26.682C17.8142 26.2641 18.1457 25.768 18.3718 25.2221C18.598 24.6761 18.7144 24.0909 18.7144 23.5C18.7144 22.9091 18.598 22.3239 18.3718 21.7779C18.1457 21.232 17.8142 20.7359 17.3963 20.318C16.9785 19.9002 16.4824 19.5687 15.9364 19.3425C15.3905 19.1164 14.8053 19 14.2144 19C13.0209 19 11.8763 19.4741 11.0324 20.318C10.1885 21.1619 9.71436 22.3065 9.71436 23.5C9.71436 24.6935 10.1885 25.8381 11.0324 26.682C11.8763 27.5259 13.0209 28 14.2144 28ZM7.71436 30C7.71436 29.7348 7.81971 29.4804 8.00725 29.2929C8.19479 29.1054 8.44914 29 8.71436 29H19.7144C19.9796 29 20.2339 29.1054 20.4215 29.2929C20.609 29.4804 20.7144 29.7348 20.7144 30V35H31.7144V30C31.7144 29.7348 31.8197 29.4804 32.0072 29.2929C32.1948 29.1054 32.4491 29 32.7144 29H44.7144C44.9796 29 45.2339 29.1054 45.4215 29.2929C45.609 29.4804 45.7144 29.7348 45.7144 30V40C45.7144 40.5304 45.5036 41.0391 45.1286 41.4142C44.7535 41.7893 44.2448 42 43.7144 42H33.7144V47C33.7144 47.2652 33.609 47.5196 33.4215 47.7071C33.2339 47.8946 32.9796 48 32.7144 48H20.7144C20.4491 48 20.1948 47.8946 20.0072 47.7071C19.8197 47.5196 19.7144 47.2652 19.7144 47V42H8.71436C8.44914 42 8.19479 41.8946 8.00725 41.7071C7.81971 41.5196 7.71436 41.2652 7.71436 41V30ZM32.7144 23.5C32.7144 24.6935 33.1885 25.8381 34.0324 26.682C34.8763 27.5259 36.0209 28 37.2144 28C38.4078 28 39.5524 27.5259 40.3963 26.682C41.2402 25.8381 41.7144 24.6935 41.7144 23.5C41.7144 22.3065 41.2402 21.1619 40.3963 20.318C39.5524 19.4741 38.4078 19 37.2144 19C36.0209 19 34.8763 19.4741 34.0324 20.318C33.1885 21.1619 32.7144 22.3065 32.7144 23.5ZM25.2144 34C26.4078 34 27.5524 33.5259 28.3963 32.682C29.2402 31.8381 29.7144 30.6935 29.7144 29.5C29.7144 28.3065 29.2402 27.1619 28.3963 26.318C27.5524 25.4741 26.4078 25 25.2144 25C24.0209 25 22.8763 25.4741 22.0324 26.318C21.1885 27.1619 20.7144 28.3065 20.7144 29.5C20.7144 30.6935 21.1885 31.8381 22.0324 32.682C22.8763 33.5259 24.0209 34 25.2144 34Z" fill="#DDB14E"/>
<path d="M17.1144 26.0798C17.9053 25.2272 18.4315 24.1632 18.6288 23.0171C18.8261 21.871 18.6861 20.6923 18.2259 19.6243C17.7656 18.5563 17.0049 17.6451 16.0362 17.0016C15.0676 16.358 13.9328 16.0098 12.7699 15.9993C11.607 15.9888 10.4661 16.3165 9.48604 16.9425C8.50596 17.5685 7.72892 18.4658 7.24946 19.5253C6.77 20.5848 6.60878 21.7609 6.78541 22.9103C6.96204 24.0598 7.46891 25.1331 8.24436 25.9998C6.35436 26.0598 4.71436 27.5198 4.71436 29.4498V39.9998C4.71436 40.265 4.81971 40.5194 5.00725 40.7069C5.19479 40.8944 5.44914 40.9998 5.71436 40.9998H14.7144C14.9796 40.9998 15.2339 40.8944 15.4215 40.7069C15.609 40.5194 15.7144 40.265 15.7144 39.9998C15.7144 39.7346 15.609 39.4802 15.4215 39.2927C15.2339 39.1052 14.9796 38.9998 14.7144 38.9998H10.7144V31.9998C10.7144 31.7346 10.609 31.4802 10.4215 31.2927C10.2339 31.1052 9.97957 30.9998 9.71436 30.9998C9.44914 30.9998 9.19479 31.1052 9.00725 31.2927C8.81971 31.4802 8.71436 31.7346 8.71436 31.9998V38.9998H6.71436V29.4498C6.71436 28.7198 7.38436 27.9998 8.35436 27.9998H16.7144C16.9456 28.0017 17.1703 27.9234 17.3502 27.7783C17.5302 27.6331 17.6543 27.4301 17.7015 27.2038C17.7487 26.9774 17.7159 26.7418 17.6089 26.5368C17.5018 26.3319 17.3271 26.1704 17.1144 26.0798ZM12.7144 17.9998C13.7752 17.9998 14.7926 18.4212 15.5428 19.1714C16.2929 19.9215 16.7144 20.9389 16.7144 21.9998C16.7144 23.0607 16.2929 24.0781 15.5428 24.8282C14.7926 25.5784 13.7752 25.9998 12.7144 25.9998C11.6535 25.9998 10.6361 25.5784 9.88593 24.8282C9.13578 24.0781 8.71436 23.0607 8.71436 21.9998C8.71436 20.9389 9.13578 19.9215 9.88593 19.1714C10.6361 18.4212 11.6535 17.9998 12.7144 17.9998ZM29.1844 31.9998C29.9572 31.1367 30.4636 30.0683 30.6424 28.9237C30.8213 27.779 30.6649 26.6071 30.1922 25.5494C29.7195 24.4917 28.9508 23.5934 27.9787 22.9631C27.0066 22.3328 25.8729 21.9974 24.7144 21.9974C23.5558 21.9974 22.4221 22.3328 21.45 22.9631C20.478 23.5934 19.7092 24.4917 19.2365 25.5494C18.7638 26.6071 18.6074 27.779 18.7863 28.9237C18.9651 30.0683 19.4715 31.1367 20.2444 31.9998C19.3188 32.0174 18.4356 32.3909 17.7783 33.0427C17.1209 33.6945 16.7399 34.5744 16.7144 35.4998V45.9998C16.7144 46.265 16.8197 46.5194 17.0072 46.7069C17.1948 46.8944 17.4491 46.9998 17.7144 46.9998H31.7144C31.9796 46.9998 32.2339 46.8944 32.4215 46.7069C32.609 46.5194 32.7144 46.265 32.7144 45.9998V35.4998C32.7144 33.5598 31.0744 32.0798 29.1844 31.9998ZM20.7144 27.9998C20.7144 26.9389 21.1358 25.9215 21.8859 25.1714C22.6361 24.4212 23.6535 23.9998 24.7144 23.9998C25.7752 23.9998 26.7926 24.4212 27.5428 25.1714C28.2929 25.9215 28.7144 26.9389 28.7144 27.9998C28.7144 29.0607 28.2929 30.0781 27.5428 30.8282C26.7926 31.5784 25.7752 31.9998 24.7144 31.9998C23.6535 31.9998 22.6361 31.5784 21.8859 30.8282C21.1358 30.0781 20.7144 29.0607 20.7144 27.9998ZM20.4144 33.9998H29.0144C30.0144 33.9998 30.7144 34.7498 30.7144 35.4998V44.9998H28.7144V37.9998C28.7144 37.7346 28.609 37.4802 28.4215 37.2927C28.2339 37.1052 27.9796 36.9998 27.7144 36.9998C27.4491 36.9998 27.1948 37.1052 27.0072 37.2927C26.8197 37.4802 26.7144 37.7346 26.7144 37.9998V44.9998H22.7144V37.9998C22.7144 37.7346 22.609 37.4802 22.4215 37.2927C22.2339 37.1052 21.9796 36.9998 21.7144 36.9998C21.4491 36.9998 21.1948 37.1052 21.0072 37.2927C20.8197 37.4802 20.7144 37.7346 20.7144 37.9998V44.9998H18.7144V35.4998C18.7144 34.7498 19.4144 33.9998 20.4144 33.9998ZM42.7144 21.9998C42.7144 23.5398 42.1344 24.9398 41.1844 25.9998C42.1092 25.9918 42.9996 26.3501 43.6611 26.9966C44.3225 27.643 44.7012 28.525 44.7144 29.4498V39.9998C44.7144 40.265 44.609 40.5194 44.4215 40.7069C44.2339 40.8944 43.9796 40.9998 43.7144 40.9998H34.7144C34.4491 40.9998 34.1948 40.8944 34.0072 40.7069C33.8197 40.5194 33.7144 40.265 33.7144 39.9998C33.7144 39.7346 33.8197 39.4802 34.0072 39.2927C34.1948 39.1052 34.4491 38.9998 34.7144 38.9998H38.7144V31.9998C38.7144 31.7346 38.8197 31.4802 39.0072 31.2927C39.1948 31.1052 39.4491 30.9998 39.7144 30.9998C39.9796 30.9998 40.2339 31.1052 40.4215 31.2927C40.609 31.4802 40.7144 31.7346 40.7144 31.9998V38.9998H42.7144V29.4498C42.7013 29.0572 42.5348 28.6854 42.2506 28.4143C41.9663 28.1432 41.5871 27.9943 41.1944 27.9998H32.7144C32.4832 28.0017 32.2585 27.9234 32.0785 27.7783C31.8985 27.6331 31.7744 27.4301 31.7272 27.2038C31.6801 26.9774 31.7128 26.7418 31.8198 26.5368C31.9269 26.3319 32.1016 26.1704 32.3144 26.0798C31.6501 25.3633 31.1708 24.4954 30.9183 23.5515C30.6657 22.6076 30.6475 21.6163 30.8652 20.6638C31.0828 19.7113 31.5299 18.8264 32.1673 18.0859C32.8048 17.3454 33.6135 16.7719 34.5231 16.415C35.4327 16.0582 36.4157 15.9289 37.3866 16.0384C38.3575 16.1478 39.287 16.4928 40.0943 17.0432C40.9016 17.5936 41.5623 18.3328 42.0189 19.1966C42.4755 20.0605 42.7142 21.0227 42.7144 21.9998ZM40.7144 21.9998C40.7144 20.9389 40.2929 19.9215 39.5428 19.1714C38.7926 18.4212 37.7752 17.9998 36.7144 17.9998C35.6535 17.9998 34.6361 18.4212 33.8859 19.1714C33.1358 19.9215 32.7144 20.9389 32.7144 21.9998C32.7144 23.0607 33.1358 24.0781 33.8859 24.8282C34.6361 25.5784 35.6535 25.9998 36.7144 25.9998C37.7752 25.9998 38.7926 25.5784 39.5428 24.8282C40.2929 24.0781 40.7144 23.0607 40.7144 21.9998Z" fill="#DDB14E"/>
<g opacity="0.35">
<path d="M17.7144 10C17.7144 9.73478 17.8197 9.48043 18.0072 9.29289C18.1948 9.10536 18.4491 9 18.7144 9H30.7144C30.9796 9 31.2339 9.10536 31.4215 9.29289C31.609 9.48043 31.7144 9.73478 31.7144 10C31.7144 10.2652 31.609 10.5196 31.4215 10.7071C31.2339 10.8946 30.9796 11 30.7144 11H18.7144C18.4491 11 18.1948 10.8946 18.0072 10.7071C17.8197 10.5196 17.7144 10.2652 17.7144 10ZM18.7144 5C18.4491 5 18.1948 5.10536 18.0072 5.29289C17.8197 5.48043 17.7144 5.73478 17.7144 6C17.7144 6.26522 17.8197 6.51957 18.0072 6.70711C18.1948 6.89464 18.4491 7 18.7144 7H30.7144C30.9796 7 31.2339 6.89464 31.4215 6.70711C31.609 6.51957 31.7144 6.26522 31.7144 6C31.7144 5.73478 31.609 5.48043 31.4215 5.29289C31.2339 5.10536 30.9796 5 30.7144 5H18.7144ZM14.7144 1C14.4491 1 14.1948 1.10536 14.0072 1.29289C13.8197 1.48043 13.7144 1.73478 13.7144 2V14C13.7144 14.2652 13.8197 14.5196 14.0072 14.7071C14.1948 14.8946 14.4491 15 14.7144 15H19.8044L24.0044 19.2C24.1006 19.2974 24.2158 19.374 24.3429 19.425C24.47 19.4761 24.6062 19.5005 24.743 19.4967C24.8799 19.493 25.0146 19.4612 25.1386 19.4032C25.2627 19.3453 25.3736 19.2625 25.4644 19.16L29.1644 15H34.7144C34.9796 15 35.2339 14.8946 35.4215 14.7071C35.609 14.5196 35.7144 14.2652 35.7144 14V2C35.7144 1.73478 35.609 1.48043 35.4215 1.29289C35.2339 1.10536 34.9796 1 34.7144 1H14.7144ZM15.7144 13V3H33.7144V13H28.7144C28.5724 13.0002 28.4321 13.0306 28.3027 13.0892C28.1734 13.1478 28.0581 13.2333 27.9644 13.34L24.6644 17.04L20.9244 13.29C20.8309 13.1973 20.7201 13.124 20.5983 13.0742C20.4764 13.0245 20.346 12.9992 20.2144 13H15.7144Z" fill="#DDB14E"/>
</g>
</svg>
