<svg width="48" height="49" viewBox="0 0 48 49" fill="none" xmlns="http://www.w3.org/2000/svg">
<path opacity="0.2" d="M26 11.2803C26.7956 11.2803 27.5587 10.9642 28.1213 10.4016C28.6839 9.83898 29 9.07592 29 8.28027C29 7.48462 28.6839 6.72156 28.1213 6.15895C27.5587 5.59634 26.7956 5.28027 26 5.28027C25.2044 5.28027 24.4413 5.59634 23.8787 6.15895C23.3161 6.72156 23 7.48462 23 8.28027C23 9.07592 23.3161 9.83898 23.8787 10.4016C24.4413 10.9642 25.2044 11.2803 26 11.2803ZM26 47.2803C26.7956 47.2803 27.5587 46.9642 28.1213 46.4016C28.6839 45.839 29 45.0759 29 44.2803C29 43.4846 28.6839 42.7216 28.1213 42.159C27.5587 41.5963 26.7956 41.2803 26 41.2803C25.2044 41.2803 24.4413 41.5963 23.8787 42.159C23.3161 42.7216 23 43.4846 23 44.2803C23 45.0759 23.3161 45.839 23.8787 46.4016C24.4413 46.9642 25.2044 47.2803 26 47.2803ZM45 35.2803C45 36.0759 44.6839 36.839 44.1213 37.4016C43.5587 37.9642 42.7957 38.2803 42 38.2803C41.2043 38.2803 40.4413 37.9642 39.8787 37.4016C39.3161 36.839 39 36.0759 39 35.2803C39 34.4846 39.3161 33.7216 39.8787 33.159C40.4413 32.5963 41.2043 32.2803 42 32.2803C42.7957 32.2803 43.5587 32.5963 44.1213 33.159C44.6839 33.7216 45 34.4846 45 35.2803ZM42 20.2803C42.7957 20.2803 43.5587 19.9642 44.1213 19.4016C44.6839 18.839 45 18.0759 45 17.2803C45 16.4846 44.6839 15.7216 44.1213 15.159C43.5587 14.5963 42.7957 14.2803 42 14.2803C41.2043 14.2803 40.4413 14.5963 39.8787 15.159C39.3161 15.7216 39 16.4846 39 17.2803C39 18.0759 39.3161 18.839 39.8787 19.4016C40.4413 19.9642 41.2043 20.2803 42 20.2803ZM13 17.2803C13 18.0759 12.6839 18.839 12.1213 19.4016C11.5587 19.9642 10.7956 20.2803 10 20.2803C9.20435 20.2803 8.44129 19.9642 7.87868 19.4016C7.31607 18.839 7 18.0759 7 17.2803C7 16.4846 7.31607 15.7216 7.87868 15.159C8.44129 14.5963 9.20435 14.2803 10 14.2803C10.7956 14.2803 11.5587 14.5963 12.1213 15.159C12.6839 15.7216 13 16.4846 13 17.2803ZM10 38.2803C10.7956 38.2803 11.5587 37.9642 12.1213 37.4016C12.6839 36.839 13 36.0759 13 35.2803C13 34.4846 12.6839 33.7216 12.1213 33.159C11.5587 32.5963 10.7956 32.2803 10 32.2803C9.20435 32.2803 8.44129 32.5963 7.87868 33.159C7.31607 33.7216 7 34.4846 7 35.2803C7 36.0759 7.31607 36.839 7.87868 37.4016C8.44129 37.9642 9.20435 38.2803 10 38.2803ZM29 26.2803C29 27.0759 28.6839 27.839 28.1213 28.4016C27.5587 28.9642 26.7956 29.2803 26 29.2803C25.2044 29.2803 24.4413 28.9642 23.8787 28.4016C23.3161 27.839 23 27.0759 23 26.2803C23 25.4846 23.3161 24.7216 23.8787 24.159C24.4413 23.5963 25.2044 23.2803 26 23.2803C26.7956 23.2803 27.5587 23.5963 28.1213 24.159C28.6839 24.7216 29 25.4846 29 26.2803Z" fill="#DDB14E"/>
<path d="M10.9805 35.9501L20.2105 40.9901C20.0015 41.6112 19.9484 42.2741 20.0557 42.9206C20.163 43.567 20.4275 44.1772 20.8259 44.6974C21.2243 45.2177 21.7444 45.6321 22.3405 45.9042C22.9366 46.1764 23.5904 46.2979 24.2445 46.2581C24.8986 46.2183 25.5329 46.0185 26.0916 45.6761C26.6503 45.3338 27.1164 44.8594 27.4488 44.2947C27.7812 43.73 27.9698 43.0923 27.998 42.4376C28.0262 41.7829 27.8931 41.1313 27.6105 40.5401L36.7205 35.5701C37.0892 36.0994 37.5805 36.5317 38.1524 36.8301C38.7244 37.1284 39.36 37.2841 40.005 37.2837C40.6501 37.2833 41.2855 37.1268 41.8571 36.8278C42.4286 36.5287 42.9194 36.0958 43.2875 35.566C43.6555 35.0363 43.89 34.4254 43.971 33.7854C44.0519 33.1454 43.9768 32.4953 43.7521 31.8906C43.5275 31.2859 43.1599 30.7445 42.6808 30.3126C42.2016 29.8807 41.6251 29.5711 41.0005 29.4101V19.1501C41.564 19.0048 42.0889 18.7383 42.5388 18.3691C42.9887 18 43.3526 17.5371 43.6051 17.0128C43.8576 16.4886 43.9928 15.9155 44.001 15.3337C44.0093 14.7518 43.8905 14.1751 43.6529 13.6439C43.4153 13.1127 43.0647 12.6397 42.6255 12.2579C42.1863 11.8762 41.6691 11.5949 41.1099 11.4336C40.5508 11.2723 39.9632 11.235 39.3882 11.3242C38.8131 11.4134 38.2645 11.627 37.7805 11.9501L27.9605 5.71014C27.8246 4.75667 27.3493 3.88423 26.6218 3.25307C25.8943 2.62191 24.9636 2.27441 24.0005 2.27441C23.0374 2.27441 22.1066 2.62191 21.3791 3.25307C20.6517 3.88423 20.1763 4.75667 20.0405 5.71014L10.2205 11.9501C9.73648 11.627 9.18783 11.4134 8.61278 11.3242C8.03773 11.235 7.45015 11.2723 6.89101 11.4336C6.33188 11.5949 5.81467 11.8762 5.37546 12.2579C4.93625 12.6397 4.58563 13.1127 4.34806 13.6439C4.11048 14.1751 3.99168 14.7518 3.99993 15.3337C4.00818 15.9155 4.1433 16.4886 4.39584 17.0128C4.64839 17.5371 5.01229 18 5.46214 18.3691C5.912 18.7383 6.43699 19.0048 7.00047 19.1501V29.4101C6.39568 29.5661 5.83581 29.8614 5.36569 30.2726C4.89557 30.6838 4.52826 31.1993 4.29318 31.7779C4.0581 32.3566 3.96179 32.9822 4.01194 33.6047C4.0621 34.2273 4.25734 34.8294 4.58203 35.363C4.90671 35.8965 5.35182 36.3466 5.88171 36.6772C6.41159 37.0078 7.01153 37.2097 7.63348 37.2668C8.25542 37.3238 8.88209 37.2345 9.4633 37.0059C10.0445 36.7772 10.5641 36.4157 10.9805 35.9501ZM24.0005 4.28014C24.5309 4.28014 25.0396 4.49086 25.4147 4.86593C25.7898 5.241 26.0005 5.74971 26.0005 6.28014C26.0005 6.81058 25.7898 7.31929 25.4147 7.69436C25.0396 8.06943 24.5309 8.28014 24.0005 8.28014C23.47 8.28014 22.9613 8.06943 22.5863 7.69436C22.2112 7.31929 22.0005 6.81058 22.0005 6.28014C22.0005 5.74971 22.2112 5.241 22.5863 4.86593C22.9613 4.49086 23.47 4.28014 24.0005 4.28014ZM20.7605 21.9401L16.8405 19.4401L22.2405 9.88015C22.4905 9.99015 22.7405 10.0801 23.0005 10.1501V20.4101C22.0984 20.6437 21.3061 21.1848 20.7605 21.9401ZM15.1505 18.3701L11.8705 16.2901C12.1182 15.3451 12.0115 14.342 11.5705 13.4701L20.3405 7.89014C20.44 8.11751 20.5606 8.33512 20.7005 8.54014L15.1505 18.3701ZM14.1605 20.1101L9.00047 29.2501V19.1501C9.72512 18.9651 10.3834 18.5805 10.9005 18.0401L14.1605 20.1101ZM10.7005 30.3201L15.8605 21.1901L20.0305 23.8401C19.9985 24.1326 19.9985 24.4277 20.0305 24.7201L10.9105 30.5201C10.8462 30.4511 10.7795 30.3844 10.7105 30.3201H10.7005ZM26.9005 21.5201C26.3834 20.9798 25.7251 20.5952 25.0005 20.4101V10.3101L30.1605 19.4501L26.9005 21.5201ZM27.8805 23.2701L31.1605 21.1901L36.6105 30.8401L27.8805 25.2901C28.0533 24.6279 28.0533 23.9324 27.8805 23.2701ZM32.8505 20.1101L36.7705 17.6201C37.3136 18.3736 38.102 18.9145 39.0005 19.1501V29.4101C38.7405 29.4701 38.4905 29.5701 38.2505 29.6801L32.8405 20.1101H32.8505ZM26.6905 9.24014C27.1005 8.86014 27.4405 8.40014 27.6605 7.89014L36.4305 13.4701C36.0801 14.1649 35.941 14.9472 36.0305 15.7201L31.8505 18.3701L26.6905 9.24014ZM25.0005 28.1501C25.7251 27.9651 26.3834 27.5805 26.9005 27.0401L35.1405 32.2801H25.0005V28.1501ZM23.0005 32.2801H11.8705L20.7605 26.6201C21.3061 27.3755 22.0984 27.9166 23.0005 28.1501V32.2801ZM12.0905 34.2801H23.0005V38.4101C22.3761 38.5704 21.7998 38.8792 21.3205 39.3101L12.0905 34.2801ZM10.0005 33.2801C10.0005 33.8106 9.78975 34.3193 9.41468 34.6944C9.03961 35.0694 8.5309 35.2801 8.00047 35.2801C7.47004 35.2801 6.96133 35.0694 6.58625 34.6944C6.21118 34.3193 6.00047 33.8106 6.00047 33.2801C6.00047 32.7497 6.21118 32.241 6.58625 31.8659C6.96133 31.4909 7.47004 31.2801 8.00047 31.2801C8.5309 31.2801 9.03961 31.4909 9.41468 31.8659C9.78975 32.241 10.0005 32.7497 10.0005 33.2801ZM25.0005 34.2801H34.9105L26.2805 38.9901C25.8916 38.7224 25.4582 38.526 25.0005 38.4101V34.2801ZM26.0005 24.2801C26.0005 24.8106 25.7898 25.3193 25.4147 25.6944C25.0396 26.0694 24.5309 26.2801 24.0005 26.2801C23.47 26.2801 22.9613 26.0694 22.5863 25.6944C22.2112 25.3193 22.0005 24.8106 22.0005 24.2801C22.0005 23.7497 22.2112 23.241 22.5863 22.8659C22.9613 22.4909 23.47 22.2801 24.0005 22.2801C24.5309 22.2801 25.0396 22.4909 25.4147 22.8659C25.7898 23.241 26.0005 23.7497 26.0005 24.2801ZM10.0005 15.2801C10.0005 15.8106 9.78975 16.3193 9.41468 16.6944C9.03961 17.0694 8.5309 17.2801 8.00047 17.2801C7.47004 17.2801 6.96133 17.0694 6.58625 16.6944C6.21118 16.3193 6.00047 15.8106 6.00047 15.2801C6.00047 14.7497 6.21118 14.241 6.58625 13.8659C6.96133 13.4909 7.47004 13.2801 8.00047 13.2801C8.5309 13.2801 9.03961 13.4909 9.41468 13.8659C9.78975 14.241 10.0005 14.7497 10.0005 15.2801ZM40.0005 17.2801C39.47 17.2801 38.9613 17.0694 38.5863 16.6944C38.2112 16.3193 38.0005 15.8106 38.0005 15.2801C38.0005 14.7497 38.2112 14.241 38.5863 13.8659C38.9613 13.4909 39.47 13.2801 40.0005 13.2801C40.5309 13.2801 41.0396 13.4909 41.4147 13.8659C41.7898 14.241 42.0005 14.7497 42.0005 15.2801C42.0005 15.8106 41.7898 16.3193 41.4147 16.6944C41.0396 17.0694 40.5309 17.2801 40.0005 17.2801ZM22.0005 42.2801C22.0005 41.7497 22.2112 41.241 22.5863 40.8659C22.9613 40.4909 23.47 40.2801 24.0005 40.2801C24.5309 40.2801 25.0396 40.4909 25.4147 40.8659C25.7898 41.241 26.0005 41.7497 26.0005 42.2801C26.0005 42.8106 25.7898 43.3193 25.4147 43.6944C25.0396 44.0694 24.5309 44.2801 24.0005 44.2801C23.47 44.2801 22.9613 44.0694 22.5863 43.6944C22.2112 43.3193 22.0005 42.8106 22.0005 42.2801ZM40.0005 31.2801C40.5309 31.2801 41.0396 31.4909 41.4147 31.8659C41.7898 32.241 42.0005 32.7497 42.0005 33.2801C42.0005 33.8106 41.7898 34.3193 41.4147 34.6944C41.0396 35.0694 40.5309 35.2801 40.0005 35.2801C39.47 35.2801 38.9613 35.0694 38.5863 34.6944C38.2112 34.3193 38.0005 33.8106 38.0005 33.2801C38.0005 32.7497 38.2112 32.241 38.5863 31.8659C38.9613 31.4909 39.47 31.2801 40.0005 31.2801Z" fill="#DDB14E"/>
</svg>
