<svg width="49" height="48" viewBox="0 0 49 48" fill="none" xmlns="http://www.w3.org/2000/svg">
<g clip-path="url(#clip0_148_1693)">
<path opacity="0.2" d="M38.6746 1.56989C39.3446 1.22989 40.1746 1.49989 40.5146 2.16989L45.9346 12.9199C46.0154 13.0814 46.0635 13.2573 46.0763 13.4374C46.0891 13.6175 46.0663 13.7984 46.0092 13.9698C45.9521 14.1411 45.8618 14.2995 45.7435 14.4359C45.6251 14.5723 45.4811 14.6841 45.3196 14.7649C45.1581 14.8457 44.9822 14.8938 44.8021 14.9066C44.6219 14.9194 44.441 14.8966 44.2697 14.8395C44.0984 14.7824 43.94 14.6921 43.8036 14.5738C43.6671 14.4555 43.5553 14.3114 43.4746 14.1499L38.0646 3.40989C37.7246 2.73989 37.9946 1.90989 38.6646 1.56989H38.6746ZM35.4646 7.46989C36.1546 7.15989 36.9646 7.46989 37.2746 8.15989L39.5946 13.3099C39.6688 13.474 39.7099 13.6512 39.7156 13.8313C39.7214 14.0113 39.6916 14.1907 39.628 14.3593C39.5644 14.5278 39.4682 14.6822 39.3449 14.8135C39.2217 14.9449 39.0737 15.0507 38.9096 15.1249C38.7454 15.1991 38.5683 15.2402 38.3882 15.246C38.2082 15.2517 38.0288 15.2219 37.8602 15.1583C37.6917 15.0947 37.5373 14.9985 37.406 14.8752C37.2746 14.752 37.1688 14.604 37.0946 14.4399L34.7746 9.29989C34.4646 8.59989 34.7746 7.79989 35.4646 7.47989V7.46989ZM7.58458 35.2999C7.70785 35.1683 7.85589 35.0623 8.02021 34.988C8.18453 34.9138 8.36189 34.8727 8.54213 34.8671C8.72236 34.8615 8.90193 34.8916 9.07052 34.9555C9.23911 35.0195 9.39342 35.1162 9.52459 35.2399L14.1646 39.6299C14.4298 39.8805 14.5846 40.2262 14.5949 40.591C14.6052 40.9558 14.4702 41.3097 14.2196 41.5749C13.969 41.8401 13.6232 41.9949 13.2585 42.0052C12.8937 42.0155 12.5398 41.8805 12.2746 41.6299L7.63458 37.2399C7.50366 37.1159 7.39848 36.9674 7.32508 36.8027C7.25168 36.638 7.21151 36.4605 7.20687 36.2803C7.20222 36.1 7.2332 35.9207 7.29801 35.7524C7.36283 35.5842 7.46021 35.4304 7.58458 35.2999ZM2.37458 37.6799C2.49785 37.5483 2.64589 37.4423 2.81021 37.368C2.97453 37.2938 3.15189 37.2527 3.33213 37.2471C3.51236 37.2415 3.69193 37.2716 3.86052 37.3355C4.02911 37.3995 4.18342 37.4962 4.31458 37.6199L12.6546 45.4399C12.9198 45.6892 13.0751 46.0336 13.0864 46.3975C13.0976 46.7613 12.9639 47.1147 12.7146 47.3799C12.4653 47.6451 12.1208 47.8004 11.757 47.8117C11.3932 47.8229 11.0398 47.6892 10.7746 47.4399L2.43458 39.6299C2.30148 39.5065 2.19423 39.3578 2.11907 39.1926C2.04391 39.0274 2.00232 38.8489 1.99674 38.6674C1.99116 38.486 2.02169 38.3053 2.08655 38.1357C2.15142 37.9662 2.24932 37.8113 2.37458 37.6799ZM17.0946 36.9299C20.3146 41.0299 24.7146 46.6399 31.0246 46.6399C32.8646 46.6399 34.7646 46.1399 36.6746 45.1699C42.3846 42.2499 43.6446 38.2099 45.2246 33.0999L45.5046 32.1999C46.9646 27.5299 47.9446 23.7999 48.2046 22.7599C48.7646 20.9599 47.6746 19.1199 45.7746 18.5999C44.872 18.3545 43.9107 18.4507 43.0746 18.8699C42.6735 19.0673 42.3163 19.3435 42.0242 19.682C41.7321 20.0204 41.5112 20.4142 41.3746 20.8399L39.5546 27.1099C39.5384 27.1648 39.5057 27.2134 39.461 27.2491C39.4163 27.2849 39.3617 27.3061 39.3046 27.3099C39.1746 27.2699 39.0746 27.2399 39.0346 27.1399L28.8946 4.30989C27.9946 2.78989 26.2746 2.25989 24.8446 2.98989C23.3246 3.76989 22.9946 5.03989 23.8446 6.88989C24.7146 8.75989 28.8646 20.1899 29.5546 22.1899C29.6146 22.3499 29.5546 22.4699 29.4346 22.5399C29.2546 22.6099 29.1346 22.5399 29.0646 22.4399L18.6146 5.55989C18.2344 4.92535 17.626 4.4601 16.9141 4.25933C16.2021 4.05857 15.4403 4.13747 14.7846 4.47989C14.1146 4.81989 13.6546 5.37989 13.4646 6.03989C13.3757 6.37941 13.3564 6.73342 13.408 7.08058C13.4595 7.42774 13.5808 7.76087 13.7646 8.05989L23.4646 24.6099C23.5346 24.7299 23.4946 24.8699 23.3746 24.9499C23.1846 25.0499 23.0946 24.9899 23.0046 24.8899L13.1046 12.7299C12.5546 12.0899 11.6546 11.3299 10.4546 11.3299C9.97458 11.3299 9.50458 11.4499 9.03458 11.6799C8.44458 11.9799 8.06458 12.4399 7.93458 13.0099C7.75458 13.7199 7.99459 14.5599 8.57458 15.3099C9.38458 16.3699 17.2346 27.2999 18.7946 29.4799L18.8446 29.5399C18.9146 29.6399 18.8946 29.7899 18.7946 29.8699C18.7437 29.9103 18.6812 29.9331 18.6163 29.9349C18.5513 29.9367 18.4876 29.9174 18.4346 29.8799L8.77459 22.3099C8.0983 21.7436 7.2556 21.4135 6.37458 21.3699C5.94458 21.3699 5.53458 21.4699 5.14458 21.6699C4.79458 21.8399 4.52458 22.2499 4.41458 22.7499C4.30458 23.2899 4.39458 23.8399 4.66458 24.3099C5.23458 25.2799 7.13458 26.9899 9.15458 28.7999C11.3946 30.7999 13.9346 33.0799 15.7646 35.2599C16.1546 35.7199 16.5646 36.2399 17.1046 36.9299H17.0946Z" fill="#DDB14E"/>
<path d="M12.4748 34.6197L12.9648 35.1997L15.0248 37.7597L15.6448 38.4997C20.1948 43.9697 23.5748 46.3497 28.5148 46.3497C30.5148 46.3497 32.5648 45.8197 34.6148 44.7697C39.2748 42.3897 41.1948 39.6697 43.0848 33.9597L43.6648 32.0997L44.0948 30.6997C45.1448 27.2997 45.9548 24.4797 46.6648 21.7197C46.8252 21.1608 46.8706 20.5752 46.7982 19.9982C46.7258 19.4212 46.5371 18.8649 46.2436 18.363C45.9501 17.861 45.5578 17.4238 45.0905 17.0777C44.6232 16.7317 44.0905 16.484 43.5248 16.3497L43.3148 16.2897C42.2065 16.0256 41.0397 16.1821 40.0403 16.7289C39.0408 17.2758 38.2799 18.174 37.9048 19.2497L36.6348 23.6397L27.2948 2.59974L27.2448 2.49974C26.0748 0.549743 23.7948 -0.180257 21.8748 0.799743C19.9048 1.79974 19.3948 3.58974 20.3248 5.78974L20.4748 6.10974C20.8748 7.00974 22.0348 10.0797 23.2248 13.2897L23.7548 14.7297L16.9448 3.72974C15.8948 1.96974 13.7148 1.49974 11.9148 2.37974L11.7348 2.45974C9.96476 3.40974 9.25476 5.37974 10.3748 7.28974L15.2648 15.6197L11.3548 10.8197C10.9521 10.2835 10.4336 9.84501 9.83807 9.53683C9.24249 9.22865 8.58508 9.05874 7.91476 9.03974C4.84476 9.03974 3.44476 12.0897 5.13476 14.4897L6.83476 16.8197L10.3448 21.6797L12.4848 24.6497L6.85476 20.2397C6.00844 19.5223 4.94372 19.1134 3.83476 19.0797C3.30855 19.0624 2.7875 19.1882 2.32713 19.4437C1.86677 19.6991 1.48433 20.0747 1.22058 20.5304C0.956829 20.986 0.82164 21.5047 0.829419 22.0312C0.837199 22.5576 0.987655 23.0721 1.26476 23.5197L1.37476 23.6997C1.87476 24.4697 2.75476 25.3597 4.62476 27.0697L8.12476 30.2297L8.82476 30.8797C10.1084 32.056 11.3237 33.3047 12.4648 34.6197H12.4748ZM16.5748 36.4997L14.6848 34.1497L14.0048 33.3297C13.393 32.6044 12.7525 31.9039 12.0848 31.2297L11.4948 30.6597C10.9948 30.1597 10.4548 29.6497 9.85476 29.0897L7.96476 27.3897L6.22476 25.8097C4.23476 24.0097 3.35476 23.1097 3.00476 22.5097C2.59476 21.8097 3.01476 21.0797 3.84476 21.0797C4.42476 21.0797 5.04476 21.3597 5.62476 21.8097L15.2948 29.3797C15.8448 29.8197 16.6048 29.7297 17.0448 29.2097C17.4148 28.7497 17.4448 28.0797 17.0648 27.5897L7.81476 14.7197L6.85476 13.4197C5.97476 12.2697 6.51476 11.0397 7.93476 11.0397C8.61476 11.0397 9.26476 11.4297 9.82476 12.0897L19.7148 24.2397C20.1448 24.7497 20.8348 24.8197 21.3548 24.5197C21.9248 24.1797 22.1748 23.4497 21.8048 22.8197L12.1048 6.26974C11.5748 5.36974 11.8748 4.59974 12.7748 4.16974C13.7148 3.71974 14.7348 3.93974 15.2248 4.77974L25.7148 21.6797C26.5148 22.9797 28.4848 22.0097 27.9948 20.5797L27.4248 18.9397C25.7907 14.32 24.0671 9.73248 22.2548 5.17974C21.6148 3.78974 21.7848 3.09974 22.7948 2.57974L22.9448 2.51974C23.8148 2.15974 24.8148 2.47974 25.4448 3.37974L25.5048 3.47974L35.6148 26.2597C36.0848 27.3197 37.6848 27.2297 38.0148 26.0997L39.8248 19.8297C40.2048 18.6297 41.6648 17.9097 43.0048 18.2797C44.3748 18.6497 45.1348 19.9397 44.7448 21.1797L44.4548 22.2797C43.8748 24.5097 43.2148 26.8097 42.4048 29.4497L41.4448 32.5497L41.1948 33.3097C39.4548 38.5797 37.8148 40.8997 33.7148 42.9997C32.1146 43.8611 30.3317 44.3274 28.5148 44.3597C24.1648 44.3597 21.1048 42.0697 16.5848 36.5097L16.5748 36.4997Z" fill="#DDB14E"/>
</g>
<defs>
<clipPath id="clip0_148_1693">
<rect width="48" height="48" fill="white" transform="translate(0.714844)"/>
</clipPath>
</defs>
</svg>
