<svg width="49" height="48" viewBox="0 0 49 48" fill="none" xmlns="http://www.w3.org/2000/svg">
<path opacity="0.2" d="M35.6441 11C33.547 11.0846 31.5396 11.8739 29.9465 13.2403C28.3533 14.6066 27.2673 16.4702 26.8641 18.53C26.8641 18.85 26.8641 18.85 26.8641 18.53C26.3435 16.4426 25.1592 14.5808 23.4892 13.2246C21.8192 11.8684 19.7539 11.0912 17.6041 11.01C16.2166 10.9555 14.8338 11.2026 13.551 11.7344C12.2683 12.2661 11.1161 13.0698 10.1741 14.09C9.2426 15.1013 8.54688 16.3065 8.13707 17.6189C7.72726 18.9314 7.61355 20.3183 7.80413 21.68C7.80413 30.64 19.8241 38.91 24.5341 42.22C25.1655 42.7255 25.9503 43.001 26.7591 43.001C27.568 43.001 28.3527 42.7255 28.9841 42.22C33.3141 39.07 45.7141 30.64 45.7141 21.68C45.7141 16.98 44.3141 11 35.6441 11Z" fill="#DDB14E"/>
<path d="M6.63432 10.3597C7.6296 9.18106 8.88678 8.25163 10.3054 7.64564C11.724 7.03965 13.2647 6.77391 14.8043 6.86965H14.8143C18.6443 7.03965 22.0343 9.15965 23.8743 12.3397C24.734 10.7459 25.9938 9.40342 27.5298 8.44432C29.0657 7.48521 30.825 6.94252 32.6343 6.86965C37.2343 6.86965 40.1143 8.48965 41.7843 10.9397C43.4043 13.3097 43.7543 16.2597 43.7543 18.6797C43.7543 23.6497 40.3843 28.2797 36.7443 31.9297C33.6425 34.9417 30.2904 37.6849 26.7243 40.1297C25.9038 40.7811 24.887 41.1356 23.8393 41.1356C22.7917 41.1356 21.7748 40.7811 20.9543 40.1297L20.4743 39.7897C16.994 37.4293 13.716 34.7835 10.6743 31.8797C7.00432 28.2397 3.67432 23.6497 3.67432 18.6797V18.6397C3.77432 15.5597 4.75432 12.5697 6.63432 10.3597ZM22.8143 15.6997C22.3492 13.8805 21.3099 12.2599 19.8508 11.0781C18.3916 9.89642 16.5904 9.21663 14.7143 9.13965C13.5179 9.05677 12.3189 9.2582 11.2152 9.72746C10.1116 10.1967 9.13466 10.9205 8.36432 11.8397C6.8182 13.7941 5.96676 16.2077 5.94432 18.6997C5.94432 22.6897 8.69432 26.6997 12.2743 30.2697C15.2294 33.089 18.4137 35.6579 21.7943 37.9497L22.2943 38.2997L22.3543 38.3397C22.7819 38.6841 23.3157 38.8693 23.8647 38.8639C24.4137 38.8584 24.9437 38.6625 25.3643 38.3097L26.1143 37.7597C28.3943 36.0997 31.9743 33.4997 35.1343 30.3297C38.7143 26.7397 41.4843 22.6797 41.4843 18.6797C41.4843 16.3997 41.1343 14.0197 39.9143 12.2197C38.7443 10.5197 36.6443 9.14965 32.6643 9.13965C30.8106 9.2253 29.0419 9.94255 27.6521 11.1723C26.2623 12.402 25.335 14.0701 25.0243 15.8997L24.9843 16.0197L24.8743 16.2197C24.8143 16.2797 24.6643 16.4397 24.5543 16.5197C24.3332 16.6182 24.096 16.6758 23.8543 16.6897C23.6473 16.6479 23.4481 16.5737 23.2643 16.4697C23.1843 16.4097 23.0643 16.2897 23.0243 16.2297C22.9717 16.1498 22.9249 16.0662 22.8843 15.9797C22.8594 15.901 22.8394 15.8208 22.8243 15.7397V15.7097L22.8143 15.6997Z" fill="#DDB14E"/>
</svg>
