<svg width="49" height="49" viewBox="0 0 49 49" fill="none" xmlns="http://www.w3.org/2000/svg">
<path opacity="0.2" d="M43.9941 11.7197C44.9224 11.7197 45.8126 11.351 46.469 10.6946C47.1254 10.0382 47.4941 9.14798 47.4941 8.21973C47.4941 7.29147 47.1254 6.40123 46.469 5.74485C45.8126 5.08848 44.9224 4.71973 43.9941 4.71973C43.0659 4.71973 42.1756 5.08848 41.5193 5.74485C40.8629 6.40123 40.4941 7.29147 40.4941 8.21973C40.4941 9.14798 40.8629 10.0382 41.5193 10.6946C42.1756 11.351 43.0659 11.7197 43.9941 11.7197ZM15.9941 24.7197C16.9224 24.7197 17.8126 24.351 18.469 23.6946C19.1254 23.0382 19.4941 22.148 19.4941 21.2197C19.4941 20.2915 19.1254 19.4012 18.469 18.7449C17.8126 18.0885 16.9224 17.7197 15.9941 17.7197C15.0659 17.7197 14.1756 18.0885 13.5193 18.7449C12.8629 19.4012 12.4941 20.2915 12.4941 21.2197C12.4941 22.148 12.8629 23.0382 13.5193 23.6946C14.1756 24.351 15.0659 24.7197 15.9941 24.7197ZM7.99414 46.7197C8.9224 46.7197 9.81264 46.351 10.469 45.6946C11.1254 45.0382 11.4941 44.148 11.4941 43.2197C11.4941 42.2915 11.1254 41.4012 10.469 40.7449C9.81264 40.0885 8.9224 39.7197 7.99414 39.7197C7.06588 39.7197 6.17564 40.0885 5.51927 40.7449C4.86289 41.4012 4.49414 42.2915 4.49414 43.2197C4.49414 44.148 4.86289 45.0382 5.51927 45.6946C6.17564 46.351 7.06588 46.7197 7.99414 46.7197ZM36.4941 29.2197C36.4941 30.148 36.1254 31.0382 35.469 31.6946C34.8126 32.351 33.9224 32.7197 32.9941 32.7197C32.0659 32.7197 31.1756 32.351 30.5193 31.6946C29.8629 31.0382 29.4941 30.148 29.4941 29.2197C29.4941 28.2915 29.8629 27.4012 30.5193 26.7449C31.1756 26.0885 32.0659 25.7197 32.9941 25.7197C33.9224 25.7197 34.8126 26.0885 35.469 26.7449C36.1254 27.4012 36.4941 28.2915 36.4941 29.2197Z" fill="#DDB14E"/>
<path d="M37.694 6.21983C37.6949 5.32914 37.9723 4.46069 38.4879 3.73445C39.0035 3.0082 39.732 2.46 40.5726 2.16556C41.4132 1.87113 42.3245 1.845 43.1806 2.09079C44.0367 2.33657 44.7954 2.84213 45.3518 3.53764C45.9082 4.23315 46.2349 5.08428 46.2867 5.97345C46.3386 6.86262 46.1131 7.74596 45.6413 8.50144C45.1695 9.25692 44.4748 9.84725 43.6531 10.1909C42.8313 10.5345 41.9232 10.6145 41.054 10.4198L34.614 23.7998C35.1941 24.2484 35.6498 24.8379 35.9378 25.5123C36.2259 26.1867 36.3367 26.9235 36.2597 27.6527C36.1827 28.382 35.9205 29.0794 35.498 29.6788C35.0755 30.2781 34.5068 30.7595 33.8458 31.0771C33.1849 31.3947 32.4537 31.538 31.7217 31.4933C30.9898 31.4487 30.2814 31.2176 29.664 30.8221C29.0465 30.4265 28.5404 29.8796 28.1939 29.2334C27.8474 28.5872 27.6718 27.863 27.684 27.1298L27.664 27.1098L17.684 21.4398C17.2662 22.1371 16.6592 22.7017 15.9336 23.0681C15.2079 23.4345 14.3932 23.5876 13.584 23.5098L8.38403 37.6398C9.27366 38.2345 9.90959 39.1396 10.1675 40.1781C10.4255 41.2167 10.2869 42.3141 9.77894 43.2559C9.27095 44.1978 8.43003 44.9163 7.4205 45.2713C6.41097 45.6262 5.30537 45.5919 4.31975 45.1752C3.33413 44.7584 2.53932 43.9892 2.09061 43.0177C1.64191 42.0462 1.57156 40.9423 1.89332 39.9217C2.21508 38.9011 2.90582 38.0372 3.83056 37.4987C4.75531 36.9603 5.84761 36.7859 6.89403 37.0098L12.024 23.0498C11.3203 22.6865 10.7306 22.1359 10.32 21.4587C9.90929 20.7816 9.69362 20.0042 9.69671 19.2122C9.69981 18.4203 9.92155 17.6445 10.3375 16.9706C10.7534 16.2967 11.3474 15.7507 12.0539 15.3929C12.7605 15.0351 13.5521 14.8793 14.3415 14.9429C15.1309 15.0064 15.8874 15.2866 16.5277 15.7528C17.1679 16.2189 17.667 16.8529 17.9698 17.5846C18.2727 18.3164 18.3676 19.1176 18.244 19.8998L28.054 25.4798C28.4731 24.5284 29.2227 23.7611 30.1641 23.3199C31.1054 22.8786 32.1747 22.7934 33.174 23.0798L39.574 9.77983C38.9921 9.38602 38.5156 8.8556 38.1861 8.23499C37.8566 7.61438 37.6842 6.92248 37.684 6.21983H37.694ZM41.994 3.51983C41.6395 3.51983 41.2884 3.58966 40.9608 3.72535C40.6332 3.86104 40.3356 4.05992 40.0848 4.31064C39.8341 4.56136 39.6352 4.859 39.4996 5.18658C39.3639 5.51416 39.294 5.86526 39.294 6.21983C39.294 6.5744 39.3639 6.92549 39.4996 7.25307C39.6352 7.58065 39.8341 7.8783 40.0848 8.12901C40.3356 8.37973 40.6332 8.57861 40.9608 8.7143C41.2884 8.84999 41.6395 8.91983 41.994 8.91983C42.7101 8.91983 43.3969 8.63536 43.9032 8.12901C44.4096 7.62267 44.694 6.93591 44.694 6.21983C44.694 5.50374 44.4096 4.81699 43.9032 4.31064C43.3969 3.80429 42.7101 3.51983 41.994 3.51983ZM13.994 16.5198C13.2779 16.5198 12.5912 16.8043 12.0848 17.3106C11.5785 17.817 11.294 18.5037 11.294 19.2198C11.294 19.9359 11.5785 20.6227 12.0848 21.129C12.5912 21.6354 13.2779 21.9198 13.994 21.9198C14.7101 21.9198 15.3969 21.6354 15.9032 21.129C16.4096 20.6227 16.694 19.9359 16.694 19.2198C16.694 18.5037 16.4096 17.817 15.9032 17.3106C15.3969 16.8043 14.7101 16.5198 13.994 16.5198ZM5.99403 38.5198C5.27795 38.5198 4.59119 38.8043 4.08484 39.3106C3.57849 39.817 3.29403 40.5037 3.29403 41.2198C3.29403 41.9359 3.57849 42.6227 4.08484 43.129C4.59119 43.6354 5.27795 43.9198 5.99403 43.9198C6.71011 43.9198 7.39687 43.6354 7.90322 43.129C8.40957 42.6227 8.69403 41.9359 8.69403 41.2198C8.69403 40.5037 8.40957 39.817 7.90322 39.3106C7.39687 38.8043 6.71011 38.5198 5.99403 38.5198ZM29.294 27.2198C29.294 27.9359 29.5785 28.6227 30.0848 29.129C30.5912 29.6354 31.2779 29.9198 31.994 29.9198C32.7101 29.9198 33.3969 29.6354 33.9032 29.129C34.4096 28.6227 34.694 27.9359 34.694 27.2198C34.694 26.5037 34.4096 25.817 33.9032 25.3106C33.3969 24.8043 32.7101 24.5198 31.994 24.5198C31.2779 24.5198 30.5912 24.8043 30.0848 25.3106C29.5785 25.817 29.294 26.5037 29.294 27.2198Z" fill="#DDB14E"/>
</svg>
