<svg width="493" height="311" viewBox="0 0 493 311" fill="none" xmlns="http://www.w3.org/2000/svg">
<g clip-path="url(#clip0_188_5473)">
<path d="M121.549 10.3491C124.341 10.3491 126.604 8.03236 126.604 5.17454C126.604 2.31672 124.341 0 121.549 0C118.757 0 116.494 2.31672 116.494 5.17454C116.494 8.03236 118.757 10.3491 121.549 10.3491Z" fill="#3F3D56"/>
<path d="M139.011 10.3491C141.803 10.3491 144.066 8.03236 144.066 5.17454C144.066 2.31672 141.803 0 139.011 0C136.219 0 133.956 2.31672 133.956 5.17454C133.956 8.03236 136.219 10.3491 139.011 10.3491Z" fill="#3F3D56"/>
<path d="M156.473 10.3491C159.264 10.3491 161.528 8.03236 161.528 5.17454C161.528 2.31672 159.264 0 156.473 0C153.681 0 151.418 2.31672 151.418 5.17454C151.418 8.03236 153.681 10.3491 156.473 10.3491Z" fill="#3F3D56"/>
<path d="M176.384 9.26422C176.229 9.26422 176.074 9.20401 175.957 9.08419L172.546 5.59282C172.319 5.36018 172.319 4.98842 172.546 4.75578L175.957 1.2647C176.189 1.02855 176.567 1.02475 176.802 1.25535C177.039 1.48653 177.043 1.86559 176.812 2.10174L173.81 5.1743L176.812 8.24715C177.043 8.4833 177.039 8.86236 176.802 9.09354C176.686 9.20752 176.535 9.26422 176.384 9.26422Z" fill="#3F3D56"/>
<path d="M182.116 9.26466C181.965 9.26466 181.815 9.20796 181.698 9.09398C181.462 8.8628 181.458 8.48403 181.689 8.24759L184.691 5.17474L181.689 2.10218C181.458 1.86603 181.462 1.48697 181.698 1.25579C181.934 1.02432 182.313 1.0287 182.544 1.26514L185.954 4.75622C186.181 4.98886 186.181 5.36062 185.954 5.59326L182.544 9.08463C182.427 9.20446 182.272 9.26466 182.116 9.26466Z" fill="#3F3D56"/>
<path d="M360.546 0.598633H354.204C353.48 0.598633 352.895 1.1852 352.895 1.90947V8.26611C352.895 8.99037 353.48 9.57694 354.204 9.57694H360.546C361.269 9.57694 361.861 8.99037 361.861 8.26611V1.90947C361.861 1.1852 361.269 0.598633 360.546 0.598633Z" fill="#3F3D56"/>
<path d="M345.005 0.598633H338.663C337.939 0.598633 337.354 1.1852 337.354 1.90947V8.26611C337.354 8.99037 337.939 9.57694 338.663 9.57694H345.005C345.728 9.57694 346.32 8.99037 346.32 8.26611V1.90947C346.32 1.1852 345.728 0.598633 345.005 0.598633Z" fill="#3F3D56"/>
<path d="M375.19 0.898438H368.848C368.125 0.898438 367.539 1.48501 367.539 2.20927V8.56591C367.539 9.29017 368.125 9.87674 368.848 9.87674H375.19C375.913 9.87674 376.505 9.29017 376.505 8.56591V2.20927C376.505 1.48501 375.913 0.898438 375.19 0.898438Z" fill="#3F3D56"/>
<path d="M279.6 3.31641H228.906C228.021 3.31641 227.31 4.03468 227.31 4.91457C227.31 5.79446 228.021 6.5127 228.906 6.5127H279.6C280.478 6.5127 281.195 5.79443 281.195 4.91457C281.195 4.03471 280.478 3.31641 279.6 3.31641Z" fill="#3F3D56"/>
<path d="M385.561 25.0787H107.439C106.842 25.0659 106.369 24.5714 106.382 23.9742C106.394 23.395 106.86 22.9284 107.439 22.916H385.561C386.157 22.9288 386.631 23.4233 386.618 24.0205C386.605 24.5997 386.139 25.0663 385.561 25.0787Z" fill="#CACACA"/>
<path d="M340.739 40.3623H320.163C318.617 40.3623 317.364 41.6169 317.364 43.1645V43.1646C317.364 44.7122 318.617 45.9668 320.163 45.9668H340.739C342.285 45.9668 343.537 44.7122 343.537 43.1645C343.537 41.6169 342.285 40.3623 340.739 40.3623Z" fill="#DDB14E"/>
<path d="M306.87 51.5713H354.031C355.577 51.5713 356.829 52.8259 356.829 54.3735C356.829 55.9212 355.577 57.1758 354.031 57.1758H306.87C305.324 57.1758 304.071 55.9212 304.071 54.3735C304.071 52.8259 305.324 51.5713 306.87 51.5713Z" fill="#F1E5DD"/>
<path d="M354.031 62.7803H306.87C305.324 62.7803 304.071 64.0349 304.071 65.5825V65.5825C304.071 67.1302 305.324 68.3848 306.87 68.3848H354.031C355.577 68.3848 356.829 67.1302 356.829 65.5825C356.829 64.0349 355.577 62.7803 354.031 62.7803Z" fill="#F1E5DD"/>
<path d="M115.896 192.433H102.906C102.557 192.433 100.634 191.415 100.634 190.158V182.933C100.572 177.467 118.44 177.109 118.507 182.933V190.158C118.507 191.415 117.15 192.433 115.896 192.433Z" fill="#E6E6E6"/>
<path d="M116.568 178.035C115.937 177.809 115.268 177.713 114.6 177.752C114.779 177.693 114.943 177.597 115.082 177.47C114.96 177.465 114.838 177.448 114.719 177.421C114.588 177.396 114.465 177.341 114.359 177.259C114.252 177.175 114.196 177.043 114.208 176.908C114.232 176.743 114.386 176.607 114.37 176.44C114.352 176.25 114.133 176.157 114.015 176.006C113.868 175.772 113.893 175.469 114.077 175.263C114.189 175.133 114.325 175.027 114.479 174.95C114.22 174.884 113.947 174.888 113.69 174.962C113.966 174.748 114.088 174.391 114.002 174.052C113.856 173.631 113.51 173.311 113.08 173.197C112.656 173.09 112.216 173.055 111.78 173.092C112.151 172.978 112.095 172.396 111.811 172.131C111.528 171.866 111.123 171.755 110.855 171.474C110.588 171.192 110.61 170.592 110.995 170.545L110.948 170.408C110.181 170.121 109.327 170.511 109.041 171.279C109.016 171.345 108.996 171.412 108.981 171.48C108.911 171.921 109.042 172.407 108.822 172.795C108.54 173.288 107.858 173.344 107.293 173.289C106.738 173.147 106.15 173.227 105.654 173.513C105.244 173.856 105.188 174.466 105.53 174.877C105.72 175.105 106.003 175.233 106.299 175.225C105.928 175.228 105.558 175.277 105.198 175.371L105.545 175.505C105.622 175.529 105.693 175.569 105.753 175.623C105.814 175.679 105.833 175.767 105.8 175.843C105.744 175.944 105.601 175.94 105.488 175.923L104.735 175.81C104.885 175.86 104.965 176.022 104.915 176.172C104.865 176.322 104.704 176.403 104.554 176.353C104.515 176.34 104.48 176.319 104.45 176.291C104.528 176.382 104.59 176.484 104.634 176.595C104.679 176.707 104.666 176.834 104.6 176.935C104.446 177.076 104.221 177.103 104.039 177.004C103.977 176.98 103.916 176.953 103.854 176.928C103.855 176.949 103.857 176.971 103.859 176.993C103.901 177.283 104.062 177.542 104.303 177.707C103.962 177.746 103.648 177.912 103.422 178.172C103.03 178.659 103.006 179.347 103.364 179.86C102.984 179.692 102.567 179.623 102.154 179.66C101.728 179.712 101.41 180.075 101.412 180.504C101.481 181.03 102.131 181.222 102.656 181.287C106.787 181.797 110.965 181.796 115.097 181.286C115.658 181.248 116.207 181.108 116.719 180.873C117.236 180.628 117.591 180.135 117.662 179.566C117.639 178.881 117.208 178.277 116.568 178.035Z" fill="#DDB14E"/>
<path d="M119.635 184.125C119.54 183.716 119.176 183.426 118.757 183.428C118.357 183.439 118 183.724 117.608 183.662C117.283 183.61 117.027 183.325 116.7 183.369C116.4 183.409 116.239 183.702 116.015 183.86H115.44C115.217 183.684 115.107 183.327 114.797 183.227C114.329 183.076 113.955 183.604 113.465 183.697C113.182 183.728 112.896 183.674 112.644 183.54C112.398 183.406 112.13 183.315 111.853 183.272C111.605 183.234 111.356 183.343 111.216 183.552C111.231 183.403 111.037 183.256 110.84 183.247C110.62 183.255 110.406 183.321 110.22 183.438C110.033 183.555 109.817 183.617 109.596 183.617C109.107 183.574 108.868 183.002 108.376 182.996C107.758 182.988 107.51 183.871 106.898 183.796C106.58 183.756 106.408 183.467 106.125 183.343C105.824 183.251 105.502 183.248 105.2 183.334L103.753 183.606C103.329 183.723 102.881 183.727 102.455 183.618C102.145 183.506 101.843 183.262 101.523 183.355C101.244 183.436 101.108 183.749 100.813 183.765C100.625 183.741 100.443 183.679 100.279 183.582C99.9663 183.471 99.6175 183.559 99.3946 183.805C99.2326 184.466 99.2064 185.153 99.3175 185.824C99.3131 185.967 99.3244 186.111 99.3513 186.251L100.807 192.083C100.978 192.977 101.419 193.624 102.329 193.624H116.474C117.383 193.624 118.164 192.977 118.336 192.083L119.791 186.251C119.794 186.236 119.796 186.221 119.798 186.206C119.833 185.508 119.778 184.809 119.635 184.125Z" fill="#CCCCCC"/>
<path opacity="0.2" d="M102.34 183.685L102.623 187.366C102.717 188.593 102.578 189.803 102.672 191.03C102.725 191.722 103.012 192.43 103.065 193.121C103.071 193.202 103.199 193.203 103.192 193.121L102.91 189.44L102.627 185.759L102.467 183.685C102.461 183.604 102.334 183.603 102.34 183.685Z" fill="black"/>
<path opacity="0.2" d="M104.797 183.831L104.907 187.459L105.017 191.086L105.079 193.122C105.082 193.204 105.209 193.205 105.207 193.122L105.096 189.495L104.986 185.868L104.924 183.831C104.922 183.749 104.794 183.749 104.797 183.831Z" fill="black"/>
<path opacity="0.2" d="M107.177 184.049L107.143 187.555L107.11 191.039L107.091 193.015C107.092 193.05 107.122 193.078 107.157 193.076C107.19 193.075 107.217 193.048 107.218 193.015L107.252 189.509L107.285 186.025L107.304 184.049C107.303 184.014 107.273 183.986 107.238 183.987C107.205 183.988 107.178 184.015 107.177 184.049Z" fill="black"/>
<path opacity="0.2" d="M108.975 183.942L109.044 187.49L109.114 191.018L109.153 193.016C109.154 193.051 109.184 193.079 109.219 193.077C109.252 193.076 109.279 193.049 109.28 193.016L109.21 189.467L109.141 185.939L109.102 183.941C109.101 183.906 109.071 183.879 109.036 183.88C109.003 183.881 108.976 183.908 108.975 183.942Z" fill="black"/>
<path opacity="0.2" d="M111.595 183.796L111.674 187.439L111.754 191.083L111.799 193.122C111.8 193.157 111.829 193.185 111.865 193.184C111.898 193.183 111.925 193.156 111.926 193.122L111.846 189.479L111.767 185.835L111.722 183.796C111.721 183.76 111.691 183.733 111.656 183.734C111.623 183.736 111.596 183.762 111.595 183.796Z" fill="black"/>
<path opacity="0.2" d="M113.77 183.906L114.048 187.577L114.324 191.238L114.481 193.301C114.487 193.382 114.614 193.383 114.608 193.301L114.33 189.63L114.053 185.969L113.897 183.906C113.891 183.825 113.764 183.824 113.77 183.906Z" fill="black"/>
<path opacity="0.2" d="M116.186 184.334L116.353 187.693C116.409 188.813 116.125 189.932 116.181 191.052L116.275 192.938C116.279 193.02 116.407 193.021 116.403 192.938C116.347 191.819 116.631 190.699 116.575 189.579L116.407 186.22L116.313 184.334C116.309 184.252 116.182 184.252 116.186 184.334Z" fill="black"/>
<path d="M108.807 175.13C109.076 175.13 109.295 174.978 109.295 174.79C109.295 174.602 109.076 174.45 108.807 174.45C108.537 174.45 108.318 174.602 108.318 174.79C108.318 174.978 108.537 175.13 108.807 175.13Z" fill="#E6E6E6"/>
<path d="M111.906 175.896C112.176 175.896 112.394 175.744 112.394 175.556C112.394 175.368 112.176 175.216 111.906 175.216C111.637 175.216 111.418 175.368 111.418 175.556C111.418 175.744 111.637 175.896 111.906 175.896Z" fill="#3F3D56"/>
<path d="M107.575 177.554C107.845 177.554 108.063 177.402 108.063 177.214C108.063 177.026 107.845 176.874 107.575 176.874C107.305 176.874 107.087 177.026 107.087 177.214C107.087 177.402 107.305 177.554 107.575 177.554Z" fill="#FF6584"/>
<path d="M111.612 178.002C111.783 178.002 111.921 177.906 111.921 177.787C111.921 177.668 111.783 177.572 111.612 177.572C111.442 177.572 111.304 177.668 111.304 177.787C111.304 177.906 111.442 178.002 111.612 178.002Z" fill="#E6E6E6"/>
<path d="M113.571 178.486C113.742 178.486 113.88 178.389 113.88 178.271C113.88 178.152 113.742 178.056 113.571 178.056C113.401 178.056 113.263 178.152 113.263 178.271C113.263 178.389 113.401 178.486 113.571 178.486Z" fill="#3F3D56"/>
<path d="M110.835 179.533C111.005 179.533 111.143 179.437 111.143 179.318C111.143 179.2 111.005 179.104 110.835 179.104C110.665 179.104 110.526 179.2 110.526 179.318C110.526 179.437 110.665 179.533 110.835 179.533Z" fill="#FF6584"/>
<path d="M114.5 179.193C114.67 179.193 114.809 179.096 114.809 178.978C114.809 178.859 114.67 178.763 114.5 178.763C114.33 178.763 114.191 178.859 114.191 178.978C114.191 179.096 114.33 179.193 114.5 179.193Z" fill="#E6E6E6"/>
<path d="M116.458 179.676C116.628 179.676 116.767 179.58 116.767 179.461C116.767 179.342 116.628 179.246 116.458 179.246C116.288 179.246 116.149 179.342 116.149 179.461C116.149 179.58 116.288 179.676 116.458 179.676Z" fill="#3F3D56"/>
<path d="M113.722 180.724C113.892 180.724 114.03 180.628 114.03 180.509C114.03 180.39 113.892 180.294 113.722 180.294C113.551 180.294 113.413 180.39 113.413 180.509C113.413 180.628 113.551 180.724 113.722 180.724Z" fill="#FF6584"/>
<path d="M106.546 178.059C106.569 177.89 106.492 177.74 106.375 177.724C106.258 177.708 106.144 177.832 106.12 178.001C106.097 178.17 106.173 178.32 106.291 178.336C106.408 178.352 106.522 178.228 106.546 178.059Z" fill="#E6E6E6"/>
<path d="M105.8 179.936C105.824 179.767 105.747 179.617 105.63 179.601C105.512 179.585 105.398 179.708 105.375 179.878C105.352 180.047 105.428 180.197 105.546 180.213C105.663 180.229 105.777 180.105 105.8 179.936Z" fill="#3F3D56"/>
<path d="M105.137 177.078C105.161 176.909 105.084 176.759 104.967 176.742C104.849 176.726 104.735 176.85 104.712 177.019C104.689 177.188 104.765 177.338 104.883 177.355C105 177.371 105.114 177.247 105.137 177.078Z" fill="#FF6584"/>
<path d="M109.9 177.039C109.923 176.87 109.847 176.72 109.729 176.703C109.612 176.687 109.498 176.811 109.475 176.98C109.451 177.149 109.528 177.299 109.645 177.315C109.763 177.332 109.877 177.208 109.9 177.039Z" fill="#E6E6E6"/>
<path d="M109.154 178.916C109.177 178.747 109.101 178.596 108.983 178.58C108.866 178.564 108.752 178.688 108.729 178.857C108.705 179.026 108.782 179.176 108.899 179.192C109.017 179.209 109.131 179.085 109.154 178.916Z" fill="#3F3D56"/>
<path d="M108.491 176.057C108.514 175.888 108.438 175.738 108.32 175.722C108.203 175.706 108.089 175.83 108.066 175.999C108.042 176.168 108.119 176.318 108.236 176.334C108.353 176.35 108.468 176.226 108.491 176.057Z" fill="#FF6584"/>
<path d="M110.808 174.961C110.831 174.792 110.755 174.641 110.638 174.625C110.52 174.609 110.406 174.733 110.383 174.902C110.36 175.071 110.436 175.221 110.553 175.237C110.671 175.254 110.785 175.13 110.808 174.961Z" fill="#3F3D56"/>
<path d="M110.147 172.104C110.17 171.935 110.094 171.785 109.977 171.769C109.859 171.753 109.745 171.876 109.722 172.045C109.699 172.215 109.775 172.365 109.892 172.381C110.01 172.397 110.124 172.273 110.147 172.104Z" fill="#FF6584"/>
<path d="M228.952 138.558C231.447 138.558 233.469 137.149 233.469 135.411C233.469 133.673 231.447 132.265 228.952 132.265C226.458 132.265 224.436 133.673 224.436 135.411C224.436 137.149 226.458 138.558 228.952 138.558Z" fill="#E6E6E6"/>
<path d="M257.624 145.637C260.119 145.637 262.141 144.228 262.141 142.49C262.141 140.752 260.119 139.344 257.624 139.344C255.13 139.344 253.107 140.752 253.107 142.49C253.107 144.228 255.13 145.637 257.624 145.637Z" fill="#3F3D56"/>
<path d="M217.562 160.976C220.056 160.976 222.079 159.567 222.079 157.829C222.079 156.091 220.056 154.683 217.562 154.683C215.067 154.683 213.045 156.091 213.045 157.829C213.045 159.567 215.067 160.976 217.562 160.976Z" fill="#FF6584"/>
<path d="M281.621 176.135C283.198 176.135 284.476 175.245 284.476 174.147C284.476 173.049 283.198 172.158 281.621 172.158C280.045 172.158 278.767 173.049 278.767 174.147C278.767 175.245 280.045 176.135 281.621 176.135Z" fill="#E6E6E6"/>
<path d="M299.742 180.61C301.319 180.61 302.597 179.72 302.597 178.621C302.597 177.523 301.319 176.633 299.742 176.633C298.166 176.633 296.888 177.523 296.888 178.621C296.888 179.72 298.166 180.61 299.742 180.61Z" fill="#3F3D56"/>
<path d="M208.035 165.646C208.25 164.082 207.544 162.692 206.457 162.542C205.371 162.392 204.316 163.539 204.101 165.103C203.885 166.667 204.592 168.056 205.678 168.206C206.765 168.356 207.82 167.21 208.035 165.646Z" fill="#E6E6E6"/>
<path d="M201.138 183.012C201.353 181.448 200.647 180.058 199.56 179.909C198.474 179.759 197.418 180.905 197.203 182.469C196.988 184.033 197.694 185.422 198.781 185.572C199.867 185.722 200.922 184.576 201.138 183.012Z" fill="#3F3D56"/>
<path d="M195.003 156.571C195.218 155.007 194.512 153.618 193.425 153.468C192.339 153.318 191.284 154.465 191.068 156.029C190.853 157.593 191.559 158.982 192.646 159.132C193.732 159.282 194.788 158.135 195.003 156.571Z" fill="#FF6584"/>
<path d="M239.066 156.207C239.282 154.643 238.575 153.254 237.489 153.104C236.402 152.954 235.347 154.1 235.132 155.664C234.917 157.228 235.623 158.618 236.709 158.768C237.796 158.917 238.851 157.771 239.066 156.207Z" fill="#E6E6E6"/>
<path d="M226.032 147.132C226.247 145.568 225.541 144.179 224.455 144.029C223.368 143.879 222.313 145.025 222.098 146.589C221.882 148.153 222.589 149.542 223.675 149.692C224.762 149.842 225.817 148.696 226.032 147.132Z" fill="#FF6584"/>
<path d="M346.671 299.572C347.454 299.608 348.118 299.001 348.154 298.217C348.173 297.799 348.007 297.393 347.7 297.109C347.664 296.966 347.638 296.864 347.602 296.721C348.374 294.759 350.587 293.795 352.547 294.567C353.508 294.946 354.275 295.699 354.671 296.655C356.353 300.597 358.53 304.678 357.447 309.02C364.598 293.844 362.166 274.967 351.598 261.989C348.582 260.383 346.423 257.532 345.693 254.19C347.139 254.681 348.942 253.503 347.855 251.978C347.383 251.396 346.908 250.817 346.437 250.235C351.928 244.378 358.471 253.582 352.427 261.487C354.404 263.969 356.117 266.652 357.537 269.491C357.209 266.477 357.601 263.427 358.679 260.593C359.773 257.952 361.822 255.728 363.626 253.445C364.96 251.732 367.428 251.427 369.139 252.763C369.986 253.425 370.525 254.405 370.631 255.476C368.606 256.143 368.343 259.072 370.66 259.473C369.943 266.142 365.872 271.983 359.867 274.956C362.046 281.079 362.897 287.597 362.363 294.075C363.405 286.504 371.521 284.667 377.194 281.657C378.221 280.998 379.588 281.297 380.247 282.326C380.545 282.792 380.658 283.353 380.564 283.899C379.781 284.217 379.031 284.613 378.326 285.081C377.442 285.676 377.208 286.876 377.802 287.761C378.125 288.242 378.646 288.553 379.223 288.607C376.363 295.693 368.97 300.452 361.378 300.425C360.648 303.6 359.591 306.691 358.223 309.647H346.954C346.913 309.522 346.877 309.392 346.84 309.267C347.884 309.333 348.931 309.27 349.959 309.081C347.199 305.809 345.065 304.14 346.671 299.572Z" fill="#F2F2F2"/>
<path d="M126.015 299.403C125.232 299.439 124.568 298.833 124.532 298.048C124.513 297.63 124.679 297.224 124.986 296.94L125.084 296.553C124.312 294.59 122.099 293.626 120.139 294.398C119.178 294.777 118.411 295.531 118.015 296.486C116.333 300.428 114.156 304.509 115.239 308.852C108.088 293.676 110.52 274.798 121.088 261.82C124.104 260.214 126.263 257.363 126.993 254.021C125.547 254.512 123.745 253.334 124.831 251.809C125.303 251.227 125.778 250.648 126.249 250.066C120.758 244.209 114.215 253.413 120.259 261.318C118.282 263.801 116.569 266.483 115.149 269.323C115.477 266.308 115.085 263.258 114.007 260.424C112.913 257.783 110.864 255.559 109.06 253.276C107.726 251.563 105.258 251.258 103.547 252.594C102.7 253.256 102.161 254.237 102.055 255.308C104.08 255.974 104.343 258.903 102.027 259.304C102.743 265.973 106.814 271.814 112.819 274.787C110.64 280.91 109.789 287.428 110.323 293.906C109.281 286.335 101.165 284.498 95.4925 281.489C94.4652 280.829 93.0983 281.128 92.4395 282.157C92.141 282.623 92.0278 283.184 92.1224 283.73C92.9054 284.049 93.6548 284.445 94.3596 284.912C95.2437 285.507 95.4785 286.707 94.8841 287.592C94.5611 288.073 94.0397 288.384 93.4634 288.438C96.3229 295.525 103.716 300.283 111.309 300.256C112.038 303.432 113.095 306.522 114.463 309.478H125.732C125.773 309.353 125.809 309.224 125.846 309.098C124.802 309.164 123.755 309.101 122.727 308.912C125.487 305.64 127.621 303.971 126.015 299.403Z" fill="#F2F2F2"/>
<path d="M154.249 167.291L153.051 160.333L171.274 152.093L175.21 145.116C174.829 143.281 176.006 141.485 177.837 141.104C179.669 140.723 181.463 141.901 181.844 143.735C182.142 145.172 181.484 146.637 180.213 147.368L173.739 157.39L154.249 167.291Z" fill="#A0616A"/>
<path d="M148.71 161.602L156.916 157.405L159.089 165.574L153.388 169.805L148.71 161.602Z" fill="#3F3D56"/>
<path d="M130.295 300.445H135.256L137.617 281.279H130.294L130.295 300.445Z" fill="#A0616A"/>
<path d="M136.908 300.893V297.524L135.603 297.604L130.293 297.919L129.064 297.995L128.125 309.276L128.074 309.881H131.598L131.711 309.281L132.223 306.551L133.544 309.281L133.833 309.881H143.174C144.331 309.874 145.266 308.935 145.271 307.777C145.666 305.933 137.898 301.947 136.908 300.893Z" fill="#2F2E41"/>
<path d="M71.5127 282.556L75.5695 285.417L88.5219 271.11L82.5343 266.887L71.5127 282.556Z" fill="#A0616A"/>
<path d="M76.807 286.369L78.7443 283.615L77.632 282.928L73.1097 280.124L72.0615 279.477L64.805 288.158L64.416 288.623L67.2964 290.655L67.7344 290.229L69.7229 288.293L69.2329 291.286L69.124 291.944L76.7604 297.331C77.7104 297.992 79.0148 297.765 79.6852 296.82C81.068 295.54 77.0099 287.802 76.807 286.369Z" fill="#2F2E41"/>
<path d="M137.966 176.407L131.579 173.417L118.842 188.852L111.084 190.817C109.417 189.966 107.377 190.629 106.527 192.299C105.678 193.968 106.34 196.011 108.007 196.862C109.313 197.528 110.898 197.279 111.936 196.243L123.297 192.628L137.966 176.407Z" fill="#A0616A"/>
<path d="M131.528 201.269C131.528 201.269 121.048 208.102 123.819 212.642C123.915 212.799 101.498 243.964 101.498 243.964L76.3604 271.102L85.0013 278.968C85.0013 278.968 108.882 254.067 112.888 249.863C116.894 245.66 134.393 224.631 134.393 224.631L135.036 250.619L128.338 286.632L138.34 285.997L148.075 249.867L151.668 208.942L131.528 201.269Z" fill="#2F2E41"/>
<path d="M138.992 160.259L134.585 163.604L129.562 174.338L134.392 180.907C134.392 180.907 138.455 187.958 131.952 194.786C125.449 201.614 120.455 208.907 125.66 208.647C130.865 208.386 151.947 219.123 152.085 210.327C152.224 201.53 152.505 194.786 152.505 194.786L158.032 180.748C158.032 180.748 161.325 172.374 159.013 169.867C156.701 167.361 153.605 164.157 153.605 164.157L147.976 158.521H142.893L138.992 160.259Z" fill="#3F3D56"/>
<path d="M147.218 139.633C157.104 145.267 148.988 160.13 138.918 154.838C129.032 149.204 137.148 134.341 147.218 139.633Z" fill="#A0616A"/>
<path d="M152.505 142.757C151.812 143.659 150.365 143.236 147.531 143.88C147.537 142.918 147.426 141.959 147.2 141.023C146.989 142.181 146.527 143.279 145.846 144.238C143.385 144.511 146.402 151.998 145.142 157.502C143.519 145.89 140.104 148.932 141.829 151.235C142.933 152.71 142.197 157.134 138.884 154.922C133.417 157.523 125.631 144.6 134.261 138.539C134.106 135.263 137.747 134.745 139.988 135.753C145.429 131.695 151.644 136.894 152.505 142.757Z" fill="#2F2E41"/>
<path d="M127.139 134.283C124.938 147.835 113.141 131.791 107.594 145.127C105.85 149.956 108.842 153.411 110.735 157.42C111.167 160.714 106.887 162.386 106.439 165.418C106.314 172.371 117.515 171.945 120.646 167.559C123.863 162.967 120.021 156.807 121.955 151.878C124.673 145.036 135.727 144.985 136.69 137.024C134.825 134.365 129.81 131.319 127.139 134.283Z" fill="#2F2E41"/>
<path d="M136.055 135.608C135.983 135.638 135.911 135.668 135.847 135.703H135.843C135.782 135.733 135.722 135.763 135.661 135.797C135.653 135.801 135.65 135.805 135.642 135.809C135.562 135.733 135.483 135.657 135.4 135.581C135.378 135.705 135.383 135.832 135.415 135.953L135.426 135.999C135.502 136.078 135.581 136.154 135.665 136.234C135.741 136.177 135.813 136.116 135.888 136.059C135.934 136.021 135.979 135.983 136.029 135.945C136.036 135.847 136.048 135.733 136.059 135.608L136.055 135.608ZM138.337 131.388C136.646 131.001 136.101 133.213 135.938 134.279C135.324 130.409 132.769 131.627 133.652 134.268C133.934 135.05 134.377 135.764 134.952 136.363C135.032 136.454 135.119 136.545 135.21 136.636C135.108 137.167 135.623 137.031 136.32 136.541C136.835 136.175 137.312 135.756 137.742 135.293C139.132 133.832 140.216 131.877 138.337 131.388ZM138.39 133.566C137.868 134.239 137.283 134.861 136.643 135.422C136.442 135.604 136.237 135.778 136.029 135.945C136.025 135.98 136.025 136.01 136.021 136.037C136.006 136.073 135.989 136.109 135.968 136.143C135.756 136.526 135.517 136.317 135.426 135.999C135.418 135.987 135.407 135.976 135.4 135.964C135.097 135.651 134.833 135.302 134.615 134.925C133.05 132.207 135.57 130.359 135.445 135.433C135.422 135.48 135.407 135.53 135.4 135.581C135.378 135.705 135.383 135.832 135.415 135.953L135.426 135.999C135.502 136.078 135.581 136.154 135.665 136.234C135.741 136.177 135.813 136.116 135.888 136.059C135.934 136.021 135.979 135.983 136.029 135.945C136.036 135.847 136.048 135.733 136.059 135.608L136.059 135.604C136.157 134.587 136.427 132.758 136.923 132.261C138.015 131.422 139.428 132.329 138.39 133.566ZM136.055 135.608C135.983 135.638 135.911 135.668 135.847 135.703H135.843C135.782 135.733 135.722 135.763 135.661 135.797C135.653 135.801 135.65 135.805 135.642 135.809C135.562 135.733 135.483 135.657 135.4 135.581C135.378 135.705 135.383 135.832 135.415 135.953L135.426 135.999C135.502 136.078 135.581 136.154 135.665 136.234C135.741 136.177 135.813 136.116 135.888 136.059C135.934 136.021 135.979 135.983 136.029 135.945C136.036 135.847 136.048 135.733 136.059 135.608L136.055 135.608Z" fill="#2F2E41"/>
<path d="M344.244 301.242L339.391 302.347L332.822 284.128L339.986 282.496L344.244 301.242Z" fill="#FFB6B6"/>
<path d="M345.567 306.272L330.643 309.672L330.6 309.483C329.87 306.271 331.879 303.074 335.087 302.343L337.343 299.65L342.9 300.563L344.202 300.266L345.567 306.272Z" fill="#2F2E41"/>
<path d="M407.531 291.664L403.339 294.351L390.993 279.439L397.18 275.473L407.531 291.664Z" fill="#FFB6B6"/>
<path d="M410.478 295.948L397.588 304.212L397.484 304.049C395.71 301.274 396.518 297.585 399.289 295.808L400.5 292.51L406.037 291.482L407.162 290.761L410.478 295.948Z" fill="#2F2E41"/>
<path d="M341.014 210.484L337.363 220.019L320.234 253.852L335.285 293.209L343.052 291.156L336.651 253.852L355.018 231.504L365.682 254.465L396.318 288.29L403.388 283.57L380.607 248.566L365.438 204.174L341.014 210.484Z" fill="#2F2E41"/>
<path d="M359.437 165.507L353.427 159.04L343.117 157.62L330.483 166.476L330.611 176.279L336.856 199.377C336.856 199.377 334.477 215.973 341.121 215.806C347.765 215.64 351.387 212.323 354.093 212.998C356.799 213.673 368.303 216.547 369.032 213.537C369.761 210.527 373.636 212.682 373.466 209.835C373.296 206.987 362.975 186.462 362.975 186.462L364.781 172.014C365.179 168.835 362.927 165.936 359.753 165.538C359.648 165.524 359.543 165.514 359.437 165.507Z" fill="#3F3D56"/>
<path d="M400.915 206.248C398.927 206.671 396.972 205.399 396.55 203.407C396.505 203.195 396.479 202.979 396.472 202.762L368.837 191.867L374.096 187.553L400.295 198.913C402.338 198.982 403.939 200.696 403.87 202.742C403.812 204.454 402.591 205.904 400.915 206.248Z" fill="#FFB6B6"/>
<path d="M361.773 166.706C361.773 166.706 357.065 166.67 356.487 172.036C355.909 177.402 365.78 191.011 367.305 193.252C367.783 193.954 369.835 194.752 372.429 195.518C373.594 195.862 374.868 196.199 376.157 196.518C376.904 196.702 377.237 197.941 377.976 198.111C378.71 198.28 379.85 197.381 380.541 197.531C383.823 198.244 386.416 198.72 386.416 198.72L392.552 194.533C389.456 189.957 383.536 188.085 376.828 186.966L361.773 166.706Z" fill="#3F3D56"/>
<path d="M292.504 141.786C292.814 143.798 294.694 145.178 296.703 144.868C296.918 144.835 297.129 144.783 297.334 144.713L317.294 166.734L319.461 160.282L299.575 139.769C298.787 137.88 296.619 136.989 294.732 137.777C293.154 138.438 292.233 140.095 292.504 141.786Z" fill="#FFB6B6"/>
<path d="M343.295 164.439C343.295 164.439 344.996 168.835 340.189 171.276C335.382 173.717 319.177 169.293 316.544 168.658C315.719 168.46 314.247 166.82 312.613 164.662C311.88 163.693 311.114 162.619 310.359 161.525C309.923 160.891 308.648 161.017 308.227 160.386C307.809 159.758 308.246 158.372 307.861 157.778C306.033 154.957 304.67 152.697 304.67 152.697L306.408 145.469C311.777 146.747 315.623 151.629 319.043 157.514L343.295 164.439Z" fill="#3F3D56"/>
<path d="M348.478 155.975C353.896 155.975 358.288 151.577 358.288 146.151C358.288 140.726 353.896 136.328 348.478 136.328C343.06 136.328 338.668 140.726 338.668 146.151C338.668 151.577 343.06 155.975 348.478 155.975Z" fill="#FFB6B6"/>
<path d="M359.676 140.528C358.65 138.871 356.766 137.952 354.831 138.163C354.303 134.542 350.944 132.034 347.328 132.562C345.983 132.759 344.732 133.365 343.743 134.298C343.154 133.883 342.391 133.806 341.731 134.096C341.085 134.391 340.523 134.842 340.096 135.41C337.902 138.151 337.39 141.878 338.764 145.111C338.535 144.276 339.37 143.49 340.215 143.302C341.059 143.115 341.945 143.292 342.802 143.17C343.899 143.014 344.886 142.376 345.985 142.233C346.918 142.172 347.853 142.292 348.739 142.587C349.626 142.882 350.56 143.007 351.492 142.957C352.418 142.847 353.609 146.359 353.593 148.832C353.59 149.3 353.687 149.902 354.144 150.002C354.708 150.124 355.034 149.346 355.57 149.133C356.084 148.986 356.622 149.272 356.787 149.781C356.924 150.286 356.809 150.826 356.478 151.231C356.148 151.627 355.757 151.967 355.319 152.238L355.54 152.422C355.972 152.879 356.668 152.966 357.199 152.628C357.705 152.285 358.115 151.817 358.39 151.27C359.424 149.668 360.164 147.893 360.574 146.029C360.978 144.148 360.657 142.183 359.676 140.528Z" fill="#2F2E41"/>
<path d="M247.484 136.994C247.7 135.43 246.993 134.041 245.907 133.891C244.82 133.741 243.765 134.887 243.55 136.451C243.335 138.015 244.041 139.405 245.127 139.555C246.214 139.705 247.269 138.558 247.484 136.994Z" fill="#3F3D56"/>
<path d="M408.012 204.093H395.022C394.673 204.093 392.75 203.074 392.75 201.817V194.592C392.688 189.126 410.556 188.769 410.623 194.592V201.817C410.623 203.074 409.267 204.093 408.012 204.093Z" fill="#E6E6E6"/>
<path d="M408.684 189.695C408.054 189.469 407.385 189.373 406.717 189.412C406.895 189.353 407.059 189.257 407.198 189.13C407.076 189.125 406.955 189.108 406.836 189.081C406.705 189.056 406.581 189.001 406.475 188.919C406.369 188.835 406.312 188.703 406.324 188.568C406.348 188.403 406.503 188.267 406.487 188.101C406.469 187.91 406.249 187.817 406.131 187.666C405.984 187.433 406.01 187.129 406.193 186.923C406.305 186.793 406.442 186.687 406.595 186.611C406.336 186.544 406.064 186.548 405.806 186.622C406.082 186.408 406.205 186.051 406.118 185.713C405.972 185.292 405.627 184.971 405.196 184.857C404.772 184.75 404.332 184.715 403.896 184.752C404.267 184.638 404.211 184.057 403.928 183.791C403.644 183.526 403.239 183.416 402.972 183.134C402.704 182.853 402.726 182.252 403.111 182.205L403.064 182.068C402.297 181.781 401.443 182.171 401.157 182.939C401.132 183.005 401.113 183.072 401.098 183.141C401.027 183.581 401.158 184.068 400.938 184.455C400.657 184.948 399.974 185.004 399.409 184.95C398.855 184.807 398.266 184.888 397.77 185.174C397.36 185.516 397.304 186.126 397.646 186.537C397.836 186.765 398.119 186.894 398.416 186.885C398.044 186.888 397.674 186.937 397.314 187.031L397.661 187.165C397.738 187.189 397.809 187.229 397.869 187.283C397.93 187.339 397.949 187.427 397.916 187.503C397.86 187.604 397.717 187.6 397.604 187.583L396.851 187.47C397.001 187.52 397.082 187.682 397.032 187.832C396.982 187.982 396.82 188.063 396.67 188.013C396.632 188 396.596 187.979 396.567 187.952C396.644 188.042 396.706 188.144 396.751 188.255C396.795 188.367 396.782 188.494 396.716 188.596C396.563 188.736 396.337 188.764 396.155 188.664C396.094 188.64 396.032 188.613 395.97 188.588C395.971 188.609 395.973 188.631 395.975 188.653C396.017 188.943 396.178 189.202 396.419 189.367C396.078 189.407 395.764 189.572 395.538 189.832C395.146 190.319 395.122 191.007 395.48 191.521C395.1 191.352 394.684 191.283 394.27 191.32C393.844 191.372 393.526 191.735 393.528 192.165C393.597 192.69 394.247 192.882 394.772 192.948C398.904 193.457 403.082 193.456 407.213 192.946C407.774 192.908 408.324 192.768 408.835 192.533C409.352 192.288 409.708 191.795 409.778 191.226C409.756 190.541 409.324 189.937 408.684 189.695Z" fill="#DDB14E"/>
<path d="M411.75 195.784C411.656 195.375 411.291 195.086 410.872 195.088C410.473 195.098 410.116 195.384 409.724 195.321C409.398 195.269 409.142 194.985 408.815 195.028C408.515 195.068 408.354 195.361 408.13 195.519H407.556C407.332 195.343 407.222 194.986 406.912 194.886C406.445 194.735 406.07 195.263 405.581 195.356C405.297 195.388 405.011 195.333 404.76 195.199C404.513 195.065 404.246 194.974 403.969 194.931C403.72 194.894 403.472 195.003 403.331 195.211C403.346 195.062 403.152 194.916 402.956 194.906C402.736 194.914 402.522 194.98 402.335 195.097C402.148 195.215 401.932 195.277 401.712 195.276C401.223 195.233 400.983 194.662 400.492 194.655C399.873 194.647 399.625 195.53 399.014 195.455C398.695 195.416 398.524 195.126 398.24 195.003C397.939 194.91 397.618 194.907 397.315 194.994L395.868 195.265C395.444 195.382 394.997 195.387 394.57 195.278C394.26 195.165 393.958 194.922 393.638 195.014C393.36 195.095 393.224 195.408 392.928 195.424C392.74 195.4 392.558 195.338 392.394 195.241C392.082 195.13 391.733 195.218 391.51 195.464C391.348 196.125 391.322 196.812 391.433 197.483C391.428 197.627 391.44 197.77 391.467 197.91L392.922 203.742C393.093 204.637 393.535 205.283 394.444 205.283H408.589C409.498 205.283 410.28 204.637 410.451 203.742L411.906 197.91C411.909 197.895 411.911 197.88 411.913 197.865C411.948 197.167 411.893 196.468 411.75 195.784Z" fill="#CCCCCC"/>
<path opacity="0.2" d="M394.456 195.344L394.739 199.026C394.833 200.253 394.694 201.463 394.788 202.69C394.841 203.381 395.128 204.089 395.181 204.78C395.187 204.861 395.315 204.862 395.309 204.78L395.026 201.099L394.743 197.418L394.584 195.344C394.577 195.263 394.45 195.262 394.456 195.344Z" fill="black"/>
<path opacity="0.2" d="M396.912 195.49L397.022 199.118L397.133 202.745L397.194 204.782C397.197 204.863 397.324 204.864 397.322 204.782L397.212 201.154L397.101 197.527L397.04 195.49C397.037 195.408 396.91 195.408 396.912 195.49Z" fill="black"/>
<path opacity="0.2" d="M399.292 195.708L399.258 199.214L399.225 202.698L399.206 204.674C399.207 204.709 399.237 204.737 399.272 204.736C399.305 204.734 399.332 204.708 399.333 204.674L399.367 201.168L399.4 197.684L399.419 195.708C399.418 195.673 399.388 195.645 399.353 195.647C399.32 195.648 399.293 195.675 399.292 195.708Z" fill="black"/>
<path opacity="0.2" d="M401.09 195.601L401.16 199.15L401.229 202.677L401.268 204.675C401.269 204.71 401.299 204.738 401.334 204.736C401.367 204.735 401.394 204.708 401.395 204.675L401.326 201.126L401.256 197.598L401.217 195.601C401.216 195.565 401.186 195.538 401.151 195.539C401.118 195.54 401.091 195.567 401.09 195.601Z" fill="black"/>
<path opacity="0.2" d="M403.71 195.455L403.79 199.099L403.869 202.742L403.914 204.782C403.915 204.817 403.945 204.845 403.98 204.843C404.013 204.842 404.04 204.815 404.041 204.782L403.962 201.138L403.882 197.495L403.837 195.455C403.836 195.42 403.807 195.392 403.771 195.394C403.738 195.395 403.711 195.422 403.71 195.455Z" fill="black"/>
<path opacity="0.2" d="M405.885 195.566L406.163 199.237L406.44 202.898L406.596 204.961C406.602 205.042 406.729 205.043 406.723 204.961L406.445 201.29L406.168 197.629L406.012 195.566C406.006 195.485 405.879 195.484 405.885 195.566Z" fill="black"/>
<path opacity="0.2" d="M408.302 195.993L408.47 199.352C408.525 200.472 408.242 201.592 408.297 202.711L408.391 204.598C408.395 204.679 408.523 204.68 408.519 204.598C408.463 203.478 408.747 202.358 408.691 201.238L408.523 197.879L408.429 195.993C408.425 195.911 408.298 195.911 408.302 195.993Z" fill="black"/>
<path d="M400.923 186.791C401.192 186.791 401.411 186.638 401.411 186.45C401.411 186.263 401.192 186.11 400.923 186.11C400.653 186.11 400.435 186.263 400.435 186.45C400.435 186.638 400.653 186.791 400.923 186.791Z" fill="#E6E6E6"/>
<path d="M404.021 187.555C404.291 187.555 404.51 187.403 404.51 187.215C404.51 187.027 404.291 186.875 404.021 186.875C403.752 186.875 403.533 187.027 403.533 187.215C403.533 187.403 403.752 187.555 404.021 187.555Z" fill="#3F3D56"/>
<path d="M399.691 189.213C399.961 189.213 400.18 189.061 400.18 188.873C400.18 188.685 399.961 188.533 399.691 188.533C399.422 188.533 399.203 188.685 399.203 188.873C399.203 189.061 399.422 189.213 399.691 189.213Z" fill="#FF6584"/>
<path d="M403.728 189.662C403.899 189.662 404.037 189.566 404.037 189.447C404.037 189.329 403.899 189.232 403.728 189.232C403.558 189.232 403.42 189.329 403.42 189.447C403.42 189.566 403.558 189.662 403.728 189.662Z" fill="#E6E6E6"/>
<path d="M405.687 190.146C405.858 190.146 405.996 190.049 405.996 189.931C405.996 189.812 405.858 189.716 405.687 189.716C405.517 189.716 405.379 189.812 405.379 189.931C405.379 190.049 405.517 190.146 405.687 190.146Z" fill="#3F3D56"/>
<path d="M402.95 191.194C403.121 191.194 403.259 191.097 403.259 190.979C403.259 190.86 403.121 190.764 402.95 190.764C402.78 190.764 402.642 190.86 402.642 190.979C402.642 191.097 402.78 191.194 402.95 191.194Z" fill="#FF6584"/>
<path d="M406.615 190.853C406.786 190.853 406.924 190.757 406.924 190.638C406.924 190.519 406.786 190.423 406.615 190.423C406.445 190.423 406.307 190.519 406.307 190.638C406.307 190.757 406.445 190.853 406.615 190.853Z" fill="#E6E6E6"/>
<path d="M408.574 191.336C408.745 191.336 408.883 191.24 408.883 191.121C408.883 191.002 408.745 190.906 408.574 190.906C408.404 190.906 408.266 191.002 408.266 191.121C408.266 191.24 408.404 191.336 408.574 191.336Z" fill="#3F3D56"/>
<path d="M405.837 192.384C406.007 192.384 406.145 192.288 406.145 192.169C406.145 192.05 406.007 191.954 405.837 191.954C405.666 191.954 405.528 192.05 405.528 192.169C405.528 192.288 405.666 192.384 405.837 192.384Z" fill="#FF6584"/>
<path d="M398.662 189.718C398.685 189.549 398.609 189.399 398.491 189.383C398.374 189.367 398.26 189.491 398.236 189.66C398.213 189.829 398.29 189.979 398.407 189.995C398.524 190.011 398.638 189.887 398.662 189.718Z" fill="#E6E6E6"/>
<path d="M397.914 191.594C397.937 191.425 397.861 191.275 397.743 191.259C397.626 191.243 397.512 191.367 397.488 191.536C397.465 191.705 397.541 191.855 397.659 191.871C397.776 191.887 397.89 191.763 397.914 191.594Z" fill="#3F3D56"/>
<path d="M397.253 188.738C397.276 188.569 397.199 188.419 397.082 188.402C396.965 188.386 396.851 188.51 396.827 188.679C396.804 188.848 396.88 188.998 396.998 189.015C397.115 189.031 397.229 188.907 397.253 188.738Z" fill="#FF6584"/>
<path d="M402.015 188.698C402.039 188.529 401.962 188.379 401.845 188.362C401.727 188.346 401.613 188.47 401.59 188.639C401.567 188.808 401.643 188.958 401.76 188.975C401.878 188.991 401.992 188.867 402.015 188.698Z" fill="#E6E6E6"/>
<path d="M401.27 190.575C401.293 190.406 401.217 190.256 401.1 190.239C400.982 190.223 400.868 190.347 400.845 190.516C400.822 190.685 400.898 190.835 401.015 190.852C401.133 190.868 401.247 190.744 401.27 190.575Z" fill="#3F3D56"/>
<path d="M400.607 187.717C400.63 187.548 400.554 187.398 400.437 187.382C400.319 187.366 400.205 187.49 400.182 187.659C400.159 187.828 400.235 187.978 400.352 187.994C400.47 188.01 400.584 187.886 400.607 187.717Z" fill="#FF6584"/>
<path d="M402.925 186.622C402.949 186.453 402.872 186.302 402.755 186.286C402.637 186.27 402.523 186.394 402.5 186.563C402.477 186.732 402.553 186.882 402.671 186.898C402.788 186.915 402.902 186.791 402.925 186.622Z" fill="#3F3D56"/>
<path d="M402.262 183.763C402.286 183.594 402.209 183.444 402.092 183.428C401.974 183.412 401.86 183.536 401.837 183.705C401.814 183.874 401.89 184.024 402.008 184.04C402.125 184.056 402.239 183.932 402.262 183.763Z" fill="#FF6584"/>
<path d="M493 310.317C492.541 311.678 0.494853 310.803 0 309.446C0.458045 308.083 492.504 308.957 493 310.317Z" fill="#CCCCCC"/>
<path d="M191.461 239.617C182.824 239.617 175.822 232.605 175.822 223.956C175.822 215.307 182.824 208.296 191.461 208.296C200.099 208.296 207.1 215.307 207.1 223.956C207.1 232.605 200.099 239.617 191.461 239.617Z" fill="#F1E5DD"/>
<path d="M197.632 222.412H193.004V217.777C193.004 216.924 192.314 216.232 191.462 216.232C190.61 216.232 189.919 216.924 189.919 217.777V222.412H185.291C184.439 222.412 183.748 223.103 183.748 223.956C183.748 224.81 184.439 225.501 185.291 225.501H189.919V230.136C189.921 230.989 190.613 231.679 191.465 231.677C192.314 231.675 193.002 230.986 193.004 230.136V225.501H197.632C198.484 225.501 199.175 224.81 199.175 223.956C199.175 223.103 198.484 222.412 197.632 222.412Z" fill="white"/>
<path d="M237.217 239.617C228.58 239.617 221.578 232.605 221.578 223.956C221.578 215.307 228.58 208.296 237.217 208.296C245.854 208.296 252.856 215.307 252.856 223.956C252.856 232.605 245.854 239.617 237.217 239.617Z" fill="#E6E6E6"/>
<path d="M243.387 222.412H231.046C230.194 222.412 229.503 223.104 229.503 223.957C229.503 224.81 230.194 225.502 231.046 225.502H243.387C244.239 225.502 244.93 224.81 244.93 223.957C244.93 223.104 244.239 222.412 243.387 222.412Z" fill="white"/>
<path d="M282.972 239.617C274.335 239.617 267.333 232.605 267.333 223.956C267.333 215.307 274.335 208.296 282.972 208.296C291.609 208.296 298.611 215.307 298.611 223.956C298.611 232.605 291.609 239.617 282.972 239.617Z" fill="#DDB14E"/>
<path d="M291.771 223.213L287.337 216.733C286.926 216.133 286.108 215.98 285.509 216.391C284.91 216.802 284.757 217.621 285.168 218.221L288.035 222.412H276.802C275.949 222.412 275.259 223.104 275.259 223.957C275.259 224.81 275.949 225.502 276.802 225.502H288.176L285.168 229.899C284.758 230.5 284.913 231.319 285.513 231.728C286.111 232.137 286.926 231.984 287.337 231.387L291.771 224.907C292.064 224.381 292.064 223.739 291.771 223.213Z" fill="white"/>
<path d="M169.377 54.373H148.8C147.255 54.373 146.002 55.6277 146.002 57.1753V57.1753C146.002 58.7229 147.255 59.9775 148.8 59.9775H169.377C170.922 59.9775 172.175 58.7229 172.175 57.1753C172.175 55.6277 170.922 54.373 169.377 54.373Z" fill="#DDB14E"/>
<path d="M182.67 65.582H135.508C133.963 65.582 132.71 66.8366 132.71 68.3843V68.3843C132.71 69.9319 133.963 71.1865 135.508 71.1865H182.67C184.215 71.1865 185.468 69.9319 185.468 68.3843C185.468 66.8366 184.215 65.582 182.67 65.582Z" fill="#F1E5DD"/>
<path d="M182.67 76.791H135.508C133.963 76.791 132.71 78.0456 132.71 79.5933V79.5933C132.71 81.1409 133.963 82.3955 135.508 82.3955H182.67C184.215 82.3955 185.468 81.1409 185.468 79.5933C185.468 78.0456 184.215 76.791 182.67 76.791Z" fill="#F1E5DD"/>
<path d="M179.762 136.962H178.566V92.0448H93.2949V90.8477H179.762V136.962Z" fill="#E6E6E6"/>
<path d="M79.9713 104.593C89.142 104.593 96.5764 97.148 96.5764 87.9647C96.5764 78.7814 89.142 71.3369 79.9713 71.3369C70.8006 71.3369 63.3662 78.7814 63.3662 87.9647C63.3662 97.148 70.8006 104.593 79.9713 104.593Z" fill="#F1E5DD"/>
<path d="M77.7062 96.6181C77.1248 96.6181 76.5774 96.3439 76.2287 95.8781L71.6986 89.8296C71.0865 89.0123 71.252 87.853 72.0681 87.2402C72.8842 86.6273 74.0419 86.7929 74.6539 87.6102L77.6177 91.5669L85.2297 80.1334C85.7956 79.2834 86.9424 79.0538 87.7912 79.6204C88.64 80.1871 88.8694 81.3355 88.3035 82.1854L79.2433 95.7944C78.9107 96.2938 78.3569 96.6007 77.7576 96.6175C77.7405 96.6178 77.7234 96.6181 77.7062 96.6181Z" fill="white"/>
<path d="M292.395 134.594H291.199V88.4795H377.666V89.6766H292.395V134.594Z" fill="#E6E6E6"/>
<path d="M390.925 102.224C400.096 102.224 407.531 94.7799 407.531 85.5966C407.531 76.4133 400.096 68.9688 390.925 68.9688C381.755 68.9688 374.32 76.4133 374.32 85.5966C374.32 94.7799 381.755 102.224 390.925 102.224Z" fill="#F1E5DD"/>
<path d="M388.66 94.2509C388.079 94.2509 387.531 93.9767 387.183 93.5109L382.653 87.4624C382.038 86.6467 382.201 85.487 383.016 84.8721C383.83 84.2572 384.988 84.4199 385.602 85.2356L385.608 85.243L388.572 89.1998L396.184 77.7662C396.75 76.9163 397.896 76.6866 398.745 77.2532C399.594 77.8199 399.823 78.9683 399.257 79.8182L390.197 93.4272C389.865 93.9266 389.311 94.2335 388.712 94.2503C388.694 94.2506 388.677 94.2509 388.66 94.2509Z" fill="white"/>
<path d="M184.513 142.269H171.523C171.174 142.269 169.251 141.251 169.251 139.994V132.768C169.189 127.303 187.057 126.945 187.124 132.768V139.994C187.124 141.251 185.768 142.269 184.513 142.269Z" fill="#E6E6E6"/>
<path d="M185.185 127.87C184.555 127.645 183.885 127.549 183.217 127.588C183.396 127.529 183.56 127.433 183.699 127.305C183.577 127.301 183.456 127.284 183.337 127.257C183.205 127.232 183.082 127.177 182.976 127.095C182.87 127.011 182.813 126.879 182.825 126.744C182.849 126.579 183.003 126.443 182.988 126.276C182.969 126.086 182.75 125.993 182.632 125.842C182.485 125.608 182.51 125.305 182.694 125.099C182.806 124.969 182.943 124.863 183.096 124.786C182.837 124.72 182.564 124.724 182.307 124.798C182.583 124.584 182.705 124.227 182.619 123.888C182.473 123.467 182.128 123.147 181.697 123.033C181.273 122.926 180.833 122.891 180.397 122.928C180.768 122.814 180.712 122.232 180.429 121.967C180.145 121.702 179.74 121.591 179.473 121.31C179.205 121.028 179.227 120.428 179.612 120.381L179.565 120.244C178.798 119.957 177.944 120.347 177.658 121.115C177.633 121.18 177.613 121.248 177.598 121.316C177.528 121.757 177.659 122.243 177.439 122.631C177.158 123.124 176.475 123.18 175.91 123.125C175.356 122.983 174.767 123.063 174.271 123.349C173.861 123.692 173.805 124.302 174.147 124.713C174.337 124.941 174.62 125.069 174.917 125.061C174.545 125.064 174.175 125.113 173.815 125.207L174.162 125.341C174.239 125.365 174.31 125.405 174.37 125.458C174.431 125.515 174.45 125.603 174.417 125.679C174.362 125.779 174.218 125.776 174.105 125.759L173.352 125.645C173.502 125.696 173.583 125.858 173.533 126.008C173.483 126.158 173.321 126.239 173.171 126.189C173.133 126.176 173.097 126.155 173.068 126.127C173.145 126.218 173.207 126.32 173.252 126.431C173.296 126.543 173.283 126.67 173.217 126.771C173.064 126.912 172.838 126.939 172.656 126.84C172.595 126.816 172.533 126.789 172.471 126.763C172.472 126.785 172.474 126.807 172.476 126.829C172.518 127.119 172.679 127.378 172.921 127.543C172.579 127.582 172.265 127.748 172.039 128.008C171.647 128.495 171.623 129.183 171.981 129.696C171.601 129.528 171.185 129.459 170.771 129.496C170.345 129.548 170.027 129.911 170.029 130.34C170.098 130.866 170.748 131.058 171.273 131.123C175.405 131.633 179.583 131.632 183.714 131.122C184.275 131.084 184.825 130.944 185.336 130.709C185.853 130.464 186.209 129.971 186.279 129.402C186.257 128.717 185.825 128.113 185.185 127.87Z" fill="#DDB14E"/>
<path d="M188.252 133.96C188.158 133.551 187.793 133.261 187.374 133.263C186.975 133.274 186.618 133.559 186.226 133.497C185.9 133.445 185.644 133.16 185.317 133.204C185.017 133.244 184.856 133.537 184.632 133.695H184.057C183.834 133.519 183.724 133.162 183.414 133.061C182.947 132.911 182.572 133.439 182.083 133.532C181.799 133.563 181.513 133.509 181.261 133.375C181.015 133.241 180.748 133.15 180.471 133.107C180.222 133.069 179.974 133.178 179.833 133.387C179.848 133.238 179.654 133.091 179.457 133.082C179.238 133.09 179.024 133.156 178.837 133.273C178.65 133.39 178.434 133.452 178.213 133.452C177.725 133.409 177.485 132.837 176.993 132.831C176.375 132.823 176.127 133.706 175.515 133.631C175.197 133.591 175.026 133.302 174.742 133.178C174.441 133.086 174.12 133.083 173.817 133.169L172.37 133.441C171.946 133.558 171.498 133.562 171.072 133.453C170.762 133.341 170.46 133.097 170.14 133.19C169.861 133.271 169.725 133.583 169.43 133.6C169.242 133.576 169.06 133.514 168.896 133.417C168.584 133.306 168.235 133.394 168.012 133.64C167.85 134.301 167.824 134.988 167.935 135.659C167.93 135.802 167.942 135.946 167.968 136.086L169.424 141.918C169.595 142.812 170.037 143.459 170.946 143.459H185.091C186 143.459 186.782 142.812 186.953 141.918L188.408 136.086C188.411 136.071 188.413 136.056 188.415 136.041C188.45 135.343 188.395 134.644 188.252 133.96Z" fill="#CCCCCC"/>
<path opacity="0.2" d="M170.957 133.521L171.24 137.202C171.334 138.429 171.195 139.639 171.289 140.866C171.342 141.557 171.629 142.266 171.682 142.957C171.688 143.038 171.816 143.039 171.81 142.957L171.527 139.276L171.244 135.594L171.085 133.521C171.078 133.44 170.951 133.439 170.957 133.521Z" fill="black"/>
<path opacity="0.2" d="M173.413 133.667L173.523 137.294L173.634 140.922L173.695 142.958C173.698 143.04 173.825 143.041 173.823 142.958L173.713 139.331L173.602 135.703L173.54 133.667C173.538 133.585 173.411 133.585 173.413 133.667Z" fill="black"/>
<path opacity="0.2" d="M175.794 133.885L175.76 137.391L175.727 140.875L175.708 142.851C175.709 142.886 175.739 142.914 175.774 142.912C175.807 142.911 175.834 142.884 175.835 142.851L175.869 139.345L175.902 135.861L175.921 133.885C175.92 133.85 175.89 133.822 175.855 133.823C175.822 133.824 175.795 133.851 175.794 133.885Z" fill="black"/>
<path opacity="0.2" d="M177.591 133.777L177.661 137.326L177.73 140.854L177.769 142.852C177.77 142.887 177.8 142.914 177.835 142.913C177.868 142.912 177.895 142.885 177.896 142.852L177.827 139.303L177.757 135.775L177.718 133.777C177.717 133.742 177.687 133.715 177.652 133.716C177.619 133.717 177.592 133.744 177.591 133.777Z" fill="black"/>
<path opacity="0.2" d="M180.211 133.631L180.291 137.275L180.37 140.918L180.415 142.958C180.416 142.993 180.446 143.021 180.481 143.019C180.514 143.018 180.541 142.991 180.542 142.958L180.463 139.314L180.383 135.671L180.338 133.631C180.337 133.596 180.308 133.568 180.272 133.569C180.239 133.571 180.212 133.597 180.211 133.631Z" fill="black"/>
<path opacity="0.2" d="M182.386 133.742L182.664 137.413L182.941 141.074L183.097 143.137C183.103 143.218 183.23 143.219 183.224 143.137L182.946 139.466L182.669 135.805L182.513 133.742C182.507 133.661 182.38 133.66 182.386 133.742Z" fill="black"/>
<path opacity="0.2" d="M184.803 134.17L184.97 137.529C185.026 138.649 184.742 139.768 184.798 140.888L184.892 142.774C184.896 142.856 185.024 142.856 185.02 142.774C184.964 141.655 185.248 140.535 185.192 139.415L185.024 136.056L184.93 134.17C184.926 134.088 184.799 134.088 184.803 134.17Z" fill="black"/>
<path d="M177.424 124.966C177.693 124.966 177.912 124.814 177.912 124.626C177.912 124.438 177.693 124.286 177.424 124.286C177.154 124.286 176.936 124.438 176.936 124.626C176.936 124.814 177.154 124.966 177.424 124.966Z" fill="#E6E6E6"/>
<path d="M180.522 125.732C180.792 125.732 181.011 125.58 181.011 125.392C181.011 125.204 180.792 125.052 180.522 125.052C180.253 125.052 180.034 125.204 180.034 125.392C180.034 125.58 180.253 125.732 180.522 125.732Z" fill="#3F3D56"/>
<path d="M176.192 127.39C176.462 127.39 176.681 127.238 176.681 127.05C176.681 126.862 176.462 126.71 176.192 126.71C175.923 126.71 175.704 126.862 175.704 127.05C175.704 127.238 175.923 127.39 176.192 127.39Z" fill="#FF6584"/>
<path d="M180.229 127.838C180.4 127.838 180.538 127.742 180.538 127.623C180.538 127.504 180.4 127.408 180.229 127.408C180.059 127.408 179.921 127.504 179.921 127.623C179.921 127.742 180.059 127.838 180.229 127.838Z" fill="#E6E6E6"/>
<path d="M182.188 128.321C182.359 128.321 182.497 128.225 182.497 128.107C182.497 127.988 182.359 127.892 182.188 127.892C182.018 127.892 181.88 127.988 181.88 128.107C181.88 128.225 182.018 128.321 182.188 128.321Z" fill="#3F3D56"/>
<path d="M179.451 129.369C179.622 129.369 179.76 129.273 179.76 129.154C179.76 129.036 179.622 128.939 179.451 128.939C179.281 128.939 179.143 129.036 179.143 129.154C179.143 129.273 179.281 129.369 179.451 129.369Z" fill="#FF6584"/>
<path d="M183.116 129.029C183.287 129.029 183.425 128.932 183.425 128.814C183.425 128.695 183.287 128.599 183.116 128.599C182.946 128.599 182.808 128.695 182.808 128.814C182.808 128.932 182.946 129.029 183.116 129.029Z" fill="#E6E6E6"/>
<path d="M185.075 129.512C185.246 129.512 185.384 129.416 185.384 129.297C185.384 129.178 185.246 129.082 185.075 129.082C184.905 129.082 184.767 129.178 184.767 129.297C184.767 129.416 184.905 129.512 185.075 129.512Z" fill="#3F3D56"/>
<path d="M182.339 130.56C182.509 130.56 182.647 130.464 182.647 130.345C182.647 130.226 182.509 130.13 182.339 130.13C182.168 130.13 182.03 130.226 182.03 130.345C182.03 130.464 182.168 130.56 182.339 130.56Z" fill="#FF6584"/>
<path d="M175.163 127.894C175.186 127.725 175.11 127.575 174.992 127.559C174.875 127.543 174.761 127.666 174.737 127.836C174.714 128.005 174.791 128.155 174.908 128.171C175.025 128.187 175.139 128.063 175.163 127.894Z" fill="#E6E6E6"/>
<path d="M174.418 129.771C174.441 129.602 174.364 129.452 174.247 129.436C174.13 129.42 174.016 129.543 173.992 129.712C173.969 129.882 174.045 130.032 174.163 130.048C174.28 130.064 174.394 129.94 174.418 129.771Z" fill="#3F3D56"/>
<path d="M173.755 126.914C173.778 126.745 173.701 126.595 173.584 126.578C173.467 126.562 173.352 126.686 173.329 126.855C173.306 127.024 173.382 127.174 173.5 127.19C173.617 127.207 173.731 127.083 173.755 126.914Z" fill="#FF6584"/>
<path d="M178.517 126.875C178.54 126.706 178.464 126.555 178.347 126.539C178.229 126.523 178.115 126.647 178.092 126.816C178.069 126.985 178.145 127.135 178.262 127.151C178.38 127.168 178.494 127.044 178.517 126.875Z" fill="#E6E6E6"/>
<path d="M177.771 128.752C177.794 128.583 177.718 128.432 177.601 128.416C177.483 128.4 177.369 128.524 177.346 128.693C177.323 128.862 177.399 129.012 177.516 129.028C177.634 129.045 177.748 128.921 177.771 128.752Z" fill="#3F3D56"/>
<path d="M177.108 125.893C177.131 125.724 177.055 125.574 176.937 125.558C176.82 125.542 176.706 125.665 176.683 125.835C176.659 126.004 176.736 126.154 176.853 126.17C176.971 126.186 177.085 126.062 177.108 125.893Z" fill="#FF6584"/>
<path d="M179.425 124.798C179.449 124.628 179.372 124.478 179.255 124.462C179.137 124.446 179.023 124.57 179 124.739C178.977 124.908 179.053 125.058 179.171 125.074C179.288 125.09 179.402 124.967 179.425 124.798Z" fill="#3F3D56"/>
<path d="M178.763 121.94C178.787 121.771 178.71 121.621 178.593 121.605C178.475 121.588 178.361 121.712 178.338 121.881C178.315 122.05 178.391 122.201 178.509 122.217C178.626 122.233 178.74 122.109 178.763 121.94Z" fill="#FF6584"/>
<path d="M298.928 139.745H285.938C285.589 139.745 283.666 138.726 283.666 137.47V130.244C283.604 124.779 301.472 124.421 301.539 130.244V137.47C301.539 138.726 300.183 139.745 298.928 139.745Z" fill="#E6E6E6"/>
<path d="M299.6 125.346C298.97 125.12 298.301 125.024 297.633 125.064C297.811 125.005 297.975 124.908 298.114 124.781C297.992 124.776 297.871 124.76 297.752 124.732C297.62 124.707 297.497 124.652 297.391 124.571C297.285 124.487 297.228 124.355 297.24 124.22C297.264 124.054 297.418 123.918 297.403 123.752C297.384 123.561 297.165 123.469 297.047 123.318C296.9 123.084 296.926 122.781 297.109 122.575C297.221 122.445 297.358 122.338 297.511 122.262C297.252 122.195 296.98 122.199 296.722 122.273C296.998 122.06 297.12 121.702 297.034 121.364C296.888 120.943 296.543 120.622 296.112 120.509C295.688 120.402 295.248 120.366 294.812 120.404C295.183 120.29 295.127 119.708 294.844 119.443C294.56 119.178 294.155 119.067 293.888 118.785C293.62 118.504 293.642 117.903 294.027 117.856L293.98 117.719C293.213 117.432 292.359 117.822 292.073 118.59C292.048 118.656 292.028 118.723 292.013 118.792C291.943 119.232 292.074 119.719 291.854 120.106C291.573 120.6 290.89 120.656 290.325 120.601C289.771 120.458 289.182 120.539 288.686 120.825C288.276 121.167 288.22 121.778 288.562 122.189C288.752 122.417 289.035 122.545 289.332 122.537C288.96 122.539 288.59 122.588 288.23 122.682L288.577 122.817C288.654 122.841 288.725 122.881 288.785 122.934C288.846 122.99 288.865 123.079 288.832 123.154C288.777 123.255 288.633 123.252 288.52 123.234L287.767 123.121C287.917 123.171 287.998 123.333 287.948 123.483C287.898 123.633 287.736 123.714 287.586 123.664C287.548 123.651 287.512 123.63 287.483 123.603C287.56 123.693 287.622 123.796 287.667 123.906C287.711 124.019 287.698 124.146 287.632 124.247C287.479 124.387 287.253 124.415 287.071 124.315C287.01 124.292 286.948 124.264 286.886 124.239C286.887 124.261 286.889 124.283 286.891 124.305C286.933 124.594 287.094 124.853 287.336 125.018C286.994 125.058 286.68 125.224 286.454 125.483C286.062 125.971 286.038 126.659 286.396 127.172C286.016 127.004 285.6 126.935 285.186 126.971C284.76 127.024 284.442 127.387 284.444 127.816C284.513 128.342 285.163 128.534 285.688 128.599C289.82 129.108 293.998 129.108 298.129 128.597C298.69 128.559 299.24 128.419 299.751 128.184C300.268 127.939 300.624 127.446 300.694 126.878C300.672 126.193 300.24 125.589 299.6 125.346Z" fill="#DDB14E"/>
<path d="M302.666 131.436C302.572 131.027 302.207 130.738 301.788 130.74C301.389 130.75 301.032 131.036 300.64 130.973C300.314 130.922 300.058 130.637 299.731 130.68C299.431 130.72 299.27 131.014 299.046 131.172H298.472C298.248 130.995 298.138 130.638 297.828 130.538C297.361 130.387 296.986 130.915 296.497 131.008C296.213 131.04 295.927 130.985 295.676 130.851C295.429 130.717 295.162 130.627 294.885 130.583C294.636 130.546 294.388 130.655 294.247 130.864C294.262 130.714 294.068 130.568 293.872 130.558C293.652 130.566 293.438 130.632 293.251 130.75C293.064 130.867 292.848 130.929 292.628 130.928C292.139 130.886 291.899 130.314 291.408 130.308C290.789 130.3 290.541 131.182 289.93 131.107C289.612 131.068 289.44 130.779 289.156 130.655C288.855 130.562 288.534 130.559 288.231 130.646L286.784 130.917C286.36 131.034 285.913 131.039 285.486 130.93C285.176 130.818 284.874 130.574 284.554 130.667C284.276 130.747 284.14 131.06 283.844 131.076C283.656 131.052 283.474 130.99 283.311 130.893C282.998 130.782 282.649 130.87 282.426 131.117C282.264 131.778 282.238 132.465 282.349 133.136C282.344 133.279 282.356 133.422 282.383 133.563L283.838 139.395C284.009 140.289 284.451 140.936 285.36 140.936H299.505C300.414 140.936 301.196 140.289 301.367 139.395L302.822 133.563C302.825 133.548 302.827 133.533 302.829 133.518C302.864 132.82 302.809 132.12 302.666 131.436Z" fill="#CCCCCC"/>
<path opacity="0.2" d="M285.372 130.997L285.655 134.678C285.749 135.905 285.61 137.115 285.704 138.342C285.757 139.033 286.044 139.741 286.097 140.432C286.103 140.514 286.231 140.514 286.225 140.432L285.942 136.751L285.659 133.07L285.5 130.997C285.493 130.915 285.366 130.915 285.372 130.997Z" fill="black"/>
<path opacity="0.2" d="M287.828 131.143L287.938 134.77L288.049 138.397L288.11 140.434C288.113 140.516 288.24 140.516 288.238 140.434L288.128 136.806L288.017 133.179L287.956 131.143C287.953 131.061 287.826 131.06 287.828 131.143Z" fill="black"/>
<path opacity="0.2" d="M290.209 131.36L290.175 134.866L290.142 138.35L290.123 140.326C290.124 140.362 290.154 140.389 290.189 140.388C290.222 140.387 290.249 140.36 290.25 140.326L290.284 136.821L290.317 133.336L290.336 131.36C290.335 131.325 290.305 131.298 290.27 131.299C290.237 131.3 290.21 131.327 290.209 131.36Z" fill="black"/>
<path opacity="0.2" d="M292.006 131.253L292.076 134.802L292.145 138.33L292.184 140.327C292.185 140.363 292.215 140.39 292.25 140.389C292.283 140.388 292.31 140.361 292.311 140.327L292.242 136.778L292.172 133.251L292.133 131.253C292.132 131.218 292.103 131.19 292.067 131.191C292.034 131.193 292.007 131.22 292.006 131.253Z" fill="black"/>
<path opacity="0.2" d="M294.626 131.107L294.706 134.751L294.785 138.395L294.83 140.434C294.831 140.469 294.861 140.497 294.896 140.496C294.929 140.495 294.956 140.468 294.957 140.434L294.878 136.791L294.798 133.147L294.753 131.107C294.752 131.072 294.722 131.045 294.687 131.046C294.654 131.047 294.627 131.074 294.626 131.107Z" fill="black"/>
<path opacity="0.2" d="M296.801 131.217L297.079 134.889L297.356 138.549L297.512 140.612C297.518 140.694 297.645 140.694 297.639 140.612L297.361 136.941L297.084 133.281L296.928 131.217C296.922 131.136 296.795 131.135 296.801 131.217Z" fill="black"/>
<path opacity="0.2" d="M299.218 131.645L299.386 135.005C299.441 136.124 299.158 137.244 299.213 138.364L299.307 140.25C299.312 140.332 299.439 140.332 299.435 140.25C299.379 139.13 299.663 138.01 299.607 136.891L299.439 133.532L299.345 131.645C299.341 131.564 299.214 131.563 299.218 131.645Z" fill="black"/>
<path d="M291.839 122.443C292.108 122.443 292.327 122.291 292.327 122.103C292.327 121.915 292.108 121.763 291.839 121.763C291.569 121.763 291.351 121.915 291.351 122.103C291.351 122.291 291.569 122.443 291.839 122.443Z" fill="#E6E6E6"/>
<path d="M294.937 123.208C295.207 123.208 295.426 123.055 295.426 122.867C295.426 122.68 295.207 122.527 294.937 122.527C294.668 122.527 294.449 122.68 294.449 122.867C294.449 123.055 294.668 123.208 294.937 123.208Z" fill="#3F3D56"/>
<path d="M290.607 124.866C290.877 124.866 291.096 124.713 291.096 124.526C291.096 124.338 290.877 124.186 290.607 124.186C290.338 124.186 290.119 124.338 290.119 124.526C290.119 124.713 290.338 124.866 290.607 124.866Z" fill="#FF6584"/>
<path d="M294.644 125.314C294.815 125.314 294.953 125.217 294.953 125.099C294.953 124.98 294.815 124.884 294.644 124.884C294.474 124.884 294.336 124.98 294.336 125.099C294.336 125.217 294.474 125.314 294.644 125.314Z" fill="#E6E6E6"/>
<path d="M296.603 125.798C296.774 125.798 296.912 125.702 296.912 125.583C296.912 125.464 296.774 125.368 296.603 125.368C296.433 125.368 296.295 125.464 296.295 125.583C296.295 125.702 296.433 125.798 296.603 125.798Z" fill="#3F3D56"/>
<path d="M293.866 126.846C294.037 126.846 294.175 126.75 294.175 126.631C294.175 126.512 294.037 126.416 293.866 126.416C293.696 126.416 293.558 126.512 293.558 126.631C293.558 126.75 293.696 126.846 293.866 126.846Z" fill="#FF6584"/>
<path d="M297.531 126.504C297.702 126.504 297.84 126.408 297.84 126.289C297.84 126.17 297.702 126.074 297.531 126.074C297.361 126.074 297.223 126.17 297.223 126.289C297.223 126.408 297.361 126.504 297.531 126.504Z" fill="#E6E6E6"/>
<path d="M299.49 126.987C299.661 126.987 299.799 126.891 299.799 126.773C299.799 126.654 299.661 126.558 299.49 126.558C299.32 126.558 299.182 126.654 299.182 126.773C299.182 126.891 299.32 126.987 299.49 126.987Z" fill="#3F3D56"/>
<path d="M296.754 128.035C296.924 128.035 297.062 127.939 297.062 127.82C297.062 127.702 296.924 127.605 296.754 127.605C296.583 127.605 296.445 127.702 296.445 127.82C296.445 127.939 296.583 128.035 296.754 128.035Z" fill="#FF6584"/>
<path d="M289.578 125.371C289.601 125.202 289.525 125.051 289.407 125.035C289.29 125.019 289.176 125.143 289.152 125.312C289.129 125.481 289.206 125.631 289.323 125.648C289.44 125.664 289.554 125.54 289.578 125.371Z" fill="#E6E6E6"/>
<path d="M288.833 127.248C288.856 127.079 288.78 126.928 288.662 126.912C288.545 126.896 288.431 127.02 288.407 127.189C288.384 127.358 288.46 127.508 288.578 127.524C288.695 127.541 288.809 127.417 288.833 127.248Z" fill="#3F3D56"/>
<path d="M288.17 124.389C288.193 124.22 288.116 124.07 287.999 124.054C287.882 124.038 287.768 124.162 287.744 124.331C287.721 124.5 287.797 124.65 287.915 124.666C288.032 124.682 288.146 124.558 288.17 124.389Z" fill="#FF6584"/>
<path d="M292.932 124.35C292.955 124.181 292.879 124.031 292.762 124.015C292.644 123.999 292.53 124.122 292.507 124.292C292.484 124.461 292.56 124.611 292.677 124.627C292.795 124.643 292.909 124.519 292.932 124.35Z" fill="#E6E6E6"/>
<path d="M292.186 126.227C292.209 126.058 292.133 125.908 292.016 125.892C291.898 125.876 291.784 125.999 291.761 126.169C291.738 126.338 291.814 126.488 291.931 126.504C292.049 126.52 292.163 126.396 292.186 126.227Z" fill="#3F3D56"/>
<path d="M291.523 123.37C291.546 123.201 291.47 123.051 291.353 123.034C291.235 123.018 291.121 123.142 291.098 123.311C291.075 123.48 291.151 123.63 291.268 123.647C291.386 123.663 291.5 123.539 291.523 123.37Z" fill="#FF6584"/>
<path d="M293.84 122.273C293.864 122.104 293.787 121.954 293.67 121.938C293.552 121.921 293.438 122.045 293.415 122.214C293.392 122.383 293.468 122.534 293.586 122.55C293.703 122.566 293.817 122.442 293.84 122.273Z" fill="#3F3D56"/>
<path d="M293.178 119.416C293.202 119.247 293.125 119.096 293.008 119.08C292.89 119.064 292.776 119.188 292.753 119.357C292.73 119.526 292.806 119.676 292.924 119.692C293.041 119.709 293.155 119.585 293.178 119.416Z" fill="#FF6584"/>
</g>
<defs>
<clipPath id="clip0_188_5473">
<rect width="493" height="311" fill="white"/>
</clipPath>
</defs>
</svg>
