<svg width="411" height="337" viewBox="0 0 411 337" fill="none" xmlns="http://www.w3.org/2000/svg">
<g clip-path="url(#clip0_178_1641)">
<path d="M362.011 251.291H357.332V265.188H362.011V251.291Z" fill="#F2F2F2"/>
<path d="M385.737 261.981H333.61C329.735 261.981 326.593 258.839 326.593 254.964C326.593 251.089 329.735 247.947 333.61 247.947H385.737C389.612 247.947 392.754 251.089 392.754 254.964C392.754 258.839 389.612 261.981 385.737 261.981Z" fill="#F2F2F2"/>
<path d="M389.746 261.982C392.884 261.982 395.427 259.438 395.427 256.301V188.807C395.427 185.67 392.884 183.127 389.746 183.127C386.609 183.127 384.066 185.67 384.066 188.807C366.813 202.01 373.825 228.286 384.066 256.301C384.066 259.438 386.609 261.982 389.746 261.982Z" fill="#F2F2F2"/>
<path d="M382.783 232.315C382.011 235.771 380.558 238.5 378.734 240.65C375.018 245.047 369.753 247.042 365.6 247.947C361.87 248.763 359.037 248.696 359.037 248.696L341.499 250.142L327.639 251.284L313.712 252.433C314.506 255.77 315.262 259.604 315.981 263.705C316.063 264.194 316.152 264.691 316.241 265.188H287.957L287.483 263.705L284.576 254.695L278.68 241.814C277.605 239.716 277.063 237.424 277.063 235.118C277.063 233.583 277.308 232.056 277.79 230.572C277.798 230.55 277.798 230.528 277.805 230.506C278.94 227.08 281.743 224.455 285.213 223.409L289.403 222.141C301.283 219.368 317.932 215.044 330.628 211.693C341.232 208.89 349.071 206.754 349.071 206.754L349.093 206.606L351.288 191.597L373.172 189.676L380.284 189.046C380.284 189.046 380.128 189.787 380.187 192.45C380.187 192.613 380.187 192.783 380.195 192.954C380.209 193.473 380.232 194.066 380.261 194.726C380.269 194.949 380.284 195.178 380.298 195.416C380.321 195.875 380.35 196.365 380.387 196.891C380.387 196.929 380.387 196.966 380.395 197.003C380.432 197.663 380.484 198.382 380.55 199.153C380.565 199.472 380.595 199.798 380.625 200.132C380.766 201.815 380.944 203.743 381.173 205.938C381.188 206.161 381.211 206.383 381.24 206.606C381.27 206.954 381.307 207.303 381.344 207.659C381.418 208.282 381.485 208.919 381.559 209.587C381.566 209.653 381.574 209.713 381.581 209.779C381.648 210.365 381.722 210.966 381.789 211.589C381.87 212.264 381.952 212.953 382.041 213.658C382.093 214.132 382.152 214.622 382.219 215.126C382.249 215.363 382.278 215.608 382.308 215.853C382.345 216.112 382.375 216.379 382.412 216.646C382.471 217.121 382.53 217.61 382.597 218.107C382.738 219.212 382.894 220.354 383.05 221.54C383.621 225.745 383.457 229.312 382.783 232.315Z" fill="#2F2E41"/>
<path d="M382.783 232.315L377.05 234.792L346.579 247.947L341.499 250.142L329.026 255.525C329.382 257.402 329.76 259.255 330.168 261.08C330.361 261.962 330.554 262.837 330.761 263.705C330.88 264.201 330.991 264.691 331.117 265.188H305.874L305.681 263.705L304.947 257.898C303.486 256.593 302.626 254.094 302.107 251.439C301.588 248.792 301.402 245.967 301.276 244.009C301.276 243.987 301.276 243.957 301.269 243.935C301.061 240.316 308.128 237.914 310.954 235.659L314.424 234.51C321.595 229.534 332.252 222 342.567 214.681C346.475 211.908 350.339 209.164 353.935 206.606C365.118 198.641 373.824 192.42 373.824 192.42L373.172 189.676L380.284 189.046C380.284 189.046 380.128 189.787 380.187 192.45C380.187 192.613 380.187 192.783 380.195 192.954C380.209 193.48 380.232 194.066 380.261 194.726C380.269 194.949 380.284 195.178 380.298 195.416C380.321 195.876 380.35 196.365 380.387 196.891C380.387 196.929 380.387 196.966 380.395 197.003C380.432 197.663 380.484 198.382 380.551 199.153C380.565 199.472 380.595 199.798 380.625 200.132C380.758 201.815 380.936 203.736 381.174 205.938C381.188 206.161 381.211 206.383 381.24 206.606C381.27 206.954 381.307 207.303 381.344 207.659C381.418 208.282 381.485 208.927 381.559 209.587C381.567 209.653 381.574 209.713 381.581 209.779C381.648 210.365 381.722 210.966 381.789 211.589C381.871 212.264 381.952 212.953 382.041 213.658C382.101 214.14 382.16 214.629 382.219 215.126C382.249 215.363 382.278 215.608 382.308 215.853C382.345 216.112 382.375 216.379 382.412 216.646C382.471 217.121 382.531 217.61 382.597 218.107C382.738 219.212 382.894 220.354 383.05 221.54C383.621 225.745 383.458 229.312 382.783 232.315Z" fill="#2F2E41"/>
<path d="M387.347 196.664C388.511 201.64 388.044 205.051 387.584 209.915C387.413 211.71 387.999 214.29 386.257 215.499C384.766 216.515 331.143 216.033 330.646 211.88C330.082 207.186 331.18 202.263 333.471 198.028C337.617 190.361 339.99 180.973 341.206 174.306C343.779 160.299 337.98 152.69 340.145 138.72C340.516 136.339 340.59 134.085 340.501 131.927C340.205 124.43 337.891 118.068 338.625 111.609C338.929 108.954 339.745 106.284 341.428 103.511C341.925 102.688 342.496 101.857 343.156 101.019C346.983 96.14 347.984 92.462 354.628 92.4694C355.644 92.4694 356.727 92.4027 357.825 92.3507C359.582 92.2543 361.377 92.1876 362.964 92.4694C366.775 93.1442 365.93 95.5394 368.392 98.1645L369.341 99.1136C371.714 100.982 373.768 102.443 375.845 104.697C380.013 109.221 384.959 114.308 387.413 119.958C389.075 123.792 388.066 129.65 388.022 133.833C387.97 139.209 386.309 143.725 384.922 148.849C383.713 153.298 383.394 157.97 382.571 162.516C381.511 168.396 380.547 174.195 380.057 180.12C379.679 184.77 386.234 177.08 386.249 181.737C386.264 186.564 386.249 191.992 387.347 196.664Z" fill="#3F3D56"/>
<path d="M294.459 107.102L310.973 110.059L310.6 119.727L293.252 115.98C292.779 116.246 292.261 116.447 291.704 116.569C288.674 117.231 285.681 115.312 285.019 112.283C284.357 109.253 286.276 106.26 289.306 105.598C291.238 105.176 293.152 105.806 294.459 107.102Z" fill="#FFB6B6"/>
<path d="M360.598 129.799C359.871 131.282 358.744 132.565 357.298 133.499C355.162 134.878 352.656 135.256 350.335 134.752C350.053 134.693 349.096 134.426 347.628 133.996C347.376 133.922 347.109 133.847 346.827 133.766C345.159 133.284 342.986 132.646 340.502 131.927C338.039 131.208 335.251 130.399 332.366 129.569L332.352 129.576C331.476 129.309 330.572 129.05 329.674 128.79H329.66C322.948 126.884 315.926 124.942 310.809 123.696C310.571 123.629 309.34 124.808 309.111 124.749C308.755 124.66 308.688 123.303 308.354 123.221C307.635 123.043 306.693 124.163 306.1 124.015C303.942 123.488 303.082 118.898 303.082 118.898L303.178 118.127L304.261 108.857L304.275 108.694L310.379 106.774L312.411 108.739L315.229 107.567L317.854 109.532L323.215 110.066L325.529 110.303L325.685 110.311L338.625 111.609L342.437 111.994C342.133 110.452 341.896 108.924 341.725 107.419C341.681 106.996 341.636 106.581 341.606 106.166L341.599 106.158C341.517 105.268 341.466 104.393 341.428 103.511C341.925 102.688 342.496 101.857 343.156 101.019C346.983 96.1399 347.984 92.4618 354.629 92.4693C355.644 92.4693 356.727 92.4025 357.825 92.3506L359.538 107.523L361.421 124.207L361.481 124.749C361.674 126.528 361.355 128.271 360.598 129.799Z" fill="#3F3D56"/>
<path d="M328.53 102.291C327.684 101.683 326.601 101.572 325.645 101.994L296.827 114.697C294.202 115.854 291.236 116.062 288.477 115.283L288.054 115.164C289.254 104.503 286.192 93.0296 280.179 80.9939C279.4 80.89 278.621 81.0977 277.991 81.5871C277.25 82.1655 276.834 83.0405 276.864 83.9897L277.769 117.404L278.073 128.497C271.5 136.37 269.124 143.654 278.636 149.268C278.666 150.314 279.237 151.248 280.157 151.752C281.076 152.264 282.166 152.249 283.071 151.715L283.657 151.366L291.569 162.453C292.096 162.245 292.645 162.141 293.201 162.141C293.965 162.141 294.729 162.334 295.411 162.727L309.805 171.01L319.608 176.653C320.483 177.157 321.544 177.18 322.441 176.713C323.339 176.238 323.917 175.356 324.006 174.347L324.28 171.01L325.192 160.035L326.69 141.927L327.402 133.288L327.514 131.997L329.753 104.924C329.842 103.878 329.382 102.892 328.53 102.291Z" fill="#F2F2F2"/>
<path d="M330.754 105.999C329.909 105.391 328.826 105.28 327.869 105.702C317.445 113.728 307.364 120.161 299.052 118.405C296.427 119.562 293.46 119.77 290.702 118.991L290.279 118.872C291.479 108.211 288.417 96.7376 282.403 84.7019C281.625 84.5981 280.846 84.8057 280.216 85.2951C279.474 85.8735 279.059 86.7485 279.089 87.6977L279.993 121.112L280.297 132.205C273.725 140.078 271.348 147.362 280.861 152.976C280.891 154.022 281.462 154.956 282.381 155.46C283.301 155.972 284.391 155.957 285.296 155.423L285.881 155.075L293.794 166.161C294.321 165.953 294.869 165.849 295.425 165.849C296.189 165.849 296.953 166.042 297.635 166.435L312.029 174.718L321.833 180.361C322.708 180.865 323.769 180.888 324.666 180.421C325.563 179.946 326.142 179.064 326.231 178.055L326.505 174.718L327.417 163.743L328.915 145.635L329.627 136.996L329.738 135.705L331.978 108.632C332.067 107.586 331.607 106.6 330.754 105.999Z" fill="#E6E6E6"/>
<path d="M325.412 121.039L303.295 126.417L303.611 127.715L325.728 122.337L325.412 121.039Z" fill="white"/>
<path d="M325.412 131.062L303.295 136.44L303.611 137.739L325.728 132.36L325.412 131.062Z" fill="white"/>
<path d="M303.148 144.186L303.12 145.521L325.876 146.001L325.904 144.665L303.148 144.186Z" fill="white"/>
<path d="M303.189 153.789L303.111 155.123L325.834 156.444L325.912 155.11L303.189 153.789Z" fill="white"/>
<path d="M302.044 163.346L301.833 164.665L324.306 168.272L324.518 166.953L302.044 163.346Z" fill="white"/>
<path d="M234.035 174.72H405.409C406.883 174.72 408.077 178.104 408.077 182.278V199.048C408.077 203.222 406.883 206.606 405.409 206.606H259.248C257.775 206.606 256.58 203.222 256.58 199.048L231.366 182.278C231.366 178.104 232.561 174.72 234.035 174.72Z" fill="#F2F2F2"/>
<path d="M357.117 67.6305C356.999 67.4228 356.873 67.2226 356.739 67.0298C356.613 66.8296 356.472 66.6368 356.331 66.4514C356.265 66.355 356.198 66.266 356.124 66.1844C355.456 65.3316 354.715 64.642 353.958 64.2267C353.906 64.1971 353.854 64.1675 353.803 64.1452C353.684 64.0785 353.565 64.0266 353.439 63.9821C353.209 63.8931 352.979 63.8263 352.742 63.7967C352.631 63.7818 352.52 63.7744 352.408 63.7744C352.327 63.7744 352.245 63.7818 352.164 63.7893C352.119 63.7967 352.067 63.8041 352.015 63.8115C351.956 63.8189 351.889 63.8337 351.83 63.8486C351.763 63.8634 351.697 63.8857 351.637 63.9079C351.578 63.9302 351.511 63.9524 351.452 63.9821C351.385 64.0117 351.318 64.0414 351.259 64.0785C351.192 64.1155 351.133 64.1526 351.074 64.1897C351.007 64.2342 350.948 64.2787 350.888 64.3232C353.157 65.6061 355.382 66.9705 357.548 68.4016C357.414 68.1347 357.273 67.8826 357.117 67.6305Z" fill="#3F3D56"/>
<path d="M357.117 67.6305C356.999 67.4228 356.873 67.2226 356.739 67.0298C356.613 66.8296 356.472 66.6368 356.331 66.4514C356.265 66.355 356.198 66.266 356.124 66.1844C355.456 65.3316 354.715 64.642 353.958 64.2267C353.906 64.1971 353.854 64.1675 353.803 64.1452C353.684 64.0785 353.565 64.0266 353.439 63.9821C353.209 63.8931 352.979 63.8263 352.742 63.7967C352.631 63.7818 352.52 63.7744 352.408 63.7744C352.327 63.7744 352.245 63.7818 352.164 63.7893C352.119 63.7967 352.067 63.8041 352.015 63.8115C351.956 63.8189 351.889 63.8337 351.83 63.8486C351.763 63.8634 351.697 63.8857 351.637 63.9079C351.578 63.9302 351.511 63.9524 351.452 63.9821C351.385 64.0117 351.318 64.0414 351.259 64.0785C351.192 64.1155 351.133 64.1526 351.074 64.1897C351.007 64.2342 350.948 64.2787 350.888 64.3232C353.157 65.6061 355.382 66.9705 357.548 68.4016C357.414 68.1347 357.273 67.8826 357.117 67.6305Z" fill="#3F3D56"/>
<path d="M394.174 47.9131H154.044V49.3962H294.068C308.284 49.3962 321.892 51.9619 334.469 56.6634H334.477C336.205 57.3085 337.903 57.9907 339.586 58.7174C343.472 60.3785 347.239 62.2546 350.888 64.3235C353.157 65.6064 355.382 66.9708 357.547 68.402C362.175 71.4497 366.565 74.8238 370.688 78.4944L370.696 78.5018C370.881 78.6576 371.059 78.8133 371.237 78.9838C394.737 100.11 409.517 130.751 409.517 164.84V248.36C409.517 256.651 402.947 263.399 395.427 255.59C395.257 255.412 395.086 255.234 394.915 255.041H251.19V265.186H394.174C403.451 265.186 411 257.637 411 248.36V64.7388C411 55.462 403.451 47.9131 394.174 47.9131Z" fill="#3F3D56"/>
<path d="M357.117 67.6305C356.999 67.4228 356.873 67.2226 356.739 67.0298C356.613 66.8296 356.472 66.6368 356.331 66.4514C356.265 66.355 356.198 66.266 356.124 66.1844C355.456 65.3316 354.715 64.642 353.958 64.2267C353.906 64.1971 353.854 64.1675 353.803 64.1452C353.684 64.0785 353.565 64.0266 353.439 63.9821C353.209 63.8931 352.979 63.8263 352.742 63.7967C352.631 63.7818 352.52 63.7744 352.408 63.7744C352.327 63.7744 352.245 63.7818 352.164 63.7893C352.119 63.7967 352.067 63.8041 352.015 63.8115C351.956 63.8189 351.889 63.8337 351.83 63.8486C351.763 63.8634 351.697 63.8857 351.637 63.9079C351.578 63.9302 351.511 63.9524 351.452 63.9821C351.385 64.0117 351.318 64.0414 351.259 64.0785C351.192 64.1155 351.133 64.1526 351.074 64.1897C351.007 64.2342 350.948 64.2787 350.888 64.3232C353.157 65.6061 355.382 66.9705 357.548 68.4016C357.414 68.1347 357.273 67.8826 357.117 67.6305Z" fill="#3F3D56"/>
<path d="M357.117 67.6305C356.999 67.4228 356.873 67.2226 356.739 67.0298C356.613 66.8296 356.472 66.6368 356.331 66.4514C356.265 66.355 356.198 66.266 356.124 66.1844C355.456 65.3316 354.715 64.642 353.958 64.2267C353.906 64.1971 353.854 64.1675 353.803 64.1452C353.684 64.0785 353.565 64.0266 353.439 63.9821C353.209 63.8931 352.979 63.8263 352.742 63.7967C352.631 63.7818 352.52 63.7744 352.408 63.7744C352.327 63.7744 352.245 63.7818 352.164 63.7893C352.119 63.7967 352.067 63.8041 352.015 63.8115C351.956 63.8189 351.889 63.8337 351.83 63.8486C351.763 63.8634 351.697 63.8857 351.637 63.9079C351.578 63.9302 351.511 63.9524 351.452 63.9821C351.385 64.0117 351.318 64.0414 351.259 64.0785C351.192 64.1155 351.133 64.1526 351.074 64.1897C351.007 64.2342 350.948 64.2787 350.888 64.3232C353.157 65.6061 355.382 66.9705 357.548 68.4016C357.414 68.1347 357.273 67.8826 357.117 67.6305Z" fill="#3F3D56"/>
<path d="M357.117 67.6305C356.999 67.4228 356.873 67.2226 356.739 67.0298C356.613 66.8296 356.472 66.6368 356.331 66.4514C356.265 66.355 356.198 66.266 356.124 66.1844C355.456 65.3316 354.715 64.642 353.958 64.2267C353.906 64.1971 353.854 64.1675 353.803 64.1452C353.684 64.0785 353.565 64.0266 353.439 63.9821C353.209 63.8931 352.979 63.8263 352.742 63.7967C352.631 63.7818 352.52 63.7744 352.408 63.7744C352.327 63.7744 352.245 63.7818 352.164 63.7893C352.119 63.7967 352.067 63.8041 352.015 63.8115C351.956 63.8189 351.889 63.8337 351.83 63.8486C351.763 63.8634 351.697 63.8857 351.637 63.9079C351.578 63.9302 351.511 63.9524 351.452 63.9821C351.385 64.0117 351.318 64.0414 351.259 64.0785C351.192 64.1155 351.133 64.1526 351.074 64.1897C351.007 64.2342 350.948 64.2787 350.888 64.3232C353.157 65.6061 355.382 66.9705 357.548 68.4016C357.414 68.1347 357.273 67.8826 357.117 67.6305Z" fill="#3F3D56"/>
<path d="M351.708 88.8806C352.142 88.9327 352.573 88.9718 353.003 88.9914C354.34 89.0647 355.662 88.9885 356.935 88.7726C360.803 88.1526 364.317 86.3205 367.029 83.6337C369.896 80.7986 371.858 77.0145 372.389 72.7067C373.631 62.5382 366.39 53.2754 356.221 52.033C346.198 50.8011 337.062 57.8111 335.603 67.7462C335.58 67.9 335.557 68.0473 335.54 68.2004C334.298 78.3754 341.532 87.6323 351.708 88.8806Z" fill="#FFB6B6"/>
<path d="M331.421 67.0654C334.055 68.368 338.36 64.2728 340.008 66.629C340.276 66.1198 340.571 65.6273 340.864 65.1617C341.128 64.745 341.506 63.8555 341.944 63.7031C341.39 65.0393 341.512 66.8488 342.087 68.3992C344.685 69.37 348.087 67.221 350.492 64.6791C354.268 60.6933 360.434 70.9139 358.976 76.2033C360.832 73.9376 364.858 75.2155 366.223 77.8061C367.586 80.3903 365.282 82.4608 364.789 85.3433L368.509 84.8709C370.856 82.5852 370.692 78.7337 372.624 76.0846C375.853 71.6511 377.103 67.1276 374.677 62.5521C372.524 58.5064 372.323 53.2705 368.374 50.938C370.099 50.0944 363.963 51.4123 365.602 48.6632C367.248 45.9199 358.474 45.5869 357.901 47.0566C355.394 44.0559 352.865 42.0774 349.78 44.4819C346.751 46.8475 347.065 49.334 343.507 49.1112C341.837 49.0077 342.021 52.1202 341.028 53.4772C340.042 54.8269 336.206 55.6934 336.02 55.549C335.007 54.7564 331.56 61.5033 331.56 61.5033C331.56 61.5033 328.766 65.7454 331.421 67.0654Z" fill="#2F2E41"/>
<path d="M284.873 2.59766H246.689C243.315 2.59766 240.571 5.3488 240.571 8.72283V46.905C240.571 47.2461 240.6 47.5872 240.652 47.9135C240.741 48.4326 240.89 48.9294 241.097 49.3966C242.054 51.5322 244.205 53.0227 246.689 53.0227H284.873C287.357 53.0227 289.507 51.5322 290.464 49.3966C290.679 48.9294 290.827 48.4326 290.909 47.9135C290.968 47.5872 290.998 47.2461 290.998 46.905V8.72283C290.998 5.34881 288.247 2.59766 284.873 2.59766ZM289.656 49.3966C288.758 51.1244 286.956 52.3035 284.873 52.3035H246.689C244.605 52.3035 242.803 51.1244 241.906 49.3966C241.661 48.9368 241.483 48.44 241.387 47.9135C241.32 47.5872 241.29 47.2461 241.29 46.905V8.72283C241.29 8.64127 241.29 8.56709 241.305 8.49295V8.48553C241.424 5.60834 243.789 3.31698 246.689 3.31698H265.94C273.022 3.31698 279.4 6.34988 283.849 11.1848C283.871 11.2144 283.894 11.2367 283.916 11.2589L283.953 11.296C286.979 14.6181 289.092 18.8004 289.9 23.4203C289.93 23.5982 289.967 23.7688 289.989 23.9467C289.997 23.9839 289.997 24.0209 290.004 24.0506C290.182 25.2296 290.271 26.4309 290.271 27.6545V46.905C290.271 47.2461 290.242 47.5872 290.175 47.9135C290.078 48.44 289.9 48.9368 289.656 49.3966Z" fill="#E6E6E6"/>
<path d="M290.319 27.8135C290.319 14.2616 278.18 2.40728 264.791 0.308694C247.843 -2.34765 232.262 12.5873 234.504 27.8934C236.469 41.3022 259.485 60.7503 265.78 48.7494C272.984 35.017 290.319 41.3653 290.319 27.8135Z" fill="#DDB14E"/>
<path d="M270.864 17.0654H258.539C258.228 17.0654 257.976 17.3176 257.976 17.629C257.976 17.9404 258.228 18.1926 258.539 18.1926H270.864C271.176 18.1926 271.428 17.9404 271.428 17.629C271.428 17.3176 271.176 17.0654 270.864 17.0654Z" fill="white"/>
<path d="M270.864 29.0859H258.539C258.228 29.0859 257.976 29.338 257.976 29.6421C257.976 29.9535 258.228 30.2131 258.539 30.2131H270.864C271.176 30.2131 271.428 29.9535 271.428 29.6421C271.428 29.338 271.176 29.0859 270.864 29.0859Z" fill="white"/>
<path d="M277.479 23.0791H251.924C251.613 23.0791 251.361 23.3312 251.361 23.6427C251.361 23.9542 251.613 24.2063 251.924 24.2063H277.479C277.791 24.2063 278.043 23.9542 278.043 23.6427C278.043 23.3312 277.791 23.0791 277.479 23.0791Z" fill="white"/>
<path d="M323.889 132.869L338.988 140.18L336.015 149.388L320.327 141.09C319.8 141.217 319.246 141.271 318.677 141.238C315.581 141.056 313.218 138.4 313.4 135.304C313.582 132.208 316.239 129.846 319.334 130.027C321.309 130.143 322.981 131.268 323.889 132.869Z" fill="#FFB6B6"/>
<path d="M388.278 123.803V123.796C386.854 121.564 384.548 119.91 381.752 119.384L379.646 118.983C374.455 128.668 369.657 138.56 368.76 150.558L346.75 141.919L345.756 141.534L343.761 138.931L340.728 139.294L340.194 138.375V138.367L339.304 136.862L332.912 137.062L332.853 137.203L332.845 137.211L329.731 144.789L329.723 144.797L329.301 145.835L329.004 146.554C329.004 146.554 328.819 148.601 329.271 150.306V150.321C329.493 151.174 329.879 151.938 330.524 152.301C331.058 152.598 332.267 151.775 332.912 152.138C333.209 152.308 332.905 153.643 333.224 153.821C333.431 153.94 334.929 153.139 335.144 153.258C336.85 154.214 338.778 155.341 340.832 156.557C341.878 157.18 342.953 157.818 344.05 158.486C355.486 165.36 369.079 174.006 370.206 174.599C370.287 174.644 370.369 174.681 370.451 174.718C372.497 175.734 374.915 175.986 377.251 175.274C377.74 175.126 378.208 174.94 378.645 174.718C379.453 174.325 380.188 173.813 380.825 173.213C382.294 171.863 383.295 170.039 383.643 167.985L389.709 130.744C390.117 128.238 389.546 125.791 388.278 123.803Z" fill="#3F3D56"/>
<path d="M274.357 158.3C273.66 155.467 271.576 153.368 269.144 152.731C268.173 152.464 267.142 152.434 266.118 152.686C265.021 152.953 264.035 153.509 263.241 154.303C261.217 153.353 258.399 153.213 255.269 153.213H250.078C243.938 153.213 238.954 158.403 238.954 164.336C237.353 169.556 239.333 173.138 242.974 174.717C244.954 175.578 247.423 175.845 250.078 175.459H255.269C257.071 175.8 258.792 175.503 260.327 174.717C263.033 173.338 265.162 170.446 266.104 166.894C266.778 167.131 267.483 167.265 268.202 167.265C268.677 167.265 269.159 167.206 269.633 167.094C271.384 166.664 272.837 165.5 273.727 163.824C274.602 162.17 274.825 160.213 274.357 158.3ZM268.707 162.385C268.195 163.357 267.446 164.098 266.541 164.551C266.511 164.847 266.467 165.144 266.422 165.433C266.756 165.567 266.6 165.559 266.319 165.493C265.829 165.374 264.962 165.055 265.577 164.907C265.911 164.825 266.237 164.707 266.541 164.551C266.704 163.053 266.675 161.481 266.393 159.886C266.393 157.617 265.711 156.119 264.546 155.126C265.102 154.644 265.748 154.303 266.467 154.125C266.83 154.036 267.194 153.991 267.55 153.991C268.002 153.991 268.432 154.021 268.833 154.095C270.56 154.399 271.777 155.415 272.325 157.662C272.704 159.219 269.411 161.058 268.707 162.385Z" fill="#F2F2F2"/>
<path d="M177.979 172.252C177.979 166.32 172.995 161.129 166.855 161.129H161.664C158.712 161.129 156.035 161.255 154.048 162.064C153.922 162.115 153.811 162.167 153.692 162.219C152.891 161.426 151.912 160.87 150.815 160.603C148.835 160.121 146.818 160.677 145.245 161.952C143.985 162.968 143.006 164.444 142.576 166.216C142.109 168.129 142.331 170.087 143.206 171.741C143.658 172.594 144.252 173.305 144.964 173.862C145.646 174.403 146.439 174.796 147.3 175.011C147.774 175.122 148.256 175.181 148.731 175.181C149.45 175.181 150.155 175.048 150.829 174.811C151.445 177.147 152.58 179.193 154.048 180.713C156.087 182.827 158.772 183.924 161.664 183.376H166.855C174.404 184.466 180.448 180.306 177.979 172.252ZM150.54 167.803C150.258 169.397 150.229 170.97 150.392 172.467C150.696 172.623 151.022 172.742 151.356 172.823C152.327 173.061 149.606 173.706 150.511 173.35C150.466 173.061 150.422 172.764 150.392 172.467C149.769 172.156 149.228 171.711 148.783 171.147C148.575 170.888 148.39 170.606 148.227 170.302C147.522 168.975 144.229 167.136 144.608 165.578C144.986 164.043 145.676 163.079 146.625 162.531C146.625 162.523 146.632 162.523 146.632 162.523C147.389 162.086 148.308 161.908 149.376 161.908C149.739 161.908 150.103 161.952 150.466 162.041C151.185 162.219 151.831 162.56 152.387 163.042C151.223 164.036 150.54 165.534 150.54 167.803Z" fill="#F2F2F2"/>
<path d="M15.561 240.229H186.935C188.409 240.229 189.604 243.613 189.604 247.787L167.356 264.556C167.356 268.731 166.162 272.115 164.688 272.115H15.561C14.0873 272.115 12.8926 268.731 12.8926 264.556V247.787C12.8926 243.613 14.0873 240.229 15.561 240.229Z" fill="#F2F2F2"/>
<path d="M86.4011 165.179L89.4206 185.263L78.1877 188.589L75.7509 167.241C75.2634 166.802 74.8306 166.285 74.4748 165.694C72.5394 162.477 73.5786 158.3 76.7959 156.364C80.0133 154.429 84.1904 155.468 86.1258 158.685C87.36 160.737 87.3798 163.177 86.4011 165.179Z" fill="#FFB6B6"/>
<path d="M92.6298 193.645C93.4307 202.714 88.0395 198.747 83.7976 207.601C82.1884 210.96 77.4127 210.463 75.6403 213.533C72.941 218.205 75.4253 239.183 70.6347 241.764C65.8218 244.359 63.56 236.855 59.7557 232.991C56.033 229.209 51.6725 230.693 48.4912 226.473C45.2876 222.239 41.6613 218.464 38.4576 214.252C38.3909 214.171 38.3316 214.082 38.2723 214C36.8039 202.447 32.0208 188.84 34.023 182.7C36.6705 181.736 39.5255 181.091 41.7577 181.113C45.866 181.165 44.1307 183.404 47.6606 185.169C50.6269 186.652 54.2903 194.409 57.1528 196.136C59.1921 197.36 64.2274 207.082 66.86 206.244C71.1686 204.872 75.4104 185.036 74.4019 181.402C73.5491 178.369 69.2924 174.572 69.1738 171.517C69.1664 171.406 69.1664 171.287 69.1738 171.176C73.4526 172.711 81.4024 168.796 85.7851 170.212C88.9145 171.228 92.6076 175.047 92.8226 178.302C93.0451 181.639 92.3332 190.301 92.6298 193.645Z" fill="#DDB14E"/>
<path d="M143.065 159.458C142.286 158.561 141.122 158.145 139.95 158.353L105.548 164.5C102.441 165.064 99.2006 164.515 96.4494 162.965L91.3473 160.096L81.7958 154.72L79.9419 153.681L72.1701 149.306L69.7303 147.934C68.7959 147.408 67.691 147.356 66.7121 147.801C65.7332 148.238 65.0436 149.099 64.8211 150.144L62.411 161.408L62.233 162.217L60.8759 168.572L57.4795 184.404L56.9456 186.917L56.7082 188.007L54.9729 196.127L54.6466 197.625L50.0415 219.138L49.641 220.999C49.4185 222.044 49.6855 223.097 50.3826 223.883C50.4568 223.98 50.5457 224.069 50.6422 224.158C51.5246 224.973 52.7334 225.248 53.8754 224.899L54.8395 224.603L62.0995 222.4L78.7331 217.358L82.2926 216.275L86.668 214.948C87.1277 214.807 87.5949 214.74 88.0621 214.74C89.2857 214.74 90.487 215.2 91.3918 216.068L112.898 236.519L113.847 237.424C114.677 238.217 115.842 238.521 116.954 238.24C117.911 238.002 118.689 237.38 119.119 236.519C119.201 236.371 119.268 236.215 119.32 236.052L125.334 217.958L126.365 214.859L129.716 204.774L129.983 203.973C144.692 213.367 142.308 183.708 143.71 162.698C144.088 161.571 143.843 160.355 143.065 159.458Z" fill="#F2F2F2"/>
<path d="M138.616 163.166C137.837 162.269 136.673 161.853 135.501 162.061L101.099 168.208C97.992 168.772 94.7514 168.223 92.0001 166.673L86.8981 163.804L77.3466 158.428L75.4926 157.389L67.7209 153.014L65.2811 151.642C64.3467 151.116 63.2418 151.064 62.2629 151.509C61.284 151.946 60.5943 152.807 60.3719 153.852L57.9618 165.116L57.7838 165.925L56.4267 172.28L53.0302 188.112L52.4963 190.625L52.259 191.715L50.5237 199.835L50.1974 201.333L45.5923 222.846L45.1918 224.707C44.9693 225.752 45.2363 226.805 45.9334 227.591C46.0075 227.688 46.0965 227.777 46.1929 227.866C47.0754 228.681 48.2842 228.956 49.4262 228.607L50.3902 228.311L57.6503 226.108L74.2839 221.066L77.8434 219.983L82.2187 218.656C82.6785 218.515 83.1457 218.448 83.6129 218.448C84.8365 218.448 86.0378 218.908 86.9426 219.776L108.448 240.227L109.397 241.132C110.228 241.925 111.392 242.229 112.505 241.948C113.461 241.71 114.24 241.088 114.67 240.227C114.752 240.079 114.818 239.923 114.87 239.76L120.884 221.666L121.915 218.567L125.267 208.482L125.534 207.681C140.243 217.075 137.859 187.416 139.261 166.407C139.639 165.279 139.394 164.063 138.616 163.166Z" fill="#E6E6E6"/>
<path d="M41.5234 228.149L42.2278 257.965L84.4884 256.801L75.9483 223.801L41.5234 228.149Z" fill="#FFB6B6"/>
<path d="M91.5992 330.696C92.1109 328.279 90.4646 330.237 89.3522 329.213L89.2632 329.124C88.0545 327.782 86.5342 327.182 86.5565 325.513C86.5787 323.845 83.6718 325.335 82.0403 323.704C81.6917 323.355 80.698 322.68 79.3409 321.835C75.1214 319.21 67.4312 314.924 65.1249 313.641C64.6948 313.404 64.4501 313.27 64.4501 313.27C64.4501 313.27 64.4427 313.396 64.4204 313.641C64.2944 315.191 63.7752 321.472 63.1449 329.213C63.1078 329.703 63.0707 330.2 63.0263 330.696H35.7066C35.7362 330.192 35.7511 329.695 35.7585 329.213C35.803 326.9 35.6102 324.742 35.0762 322.94C34.1122 319.699 33.252 316.615 32.5771 313.641C30.1077 302.807 30.1373 293.419 37.0044 283.193C38.2724 281.31 38.5172 275.31 38.5172 275.31C38.5172 275.31 40.8531 277.624 41.4538 278.202C41.3055 278.047 41.0088 277.75 40.5194 277.261C37.7459 274.487 37.8349 273.649 39.2587 272.114C39.5109 271.847 39.8001 271.558 40.1264 271.232C42.2992 269.059 40.1264 271.232 39.0363 269.957C37.9535 268.674 40.6677 265.248 40.6677 265.248L39.6369 260.087L39.0363 257.091L42.188 256.542L50.6271 255.066L82.3962 249.52L82.9969 251.055L88.3807 264.751C89.7082 265.515 91.0949 268.518 92.3408 272.114C94.6693 278.825 96.4936 287.583 96.4936 287.583L131.6 329.213L131.941 329.621C132.238 329.97 132.512 330.333 132.772 330.696H91.5992Z" fill="#2F2E41"/>
<path d="M45.236 317.349H40.0449V330.696H45.236V317.349Z" fill="#E6E6E6"/>
<path d="M13.7187 313.642H71.5616C75.862 313.642 79.3482 317.128 79.3482 321.428C79.3482 325.728 75.862 329.214 71.5616 329.214H13.7187C9.41829 329.214 5.93213 325.728 5.93213 321.428C5.93213 317.128 9.41829 313.642 13.7187 313.642Z" fill="#F2F2F2"/>
<path d="M9.26923 329.214C5.78796 329.214 2.96582 326.392 2.96582 322.911V248.015C2.96582 244.534 5.78795 241.712 9.26921 241.712C12.7505 241.712 15.5726 244.534 15.5726 248.015C34.7175 262.666 26.9362 291.823 15.5726 322.911C15.5726 326.392 12.7505 329.214 9.26923 329.214Z" fill="#F2F2F2"/>
<path d="M85.2808 246.902C84.0586 255.865 75.4994 247.97 66.8897 246.48C58.8807 245.1 49.3588 259.071 40.7862 260.25C35.2466 261.014 39.6145 256.416 41.5278 236.521C41.7725 233.962 38.6505 217.003 38.2723 214C36.8039 202.447 32.0208 188.839 34.023 182.699C34.3642 181.632 34.9129 180.794 35.7212 180.23C39.5255 177.568 41.2238 175.425 43.7822 171.599C45.9476 168.351 47.5197 165.844 51.5539 165.585C55.3582 165.34 59.6668 166.17 63.3375 166.971C67.3495 167.854 62.7962 167.542 63.7751 169.782C64.2497 170.879 65.0654 174.928 65.9998 176.456C68.8361 175.642 71.887 176.554 73.8124 178.79C76.0523 181.391 78.0701 183.78 79.4594 187.49C81.5507 193.037 76.278 202.907 78.6066 208.342C80.7053 213.251 75.5735 223.714 77.865 227.622C80.772 232.598 87.5055 230.588 85.2808 246.902Z" fill="#DDB14E"/>
<path d="M102.453 174.187L102.265 175.658L127.32 178.851L127.507 177.38L102.453 174.187Z" fill="white"/>
<path d="M101.085 181.475L100.898 182.946L125.952 186.139L126.14 184.669L101.085 181.475Z" fill="white"/>
<path d="M100.344 187.408L100.156 188.879L125.211 192.072L125.398 190.601L100.344 187.408Z" fill="white"/>
<path d="M63.8886 166.303C72.4142 166.303 79.3256 159.392 79.3256 150.867C79.3256 142.342 72.4142 135.431 63.8886 135.431C55.363 135.431 48.4517 142.342 48.4517 150.867C48.4517 159.392 55.363 166.303 63.8886 166.303Z" fill="#FFB6B6"/>
<path d="M137.96 166.338L121.22 173.937L124.227 184.106L141.64 175.441C142.214 175.595 142.819 175.669 143.444 175.648C146.841 175.533 149.501 172.687 149.386 169.29C149.271 165.894 146.424 163.233 143.028 163.348C140.862 163.422 138.999 164.608 137.96 166.338Z" fill="#FFB6B6"/>
<path d="M123.594 171.953L117.141 175.146L105.611 177.409L89.9793 183.826L87.6085 184.796L76.6685 182.718L69.0936 181.27L66.5971 180.796L57.5104 179.064L55.7035 178.951C55.2089 178.81 54.675 178.675 54.089 178.555C52.3437 178.187 50.2531 177.908 48.1106 177.801C47.4655 177.769 46.8116 177.751 46.163 177.756C40.6192 177.77 35.3017 179.079 35.1711 183.034C35.0692 186.268 35.714 189.359 36.9554 192.146C37.1445 192.569 37.3423 192.978 37.5566 193.386C40.1838 198.385 44.7962 202.224 50.407 203.785C51.6306 204.124 52.8978 204.35 54.2023 204.465L54.4731 204.439L55.4873 204.35L57.1522 204.202L60.2076 203.926L84.1953 201.773L87.0625 201.516L89.7213 201.274L89.7822 201.246C93.1767 199.79 102.548 195.77 112.007 191.61C120.677 187.793 124.335 187.323 126.915 186.312C127.427 186.113 127.895 185.897 128.354 185.625C128.766 185.373 136.292 180.239 136.333 180.136C136.469 179.818 136.319 179.145 135.977 178.259C135.009 175.705 132.522 171.463 131.267 169.379L130.695 168.442L123.594 171.953Z" fill="#DDB14E"/>
<path d="M16.8264 113.422C7.53342 113.422 0 120.955 0 130.248V313.869C0 317.414 1.10494 320.713 2.98858 323.427C4.709 325.919 7.08947 327.921 9.87038 329.182H9.89265C12.0136 330.153 14.3495 330.695 16.8264 330.695H143.584V320.55H17.5679C15.2097 329.211 13.645 328.959 12.1841 328.492C10.434 327.943 8.81735 327.083 7.40834 325.971C7.3935 325.971 7.3935 325.964 7.3935 325.956C5.50991 324.503 3.9971 322.627 2.96631 320.454C2.01707 318.459 1.48315 316.227 1.48315 313.869V192.521C1.48315 149.655 36.2345 114.905 79.1024 114.905H225.157V113.422L16.8264 113.422Z" fill="#3F3D56"/>
<path d="M81.4916 142.595C81.4842 144.182 81.4768 147.304 80.1049 148.09L79.7489 147.92C79.5116 147.771 79.215 147.541 78.8961 147.282C77.9172 146.481 76.6714 145.376 75.8186 145.228C75.7741 143.893 75.8112 142.558 75.9446 141.231C75.9817 140.912 76.0188 140.593 76.0633 140.274C75.9372 140.489 75.8186 140.704 75.6999 140.927C74.9954 142.247 74.417 143.641 73.9943 145.072C72.5853 145.087 70.7017 144.894 69.9379 146.073C68.8329 147.786 70.4125 151.434 67.7205 153.014C67.1496 153.348 66.3857 153.592 65.3698 153.704C66.4376 153.874 67.7947 154.393 68.477 155.758C69.886 158.576 71.0873 161.838 70.4496 164.842C70.3532 165.287 70.2197 165.724 70.0417 166.154C68.959 168.764 66.4525 170.44 64.6133 172.591C64.5763 172.628 64.5466 172.665 64.517 172.702C63.1005 174.393 62.6259 175.779 62.7742 177.092C63.0412 179.502 65.392 181.652 67.8169 184.886C68.7143 186.087 66.0372 192.323 66.801 193.614C67.5796 194.904 67.9949 196.535 67.3794 197.915C66.7194 199.383 65.2363 200.035 63.59 200.287C58.8884 197.062 54.8468 192.954 53.0299 188.111C51.4578 183.929 51.5394 179.213 54.2832 174.037C51.6506 178.59 50.6569 184.062 51.5171 189.253C51.5394 189.439 51.569 189.617 51.6061 189.795C51.7396 190.492 51.962 191.122 52.2587 191.715C53.5861 194.363 56.3448 196.113 58.3767 198.552C57.5239 199.412 56.1297 200.725 54.7726 201.934C53.6158 202.972 52.4737 203.921 51.7248 204.448C51.2204 203.98 50.694 202.831 50.1971 201.333C49.9969 200.732 49.7966 200.072 49.6112 199.383C48.447 195.208 47.4978 189.824 47.253 188.171C46.5782 189.439 46.3854 193.02 46.4818 196.706C46.4966 197.247 46.5189 197.788 46.5411 198.322C46.7562 202.965 41.009 205.248 37.9833 201.726C37.3604 200.992 36.7226 200.169 36.07 199.242C35.9885 195.697 36.4927 192.138 37.6051 188.779C37.6348 188.682 37.6496 188.638 37.6496 188.623C37.5013 188.838 35.944 192.709 34.7204 195.69C34.09 197.218 33.5487 198.508 33.3188 198.96C33.5487 197.588 33.9862 195.898 34.446 194.244C35.4916 190.529 36.6707 187.036 35.9366 188C35.1876 188.986 34.5128 190.039 33.9343 191.137C32.7774 193.295 31.9692 195.645 31.5613 198.063C31.5242 198.278 31.4871 198.493 31.4649 198.715C30.79 198.545 30.1374 198.308 29.5145 197.996C27.5494 196.98 26.4889 194.852 26.3776 192.635C26.1997 189.164 27.7348 186.02 30.8939 186.51C32.0952 186.695 32.5995 185.983 32.6662 184.819C32.8294 182.409 31.1608 178.049 30.1894 175.705C29.7741 174.704 29.344 173.666 28.9732 172.62C31.0273 170.003 32.1175 166.621 31.8802 163.299C31.1757 165.776 29.9224 168.09 28.239 170.04C27.8756 168.29 27.846 166.54 28.4912 164.871C30.6491 159.325 35.2544 161.675 38.5099 156.692C42.3142 150.871 41.1944 147.831 43.4043 141.231C44.3535 138.383 46.6005 135.996 49.3888 134.868C52.1771 133.749 56.152 126.622 66.6898 134.446C66.8603 134.29 67.0309 134.142 67.2089 134.008C70.1974 131.754 73.8757 133.192 77.8134 133.704C81.9811 134.245 80.6017 133.452 82.8487 137.004C83.6941 138.346 81.5065 141.008 81.4916 142.595Z" fill="#2F2E41"/>
<path d="M171.779 90.8575C171.779 90.8525 171.776 90.85 171.771 90.85C170.948 89.9454 169.851 89.2928 168.612 89.0184H168.605C168.175 88.922 167.737 88.8701 167.277 88.8701H129.094C125.72 88.8701 122.968 91.6213 122.968 94.9953V133.177C122.968 136.551 125.72 139.295 129.094 139.295H167.277C170.652 139.295 173.395 136.551 173.395 133.177V94.9953C173.395 93.4009 172.787 91.9475 171.779 90.8575ZM172.676 133.177C172.676 136.158 170.259 138.576 167.277 138.576H129.094C126.113 138.576 123.695 136.158 123.695 133.177V113.927C123.695 113.756 123.695 113.593 123.702 113.423C123.725 112.34 123.814 111.272 123.977 110.219C123.999 110.041 124.036 109.871 124.066 109.693C124.874 105.073 126.988 100.891 130.013 97.5684L130.05 97.5314C134.5 92.652 140.907 89.5894 148.026 89.5894H167.277C170.259 89.5894 172.676 92.0143 172.676 94.9953V133.177Z" fill="#E6E6E6"/>
<path d="M123.646 114.086C123.646 100.534 135.786 88.6799 149.175 86.5813C166.122 83.925 181.703 92.9275 179.461 108.234C177.497 121.642 154.481 147.023 148.185 135.022C140.981 121.29 123.646 127.638 123.646 114.086Z" fill="#DDB14E"/>
<path d="M155.427 103.338H143.102C142.79 103.338 142.538 103.59 142.538 103.901C142.538 104.213 142.79 104.465 143.102 104.465H155.427C155.738 104.465 155.99 104.213 155.99 103.901C155.99 103.59 155.738 103.338 155.427 103.338Z" fill="white"/>
<path d="M155.427 115.358H143.102C142.79 115.358 142.538 115.611 142.538 115.915C142.538 116.226 142.79 116.486 143.102 116.486H155.427C155.738 116.486 155.99 116.226 155.99 115.915C155.99 115.611 155.738 115.358 155.427 115.358Z" fill="white"/>
<path d="M162.042 109.352H136.487C136.175 109.352 135.923 109.604 135.923 109.915C135.923 110.227 136.175 110.479 136.487 110.479H162.042C162.353 110.479 162.605 110.227 162.605 109.915C162.605 109.604 162.353 109.352 162.042 109.352Z" fill="white"/>
<path d="M37.7327 31.9697C36.9147 31.9697 36.2495 32.6349 36.2495 33.4528V56.4407C36.2495 57.2587 36.9147 57.9238 37.7327 57.9238C38.5506 57.9238 39.2158 57.2587 39.2158 56.4407V33.4528C39.2158 32.6349 38.5506 31.9697 37.7327 31.9697Z" fill="#3F3D56"/>
<path d="M52.2683 54.1211C57.3728 54.1211 61.5108 50.0704 61.5108 45.0737C61.5108 40.077 57.3728 36.0264 52.2683 36.0264C47.1639 36.0264 43.0259 40.077 43.0259 45.0737C43.0259 50.0704 47.1639 54.1211 52.2683 54.1211Z" fill="#DDB14E"/>
<path d="M126.361 41.9784H76.6129C74.9062 41.9784 73.5176 40.5898 73.5176 38.8832C73.5176 37.1766 74.9062 35.7881 76.6129 35.7881H126.361C128.068 35.7881 129.457 37.1766 129.457 38.8832C129.457 40.5898 128.068 41.9784 126.361 41.9784Z" fill="#F2F2F2"/>
<path d="M165.185 52.454H76.6129C74.9062 52.454 73.5176 51.0654 73.5176 49.3588C73.5176 47.6522 74.9062 46.2637 76.6129 46.2637H165.185C166.892 46.2637 168.281 47.6522 168.281 49.3588C168.281 51.0654 166.892 52.454 165.185 52.454Z" fill="#F2F2F2"/>
<path d="M160.625 311.046C159.807 311.046 159.142 311.711 159.142 312.529V335.517C159.142 336.335 159.807 337 160.625 337C161.443 337 162.108 336.335 162.108 335.517V312.529C162.108 311.711 161.443 311.046 160.625 311.046Z" fill="#3F3D56"/>
<path d="M175.161 333.197C180.265 333.197 184.403 329.147 184.403 324.15C184.403 319.153 180.265 315.103 175.161 315.103C170.056 315.103 165.918 319.153 165.918 324.15C165.918 329.147 170.056 333.197 175.161 333.197Z" fill="#DDB14E"/>
<path d="M249.254 321.055H199.505C197.799 321.055 196.41 319.666 196.41 317.959C196.41 316.253 197.799 314.864 199.505 314.864H249.254C250.961 314.864 252.349 316.253 252.349 317.959C252.349 319.666 250.961 321.055 249.254 321.055Z" fill="#F2F2F2"/>
<path d="M288.078 331.53H199.505C197.799 331.53 196.41 330.142 196.41 328.435C196.41 326.728 197.799 325.34 199.505 325.34H288.078C289.785 325.34 291.173 326.728 291.173 328.435C291.173 330.142 289.785 331.53 288.078 331.53Z" fill="#F2F2F2"/>
<path d="M74.8915 127.583C76.6232 127.583 78.0271 126.148 78.0271 124.377C78.0271 122.607 76.6232 121.172 74.8915 121.172C73.1597 121.172 71.7559 122.607 71.7559 124.377C71.7559 126.148 73.1597 127.583 74.8915 127.583Z" fill="#3F3D56"/>
<path d="M85.7235 127.583C87.4552 127.583 88.8591 126.148 88.8591 124.377C88.8591 122.607 87.4552 121.172 85.7235 121.172C83.9917 121.172 82.5879 122.607 82.5879 124.377C82.5879 126.148 83.9917 127.583 85.7235 127.583Z" fill="#3F3D56"/>
<path d="M96.5555 127.583C98.2873 127.583 99.6911 126.148 99.6911 124.377C99.6911 122.607 98.2873 121.172 96.5555 121.172C94.8238 121.172 93.4199 122.607 93.4199 124.377C93.4199 126.148 94.8238 127.583 96.5555 127.583Z" fill="#3F3D56"/>
<path d="M292.463 64.3345C294.195 64.3345 295.599 62.8995 295.599 61.1292C295.599 59.3589 294.195 57.9238 292.463 57.9238C290.731 57.9238 289.328 59.3589 289.328 61.1292C289.328 62.8995 290.731 64.3345 292.463 64.3345Z" fill="#3F3D56"/>
<path d="M303.295 64.3345C305.027 64.3345 306.431 62.8995 306.431 61.1292C306.431 59.3589 305.027 57.9238 303.295 57.9238C301.564 57.9238 300.16 59.3589 300.16 61.1292C300.16 62.8995 301.564 64.3345 303.295 64.3345Z" fill="#3F3D56"/>
<path d="M314.127 64.3345C315.859 64.3345 317.263 62.8995 317.263 61.1292C317.263 59.3589 315.859 57.9238 314.127 57.9238C312.396 57.9238 310.992 59.3589 310.992 61.1292C310.992 62.8995 312.396 64.3345 314.127 64.3345Z" fill="#3F3D56"/>
<path d="M197.592 190.987C197.468 191.411 197.917 191.767 198.301 191.55C200.984 190.035 204.263 188.557 207.186 187.759C207.654 187.631 207.669 186.976 207.209 186.821L203.335 185.52L218.133 166.887L217.125 166.087L202.327 184.719L200.181 181.239C199.926 180.826 199.291 180.989 199.273 181.474C199.158 184.502 198.46 188.031 197.592 190.987Z" fill="#3F3D56"/>
<path d="M218.607 227.658C219.011 227.836 219.422 227.436 219.256 227.027C218.096 224.173 217.05 220.732 216.633 217.731C216.566 217.25 215.918 217.151 215.706 217.588L213.919 221.264L197.332 204.204L196.41 205.101L212.996 222.161L209.27 223.844C208.828 224.044 208.908 224.694 209.387 224.775C212.376 225.276 215.786 226.419 218.607 227.658Z" fill="#3F3D56"/>
</g>
<defs>
<clipPath id="clip0_178_1641">
<rect width="411" height="337" fill="white"/>
</clipPath>
</defs>
</svg>
