<svg width="548" height="418" viewBox="0 0 548 418" fill="none" xmlns="http://www.w3.org/2000/svg">
<g clip-path="url(#clip0_157_4422)">
<path opacity="0.1" d="M537.968 107.758C532.82 95.7907 525.863 84.6885 517.342 74.8413L231.176 72.0176L466.787 38.873C451.567 32.802 435.362 29.5818 418.981 29.3727C396.442 11.3289 368.69 1.05414 339.853 0.0768017C311.016 -0.900538 282.634 7.47174 258.929 23.9483C239.985 14.1943 218.984 9.1254 197.684 9.16551C134.1 9.16551 81.116 53.2704 69.2314 111.763L537.968 107.758Z" fill="#FF5500"/>
<path opacity="0.1" d="M548.03 156.811C548.044 140.949 545.016 125.233 539.112 110.516L43.1493 162.656C38.0349 171.921 34.1227 181.802 31.5077 192.059L185.091 214.994L28 231.723C32.7275 297.936 89.4019 350.223 158.634 350.223C193.483 350.223 225.153 336.972 248.613 315.365C272.155 337.382 304.124 350.918 339.347 350.918C391.613 350.918 436.721 321.114 457.727 278.018C499.875 264.624 532.613 230.983 543.819 188.901L349.617 158.707H548.03C548.02 158.073 548.03 157.444 548.03 156.811Z" fill="#FF5500"/>
<path d="M117 413C172.228 413 217 406.508 217 398.5C217 390.492 172.228 384 117 384C61.7715 384 17 390.492 17 398.5C17 406.508 61.7715 413 117 413Z" fill="#D9E5E7"/>
<path d="M263.936 277.619C258.768 278.917 253.463 276.393 253.463 276.393C253.463 276.393 248.938 271.146 245.122 270.436C241.305 269.726 239.827 275.936 237.56 277.533C235.991 278.654 224.673 277.853 217.82 277.254L216.64 277.148C216.524 277.062 216.407 276.97 216.281 276.889C216.281 276.889 209.701 274.862 208.329 273.067C206.958 271.272 197.791 267.952 194.946 268.144C192.102 268.337 183.695 268.793 183.695 268.793C183.695 268.793 180.399 265.037 178.911 265.427C177.423 265.817 172.25 265.397 172.25 265.397C172.25 265.397 170.828 261.736 169.406 256.49C168.743 254.041 166.536 252.322 164.375 251.192C166.318 244.601 162.856 225.804 152.105 222.128C149.762 221.327 148.562 218.666 146.568 217.206C144.781 215.903 141.856 212.831 143.288 207.28C145.313 199.508 150.334 187.27 150.334 187.27L154.074 179.787C153.725 180.318 153.329 180.815 152.89 181.273C153.396 180.624 153.902 179.985 154.337 179.448C158.07 181.336 162.142 182.46 166.313 182.753C170.534 184.462 174.751 185.967 176.391 185.911C180.141 185.78 189.708 190.575 189.708 190.575C189.708 190.575 212.723 197.166 217.506 197.698C222.289 198.23 224.617 192 224.617 192C224.617 192 227.103 179.717 222.689 176.462C218.275 173.207 215.709 188.122 215.709 188.122L185.598 177.253L183.74 176.274C185.182 174.746 186.327 172.961 187.116 171.012C187.582 169.851 188.007 168.523 189.116 167.945C189.414 167.797 189.736 167.702 190.067 167.666C190.342 167.648 190.617 167.648 190.892 167.666C196.116 167.986 200.605 172.102 205.839 172.122C206.031 172.122 206.224 172.122 206.416 172.122C207.414 172.119 208.388 171.819 209.215 171.261C209.682 170.88 210.066 170.407 210.343 169.872C210.619 169.336 210.784 168.749 210.825 168.148C210.748 168.311 210.664 168.47 210.571 168.624C210.708 167.879 210.708 167.114 210.571 166.368C210.248 164.589 209.321 162.992 208.491 161.385C208.256 161.01 208.124 160.58 208.106 160.138C208.13 159.907 208.2 159.683 208.312 159.48C208.425 159.277 208.577 159.099 208.759 158.957C208.767 159.005 208.777 159.052 208.79 159.099C209.184 158.727 209.623 158.405 210.096 158.141C211.375 157.3 212.468 156.206 213.308 154.925C214.147 153.643 214.715 152.203 214.975 150.693C214.849 151.069 214.697 151.439 214.535 151.804C215.313 149.23 215.124 146.46 214.003 144.017C213.713 143.321 213.249 142.712 212.657 142.248C210.769 140.919 208.233 142.334 205.93 142.486C203.905 142.618 201.942 141.71 200.114 140.793C196.996 139.226 193.894 137.533 191.297 135.216C188.346 132.565 186.154 129.183 183.492 126.248C180.83 123.313 177.413 120.697 173.45 120.403C166.247 119.845 159.455 126.993 152.606 124.661C149.266 123.531 147.069 120.438 144.746 117.782C142.423 115.126 139.229 112.576 135.746 113.148C133.327 113.554 131.231 115.435 128.782 115.364C127.501 115.323 126.312 114.75 125.097 114.35C122.156 113.361 118.127 113.843 117.079 116.773C116.873 117.37 116.801 118.005 116.866 118.633C116.932 119.261 117.134 119.867 117.459 120.408C117.304 120.626 117.165 120.854 117.044 121.092C116.792 121.557 116.705 122.093 116.796 122.613C114.714 124.485 113.172 126.881 112.329 129.553C111.487 132.224 111.375 135.073 112.006 137.802C112.636 140.532 113.986 143.042 115.915 145.071C117.843 147.101 120.28 148.575 122.971 149.34C123.067 149.71 123.163 150.08 123.254 150.455C124.236 154.597 124.748 159.261 123.295 162.404C123.204 162.597 123.108 162.784 123.001 162.967L122.875 163.023L122.693 162.835L121.589 161.679C121.528 160.473 120.85 157.238 116.133 151.236C109.922 143.332 108.758 130.253 108.758 130.253C108.758 130.253 107.209 123.521 108.758 121.579C110.307 119.637 112.898 98.2592 112.898 98.2592L117.181 86.2242C117.181 86.2242 137.999 64.9828 129.328 62.3973C123.442 60.6382 116.421 69.7025 112.524 75.6947C110.61 78.6371 109.372 81.9686 108.9 85.4485L97.1317 117.696C97.1317 117.696 95.9675 121.584 97.1317 128.316C98.2958 135.049 100.882 146.967 100.882 146.967L107.462 163.671C107.462 163.671 109.887 170.885 109.674 174.018C109.386 174.206 108.373 176.213 107.498 178.038L106.855 179.052L106.809 179.463C106.379 180.381 106.081 181.04 106.081 181.04C106.081 181.04 102.416 191.873 105.478 198.519C108.54 205.166 108.662 208.248 108.662 208.248L110.945 218.093L111.896 226.711L120.106 247.045L127.668 257.858C127.668 257.858 126.959 265.823 125.406 266.923C123.852 268.023 124.565 273.721 124.565 273.721L123.594 288.676C123.594 288.676 120.557 293.147 120.364 300.397C120.172 307.646 119.068 309.725 119.068 309.725C119.068 309.725 118.562 315.808 119.975 318.596C121.387 321.385 117.712 324.295 117.712 324.295L120.865 335.138L119.635 348.867C119.635 348.867 120.207 349.024 121.154 349.262L120.962 350.245L115.819 376.252C115.819 376.252 113.04 383.38 112.914 385.058L103.924 401.316C103.924 401.316 96.423 408.763 99.9813 409.473C103.54 410.183 113.885 403.775 113.885 403.775C113.885 403.775 122.419 394.579 125.78 393.742C129.141 392.906 132.866 390.498 131.793 387.005C130.72 383.512 128.25 378.199 130.629 372.562C132.148 369.013 135.377 359.381 137.594 352.659C137.715 352.289 137.832 351.934 137.948 351.589C138.535 351.536 139.114 351.426 139.679 351.259C145.11 349.576 147.955 350.752 147.955 350.752L157.653 311.448L159.784 291.728L173.364 303.073C176.051 305.318 179.387 306.638 182.88 306.84C188.23 307.154 196.576 307.93 202.62 309.801L205.151 299.246C205.151 299.246 212.389 299.51 213.942 297.046C214.575 296.032 215.198 295.17 215.709 294.511L216.883 294.329L248.918 289.365C254.865 289.365 263.014 285.345 263.014 285.345L267.995 284.377C267.995 284.377 275.425 282.887 276.093 281.655C276.762 280.423 269.114 276.332 263.936 277.619Z" fill="url(#paint0_linear_157_4422)"/>
<path d="M118.572 119.313C119.584 116.454 123.542 115.972 126.422 116.94C127.607 117.336 128.776 117.898 130.026 117.954C132.425 118.025 134.475 116.18 136.844 115.79C140.251 115.222 143.374 117.716 145.646 120.317C147.919 122.917 150.075 125.944 153.345 127.054C160.041 129.315 166.692 122.339 173.738 122.882C177.605 123.181 180.946 125.731 183.552 128.605C186.159 131.48 188.305 134.785 191.19 137.381C193.721 139.662 196.758 141.32 199.82 142.856C201.607 143.753 203.515 144.64 205.509 144.508C207.767 144.361 210.247 142.988 212.089 144.275C212.669 144.731 213.122 145.328 213.405 146.009C215.673 150.734 213.846 157.025 209.407 159.803C208.632 160.285 207.691 160.817 207.645 161.745C207.66 162.178 207.789 162.6 208.02 162.967C208.83 164.538 209.741 166.105 210.044 167.843C210.348 169.582 209.938 171.585 208.526 172.639C207.604 173.254 206.509 173.554 205.403 173.496C200.281 173.471 195.887 169.44 190.775 169.131C190.121 169.056 189.459 169.158 188.857 169.425C187.774 169.988 187.338 171.291 186.898 172.426C184.529 178.353 178.648 182.474 172.371 183.605C166.095 184.735 159.54 183.143 153.922 180.122C153.511 179.925 153.134 179.665 152.803 179.351C152.334 178.781 152.003 178.109 151.836 177.389C150.116 171.94 147.787 166.236 143.019 163.088C139.927 161.06 135.731 159.92 134.329 156.498C133.448 154.333 134 151.874 133.777 149.542C133.558 147.543 132.78 145.646 131.532 144.07C130.285 142.493 128.619 141.301 126.726 140.63C125.896 140.351 124.985 140.154 124.377 139.52C123.884 138.898 123.569 138.153 123.466 137.365C122.712 133.933 122.211 130.309 121.158 126.958C120.354 124.332 117.494 122.319 118.572 119.313Z" fill="#663D5B"/>
<g opacity="0.1">
<path d="M209.118 171.063C208.193 171.669 207.099 171.962 205.995 171.9C200.878 171.9 196.485 167.844 191.372 167.54C190.719 167.463 190.056 167.563 189.454 167.829C188.366 168.392 187.936 169.695 187.495 170.83C185.126 176.762 179.24 180.883 172.964 182.014C166.687 183.144 160.132 181.552 154.519 178.531C154.109 178.333 153.731 178.074 153.401 177.76C152.932 177.189 152.602 176.518 152.434 175.798C150.713 170.343 148.385 164.645 143.617 161.492C140.519 159.439 136.323 158.329 134.926 154.902C134.04 152.732 134.592 150.273 134.374 147.946C134.156 145.946 133.377 144.048 132.129 142.471C130.881 140.895 129.213 139.703 127.318 139.034C126.488 138.755 125.577 138.552 124.97 137.924C124.476 137.301 124.163 136.554 124.064 135.764C123.305 132.337 122.808 128.707 121.756 125.362C121.047 123.121 118.815 121.306 118.926 118.913C118.861 119.039 118.803 119.17 118.754 119.303C117.671 122.31 120.536 124.322 121.351 126.908C122.404 130.254 122.9 133.883 123.659 137.31C123.758 138.1 124.071 138.847 124.565 139.47C125.172 140.099 126.083 140.301 126.913 140.58C128.809 141.25 130.477 142.442 131.725 144.02C132.974 145.597 133.752 147.496 133.969 149.498C134.187 151.824 133.635 154.283 134.521 156.453C135.918 159.895 140.114 161.016 143.212 163.043C147.97 166.202 150.298 171.895 152.029 177.35C152.197 178.069 152.528 178.74 152.996 179.312C153.326 179.625 153.704 179.885 154.114 180.082C159.728 183.124 166.262 184.69 172.559 183.565C178.855 182.439 184.706 178.313 187.09 172.381C187.546 171.246 187.966 169.943 189.049 169.38C189.651 169.114 190.314 169.015 190.968 169.091C196.08 169.401 200.473 173.431 205.59 173.451C206.696 173.509 207.79 173.211 208.713 172.599C209.171 172.228 209.547 171.766 209.819 171.243C210.091 170.72 210.252 170.146 210.293 169.558C210.037 170.152 209.632 170.671 209.118 171.063Z" fill="black"/>
<path d="M209.999 158.212C209.225 158.719 208.278 159.226 208.233 160.154C208.228 160.34 208.258 160.525 208.319 160.701C208.704 160.337 209.132 160.022 209.594 159.763C210.846 158.942 211.916 157.871 212.737 156.618C213.559 155.365 214.113 153.956 214.367 152.479C213.619 154.839 212.075 156.866 209.999 158.212Z" fill="black"/>
</g>
<path d="M131.818 369.611C129.474 375.127 131.884 380.318 132.957 383.745C134.03 387.172 130.365 389.509 127.075 390.336C123.785 391.162 115.434 400.155 115.434 400.155C115.434 400.155 105.311 406.426 101.828 405.732C98.3459 405.037 105.685 397.747 105.685 397.747L114.482 381.839C114.609 380.196 117.327 373.221 117.327 373.221L122.358 347.772L123.026 344.39L140.863 343.311C140.863 343.311 139.927 346.21 138.636 350.129C136.465 356.719 133.286 366.169 131.818 369.611Z" fill="#CC818C"/>
<path d="M274.175 280.656C273.542 281.863 266.269 283.317 266.269 283.317L261.394 284.265C261.394 284.265 253.422 288.199 247.601 288.199L216.25 293.061L212.044 293.715V275.901C212.044 275.901 214.16 276.124 217.156 276.408C223.853 276.996 234.932 277.776 236.466 276.681C238.683 275.1 240.136 269.016 243.866 269.716C247.596 270.416 252.03 275.546 252.03 275.546C252.03 275.546 257.218 278.015 262.28 276.747C267.342 275.48 274.807 279.449 274.175 280.656Z" fill="#CC818C"/>
<path opacity="0.1" d="M217.359 291.683C217.359 291.683 216.908 292.19 216.25 293.057L212.044 293.711V275.901C212.044 275.901 214.16 276.124 217.156 276.408C222.187 280.388 217.359 291.683 217.359 291.683Z" fill="black"/>
<path d="M156.812 287.566L173.652 301.639C176.282 303.835 179.547 305.127 182.966 305.325C188.199 305.634 196.369 306.389 202.301 308.225L204.771 297.893C204.771 297.893 211.857 298.146 213.376 295.738C214.267 294.317 215.26 292.961 216.347 291.683C216.347 291.683 221.474 279.709 215.653 276.033C215.653 276.033 209.2 274.066 207.869 272.292C206.537 270.517 197.558 267.288 194.774 267.476C191.99 267.663 183.765 268.109 183.765 268.109C183.765 268.109 180.536 264.434 179.083 264.814C177.631 265.194 172.564 264.814 172.564 264.814C172.564 264.814 171.172 261.23 169.78 256.095C168.388 250.959 160.103 249.124 160.103 249.124L156.812 287.566Z" fill="#565987"/>
<path opacity="0.1" d="M156.812 287.566L173.652 301.639C176.282 303.835 179.547 305.127 182.966 305.325C188.199 305.634 196.369 306.389 202.301 308.225L204.771 297.893C204.771 297.893 211.857 298.146 213.376 295.738C214.267 294.317 215.26 292.961 216.347 291.683C216.347 291.683 221.474 279.709 215.653 276.033C215.653 276.033 209.2 274.066 207.869 272.292C206.537 270.517 197.558 267.288 194.774 267.476C191.99 267.663 183.765 268.109 183.765 268.109C183.765 268.109 180.536 264.434 179.083 264.814C177.631 265.194 172.564 264.814 172.564 264.814C172.564 264.814 171.172 261.23 169.78 256.095C168.388 250.959 160.103 249.124 160.103 249.124L156.812 287.566Z" fill="black"/>
<path d="M149.281 161.396L147.419 161.745H147.302L147.029 161.796L143.84 162.389L142.858 163.555L142.818 163.596L139.664 167.337L137.007 169.948L136.982 169.978L134.734 172.168L130.933 175.955L130.295 177.532L128.908 181.025L128.549 181.912L124.753 185.968L122.328 191.164L116.659 194.459L110.56 191.291L107.776 187.235L108.409 181.425L108.536 180.264L110.393 177.279L112.079 174.561L115.369 169.872L121.696 165.563L122.829 165.264L124.1 164.929C124.197 164.79 124.287 164.647 124.368 164.498C124.475 164.32 124.572 164.135 124.657 163.946C126.079 160.874 125.578 156.306 124.616 152.255C123.879 149.225 122.903 146.259 121.696 143.384L138.399 140.976C138.399 140.976 138.237 144.22 138.237 149.279C138.237 150.547 138.237 151.921 138.272 153.391C138.353 157.953 142.585 159.931 145.779 160.772C146.601 160.992 147.436 161.161 148.279 161.279C148.897 161.375 149.281 161.396 149.281 161.396Z" fill="#CC818C"/>
<path d="M122.96 163.788C122.96 163.788 123.719 160.746 117.645 153.015C111.572 145.284 110.433 132.484 110.433 132.484C110.433 132.484 108.914 125.893 110.433 123.992C111.951 122.091 114.482 101.179 114.482 101.179L118.658 89.3925C118.658 89.3925 139.031 68.6074 130.552 66.0727C124.792 64.349 117.899 73.2258 114.107 79.0861C112.235 81.9659 111.025 85.2265 110.564 88.6321L99.0442 120.19C99.0442 120.19 97.9054 123.992 99.0442 130.582C100.183 137.173 102.714 148.833 102.714 148.833L109.167 165.197C109.167 165.197 112.564 175.387 110.802 176.629L114.735 170.804L122.96 163.788Z" fill="#CC818C"/>
<path d="M223.813 192.954C223.813 192.954 221.535 199.037 216.853 198.53C212.171 198.023 189.647 191.559 189.647 191.559C189.647 191.559 180.283 186.87 176.613 186.997C172.944 187.124 156.114 179.266 156.114 179.266C156.114 179.266 154.93 180.827 153.609 182.47C152.171 184.269 150.572 186.171 150.167 186.236C149.408 186.363 137.639 188.011 137.639 188.011L129.667 184.335L128.908 181.025L128.549 179.504L130.315 177.532L132.639 174.942L136.997 169.963L137.022 169.933L142.838 163.601L142.878 163.56L146.603 162.04L147.322 161.746H147.439C147.884 161.669 149.595 161.512 151.888 162.81C153.484 163.716 155.258 164.266 157.086 164.422C160.725 164.682 164.171 166.161 166.87 168.62L185.598 178.49L215.081 189.136C215.081 189.136 217.612 174.561 221.914 177.73C226.217 180.898 223.813 192.954 223.813 192.954Z" fill="#CC818C"/>
<path opacity="0.1" d="M153.609 182.469C152.171 184.269 150.572 186.17 150.167 186.236C149.408 186.363 137.64 188.01 137.64 188.01L129.668 184.335L128.908 181.025L128.549 181.912L124.753 185.967L122.328 191.164L116.659 194.459L110.56 191.29L107.776 187.235L108.409 181.425C108.728 180.736 109.599 178.86 110.393 177.278C110.769 176.407 111.241 175.58 111.8 174.814C112.306 174.48 112.838 170.886 112.838 170.886C115.136 164.25 122.835 163.231 122.835 163.231L124.064 164.386L124.601 164.944C124.383 164.909 124.642 164.437 124.363 164.513C123.918 164.64 123.72 165.314 123.148 165.684C120.035 167.712 115.171 172.442 113.248 174.688C112.782 175.23 112.301 175.762 111.81 176.28C109.032 179.225 109.543 183.128 109.543 183.128C108.849 186.17 114.984 188.451 114.984 188.451C116.695 185.602 128.271 177.745 128.271 177.745L136.065 169C138.455 164.833 143.152 162.08 145.774 160.792C146.933 160.224 147.692 159.94 147.692 159.94L150.607 161.188C149.838 160.981 149.023 161.016 148.274 161.289C147.844 161.422 147.425 161.592 147.024 161.796C146.872 161.872 146.72 161.953 146.578 162.039C145.781 162.503 145.032 163.045 144.341 163.656L137.791 170.82C132.786 176.29 136.556 185.136 143.961 185.263H144.027C148.552 186.307 151.797 184.208 153.609 182.469Z" fill="black"/>
<path opacity="0.1" d="M140.863 343.326C140.863 343.326 139.927 346.226 138.636 350.145C133.686 350.515 125.512 348.598 122.358 347.787L123.027 344.406L140.863 343.326Z" fill="black"/>
<path d="M124.606 164.944L122.986 163.281C122.986 163.281 117.14 164.082 113.511 170.338C113.511 170.338 111.815 175.027 111.294 175.362C110.772 175.697 107.776 182.252 107.776 182.252C107.776 182.252 104.192 192.852 107.184 199.361C110.175 205.871 110.307 208.867 110.307 208.867L112.544 218.499L113.47 226.945L121.508 246.842L128.908 257.402C128.908 257.402 128.215 265.194 126.696 266.274C125.178 267.354 125.871 272.925 125.871 272.925L124.925 287.566C124.925 287.566 121.948 291.936 121.761 299.033C121.574 306.131 120.496 308.159 120.496 308.159C120.496 308.159 119.99 314.115 121.382 316.843C122.773 319.57 119.165 322.419 119.165 322.419L122.267 332.999L121.063 346.433C121.063 346.433 135.362 350.428 140.676 348.781C145.991 347.133 148.775 348.274 148.775 348.274L158.265 309.791L161.555 279.566C161.555 279.566 161.747 258.148 164.592 251.618C167.032 246.041 163.833 226.174 152.844 222.423C150.551 221.642 149.387 219.036 147.428 217.606C145.677 216.334 142.817 213.328 144.219 207.893C146.183 200.289 151.118 188.315 151.118 188.315L154.773 181.025C154.773 181.025 150.799 187.463 143.526 185.815H143.46C136.055 185.684 132.284 176.837 137.29 171.372L143.84 164.204C143.84 164.204 147.449 160.873 150.106 161.715L147.195 160.468C147.195 160.468 139.001 163.509 135.554 169.527L127.759 178.272C127.759 178.272 116.193 186.094 114.483 188.964C114.483 188.964 108.348 186.682 109.041 183.641C109.041 183.641 108.535 179.732 111.309 176.787C111.815 176.28 112.281 175.742 112.746 175.2C115.242 172.28 122.141 164.534 124.606 164.944Z" fill="#565987"/>
<path opacity="0.1" d="M125.557 217.16C125.557 217.16 123.72 230.534 125.112 233.256L125.557 217.16Z" fill="black"/>
<path opacity="0.1" d="M126.757 222.356L128.721 230.027C128.721 230.027 129.414 225.337 126.757 222.356Z" fill="black"/>
<path opacity="0.1" d="M115.115 220.567C115.115 220.567 119.038 240.085 123.34 245.981L115.115 220.567Z" fill="black"/>
<path opacity="0.1" d="M142.766 244.095C142.766 244.095 136.059 250.432 133.463 249.971C133.463 249.971 143.778 250.417 147.003 244.967C147.003 244.982 144.917 243.461 142.766 244.095Z" fill="black"/>
<path opacity="0.1" d="M152.064 243.588C152.064 243.588 143.46 249.859 141.754 250.432C141.754 250.432 151.052 247.77 152.064 243.588Z" fill="black"/>
<path opacity="0.1" d="M122.96 197.009C122.96 197.009 118.658 202.524 116.507 201.891C116.507 201.891 121.761 202.078 122.96 197.009Z" fill="black"/>
<path opacity="0.1" d="M127.835 204.106C127.835 204.106 137.199 191.371 141.628 191.878C141.628 191.878 130.998 201.13 127.835 204.106Z" fill="black"/>
<path opacity="0.1" d="M140.802 199.473C140.802 199.473 134.855 202.459 135.488 203.331C136.12 204.203 140.802 199.473 140.802 199.473Z" fill="black"/>
<path opacity="0.1" d="M145.105 297.259C145.105 297.259 125.239 308.858 123.406 309.426C123.406 309.426 126.823 312.026 130.047 310.759C133.271 309.492 145.105 297.259 145.105 297.259Z" fill="black"/>
<path opacity="0.1" d="M128.468 321.405C128.468 321.405 120.496 320.579 120.81 323.179C121.124 325.78 128.468 321.405 128.468 321.405Z" fill="black"/>
<path opacity="0.1" d="M138.398 140.976C138.398 140.976 138.237 144.22 138.237 149.279C136.362 150.818 134.151 151.889 131.783 152.406C129.415 152.922 126.959 152.869 124.616 152.25C123.879 149.22 122.902 146.254 121.695 143.379L138.398 140.976Z" fill="black"/>
<path d="M128.528 151.768C136.984 151.768 143.839 144.902 143.839 136.433C143.839 127.964 136.984 121.098 128.528 121.098C120.072 121.098 113.217 127.964 113.217 136.433C113.217 144.902 120.072 151.768 128.528 151.768Z" fill="#CC818C"/>
<path opacity="0.1" d="M132.542 145.791C132.972 152.062 134.288 159.235 139.724 162.388C143.652 164.665 148.602 164.067 152.95 162.769C157.298 161.471 161.555 159.534 166.08 159.316C169.557 159.149 172.994 160.006 176.461 160.224C179.928 160.442 183.725 159.899 186.2 157.456C189.743 153.978 189.095 147.656 185.739 144.001C182.383 140.346 177.134 139.018 172.164 139.155C166.09 139.322 159.308 141.183 154.504 137.492C151.28 135.008 150.06 130.699 147.347 127.662C142.817 122.593 122.783 115.272 118.542 123.536C116.553 127.404 125.593 130.167 127.688 132.965C130.998 137.38 132.147 140.001 132.542 145.791Z" fill="black"/>
<path d="M133.013 145.249C133.448 151.525 134.759 158.698 140.195 161.847C144.123 164.123 149.073 163.525 153.421 162.232C157.769 160.939 162.026 158.998 166.556 158.78C170.028 158.612 173.465 159.464 176.937 159.687C180.409 159.91 184.195 159.363 186.67 156.919C190.214 153.436 189.566 147.12 186.21 143.464C182.854 139.809 177.605 138.481 172.64 138.618C166.566 138.78 159.778 140.646 154.975 136.95C151.751 134.466 150.531 130.162 147.818 127.12C143.288 122.051 123.254 114.735 119.012 122.999C117.023 126.862 126.063 129.625 128.164 132.428C131.469 136.839 132.618 139.454 133.013 145.249Z" fill="#663D5B"/>
<path opacity="0.1" d="M114.599 188.447C114.834 186.446 115.492 184.518 116.53 182.793C117.567 181.067 118.961 179.583 120.617 178.439" fill="black"/>
<path opacity="0.1" d="M172.007 267.855C171.96 268.352 171.839 268.839 171.648 269.3C170.985 271.291 170.186 273.233 169.259 275.115C170.61 274.998 171.724 273.934 172.296 272.707C172.795 271.445 173.071 270.105 173.111 268.748C173.16 268.324 173.172 267.896 173.146 267.47C173.111 267.075 172.858 265.564 172.205 265.833C171.678 266.056 172.017 267.455 172.007 267.855Z" fill="black"/>
<path opacity="0.1" d="M187.582 155.332C185.101 157.776 181.315 158.323 177.843 158.1C174.371 157.877 170.919 157.025 167.462 157.198C162.906 157.416 158.685 159.352 154.332 160.65C149.979 161.948 145.034 162.546 141.101 160.27C135.67 157.117 134.354 149.943 133.924 143.672C133.529 137.883 132.375 135.262 129.07 130.846C127.07 128.175 118.77 125.538 119.721 121.949C119.446 122.273 119.208 122.627 119.012 123.004C117.023 126.867 126.063 129.63 128.164 132.433C131.469 136.844 132.618 139.47 133.013 145.254C133.448 151.53 134.759 158.703 140.195 161.852C144.123 164.128 149.073 163.53 153.421 162.237C157.769 160.944 162.026 159.002 166.556 158.784C170.028 158.617 173.465 159.469 176.937 159.692C180.409 159.915 184.195 159.367 186.67 156.924C187.373 156.225 187.932 155.395 188.315 154.48C188.093 154.783 187.848 155.068 187.582 155.332Z" fill="black"/>
<path d="M113.5 201.43L111.643 205.485L117.549 204.304L113.5 201.43Z" fill="#CC818C"/>
<path opacity="0.1" d="M113.5 201.43L111.972 205.485H111.643L113.5 201.43Z" fill="black"/>
<path opacity="0.1" d="M259.668 385.509C271.13 385.509 280.421 384.231 280.421 382.655C280.421 381.079 271.13 379.801 259.668 379.801C248.207 379.801 238.916 381.079 238.916 382.655C238.916 384.231 248.207 385.509 259.668 385.509Z" fill="#DDB14E"/>
<path opacity="0.1" d="M339.161 393.58C350.622 393.58 359.913 392.303 359.913 390.726C359.913 389.15 350.622 387.872 339.161 387.872C327.699 387.872 318.408 389.15 318.408 390.726C318.408 392.303 327.699 393.58 339.161 393.58Z" fill="#DDB14E"/>
<path opacity="0.1" d="M432.794 382.656C444.256 382.656 453.547 381.378 453.547 379.801C453.547 378.225 444.256 376.947 432.794 376.947C421.333 376.947 412.042 378.225 412.042 379.801C412.042 381.378 421.333 382.656 432.794 382.656Z" fill="#DDB14E"/>
<path opacity="0.1" d="M307.343 415.739C315.489 415.739 322.093 414.831 322.093 413.711C322.093 412.591 315.489 411.684 307.343 411.684C299.197 411.684 292.594 412.591 292.594 413.711C292.594 414.831 299.197 415.739 307.343 415.739Z" fill="#DDB14E"/>
<path opacity="0.1" d="M389.847 413.711C397.993 413.711 404.596 412.803 404.596 411.683C404.596 410.563 397.993 409.655 389.847 409.655C381.701 409.655 375.098 410.563 375.098 411.683C375.098 412.803 381.701 413.711 389.847 413.711Z" fill="#DDB14E"/>
<path d="M339.611 390.087C339.611 390.087 310.507 294.526 344.166 256.251C369.342 227.619 397.925 231.046 410.726 234.584C414.038 235.468 417.119 237.062 419.755 239.256C422.391 241.451 424.519 244.193 425.992 247.294C430.466 256.966 429.661 272.641 398.072 290.978C345.179 321.648 341.889 363.726 341.889 363.726L339.611 390.087Z" fill="#DDB14E"/>
<path d="M406.171 248.141C406.171 248.141 320.377 275.009 339.611 390.088" stroke="#565987" stroke-miterlimit="10"/>
<path d="M356.061 257.772C356.061 257.772 367.869 265.747 364.119 277.726" stroke="#565987" stroke-miterlimit="10"/>
<path d="M397.566 264.87C397.566 264.87 390.343 257.509 381.551 261.57" stroke="#565987" stroke-miterlimit="10"/>
<path d="M363.654 301.877C363.654 301.877 350.969 295.428 347.689 303.504" stroke="#565987" stroke-miterlimit="10"/>
<path d="M332.271 315.311C332.271 315.311 341.792 314.551 341.964 319.113" stroke="#565987" stroke-miterlimit="10"/>
<path d="M338.457 390.848C338.457 390.848 372.542 321.395 381.906 322.916C386.355 323.636 388.405 328.021 389.331 332.422C390.475 338.118 389.816 344.03 387.448 349.334C382.614 360.441 369.621 381.545 338.457 390.848Z" fill="#DDB14E"/>
<path d="M381.627 336.097C381.627 336.097 345.852 388.059 338.938 390.341" stroke="#565987" stroke-miterlimit="10"/>
<path d="M384.917 344.208H376.565" stroke="#565987" stroke-miterlimit="10"/>
<path d="M374.915 363.219L361.826 363.781" stroke="#565987" stroke-miterlimit="10"/>
<path d="M366.948 348.01L368.371 354.838" stroke="#565987" stroke-miterlimit="10"/>
<path d="M353.029 368.795L353.282 375" stroke="#565987" stroke-miterlimit="10"/>
<path d="M339.469 390.848C339.469 390.848 305.385 321.395 296.021 322.916C291.572 323.636 289.522 328.021 288.596 332.422C287.436 338.113 288.076 344.024 290.428 349.334C295.262 360.441 308.255 381.545 339.469 390.848Z" fill="#DDB14E"/>
<path d="M296.248 336.097C296.248 336.097 332.023 388.059 338.937 390.341" stroke="#565987" stroke-miterlimit="10"/>
<path d="M292.953 344.208H301.305" stroke="#565987" stroke-miterlimit="10"/>
<path d="M302.96 363.219L316.049 363.781" stroke="#565987" stroke-miterlimit="10"/>
<path d="M310.922 348.01L309.505 354.838" stroke="#565987" stroke-miterlimit="10"/>
<path d="M324.841 368.795L324.588 375" stroke="#565987" stroke-miterlimit="10"/>
<path d="M397.971 407.065C398.901 406.309 399.579 405.287 399.914 404.135C400.162 402.969 399.666 401.574 398.558 401.149C397.313 400.672 395.981 401.534 394.974 402.406C393.967 403.278 392.808 404.277 391.487 404.089C392.165 403.472 392.673 402.69 392.959 401.818C393.246 400.947 393.302 400.016 393.122 399.116C393.067 398.742 392.909 398.391 392.666 398.102C391.978 397.362 390.722 397.681 389.892 398.264C387.26 400.12 386.526 403.699 386.516 406.923C386.248 405.757 386.471 404.545 386.466 403.374C386.461 402.203 386.132 400.839 385.129 400.221C384.51 399.878 383.812 399.703 383.105 399.714C381.92 399.673 380.604 399.79 379.795 400.657C378.782 401.732 379.051 403.541 379.926 404.713C380.802 405.884 382.128 406.639 383.348 407.46C384.331 408.042 385.169 408.842 385.798 409.797C385.872 409.929 385.933 410.069 385.98 410.213H393.395C395.055 409.375 396.594 408.316 397.971 407.065Z" fill="#DDB14E"/>
<path d="M268.101 379.097C269.031 378.338 269.707 377.314 270.04 376.161C270.293 374.995 269.797 373.627 268.683 373.175C267.438 372.699 266.112 373.561 265.1 374.438C264.088 375.315 262.933 376.303 261.617 376.121C262.295 375.501 262.801 374.715 263.086 373.841C263.371 372.967 263.425 372.034 263.242 371.132C263.186 370.759 263.028 370.408 262.787 370.118C262.093 369.378 260.843 369.693 260.013 370.276C257.381 372.131 256.647 375.71 256.632 378.934C256.369 377.773 256.591 376.562 256.586 375.386C256.581 374.21 256.252 372.851 255.245 372.227C254.624 371.893 253.925 371.728 253.22 371.751C252.041 371.705 250.72 371.822 249.915 372.689C248.903 373.768 249.171 375.573 250.042 376.744C250.912 377.915 252.243 378.671 253.468 379.492C254.448 380.077 255.284 380.876 255.913 381.829C255.989 381.962 256.05 382.103 256.095 382.25H263.516C265.178 381.409 266.721 380.348 268.101 379.097Z" fill="#DDB14E"/>
<path d="M311.373 407.065C312.303 406.309 312.981 405.287 313.316 404.135C313.564 402.969 313.068 401.574 311.96 401.149C310.715 400.672 309.384 401.534 308.376 402.406C307.369 403.278 306.21 404.277 304.889 404.089C305.568 403.473 306.077 402.691 306.364 401.819C306.651 400.947 306.708 400.016 306.529 399.116C306.474 398.742 306.317 398.391 306.073 398.102C305.385 397.362 304.13 397.681 303.3 398.264C300.668 400.12 299.934 403.699 299.924 406.923C299.655 405.757 299.878 404.545 299.873 403.374C299.868 402.203 299.539 400.839 298.537 400.221C297.918 399.878 297.22 399.703 296.512 399.714C295.328 399.673 294.012 399.79 293.202 400.657C292.189 401.732 292.458 403.541 293.333 404.713C294.209 405.884 295.535 406.639 296.755 407.46C297.739 408.042 298.577 408.842 299.205 409.797C299.279 409.929 299.341 410.069 299.387 410.213H306.802C308.46 409.374 309.998 408.315 311.373 407.065Z" fill="#DDB14E"/>
<path d="M434.121 350.524C434.121 350.524 436.905 354.164 432.84 359.65C428.776 365.135 425.425 369.789 426.766 373.216C426.766 373.216 432.901 363.006 437.902 362.864C442.902 362.722 439.633 356.664 434.121 350.524Z" fill="#DDB14E"/>
<path opacity="0.1" d="M434.12 350.524C434.364 350.875 434.555 351.259 434.687 351.665C439.561 357.394 442.153 362.742 437.471 362.879C433.113 363.001 427.884 370.813 426.629 372.785C426.67 372.936 426.719 373.085 426.776 373.231C426.776 373.231 432.91 363.021 437.911 362.879C442.912 362.737 439.632 356.664 434.12 350.524Z" fill="black"/>
<path d="M439.308 355.163C439.308 356.446 439.167 357.485 438.99 357.485C438.812 357.485 438.676 356.431 438.676 355.163C438.676 353.896 438.853 354.489 439.03 354.489C439.207 354.489 439.308 353.896 439.308 355.163Z" fill="#FFD037"/>
<path d="M441.086 356.694C439.962 357.307 438.98 357.677 438.899 357.525C438.818 357.373 439.653 356.745 440.777 356.131C441.9 355.518 441.46 355.964 441.541 356.131C441.622 356.298 442.219 356.08 441.086 356.694Z" fill="#FFD037"/>
<path d="M419.441 350.524C419.441 350.524 416.658 354.164 420.722 359.65C424.786 365.135 428.137 369.789 426.796 373.216C426.796 373.216 420.666 363.006 415.66 362.864C410.655 362.722 413.965 356.664 419.441 350.524Z" fill="#DDB14E"/>
<path opacity="0.1" d="M419.442 350.524C419.198 350.875 419.005 351.259 418.87 351.665C414.001 357.394 411.409 362.742 416.086 362.879C420.449 363.001 425.703 370.813 426.933 372.785C426.892 372.937 426.841 373.086 426.781 373.231C426.781 373.231 420.651 363.021 415.646 362.879C410.64 362.737 413.965 356.664 419.442 350.524Z" fill="black"/>
<path d="M414.284 355.163C414.284 356.446 414.431 357.485 414.608 357.485C414.785 357.485 414.927 356.446 414.927 355.163C414.927 353.881 414.75 354.489 414.573 354.489C414.396 354.489 414.284 353.896 414.284 355.163Z" fill="#FFD037"/>
<path d="M412.512 356.694C413.636 357.307 414.613 357.677 414.699 357.525C414.785 357.373 413.945 356.745 412.821 356.131C411.697 355.518 412.138 355.964 412.052 356.131C411.965 356.298 411.388 356.08 412.512 356.694Z" fill="#FFD037"/>
<path d="M415.17 372.754C415.17 372.754 422.944 372.516 425.293 370.843C427.642 369.17 437.254 367.177 437.836 369.859C438.418 372.541 449.518 383.187 440.741 383.258C431.964 383.329 420.348 381.889 418.009 380.46C415.671 379.03 415.17 372.754 415.17 372.754Z" fill="#A8A8A8"/>
<path opacity="0.2" d="M440.893 382.326C432.116 382.397 420.495 380.957 418.156 379.527C416.38 378.442 415.666 374.544 415.433 372.744H415.17C415.17 372.744 415.676 379.025 418.004 380.45C420.333 381.874 431.959 383.319 440.736 383.248C443.267 383.248 444.142 382.326 444.097 380.987C443.737 381.803 442.776 382.31 440.893 382.326Z" fill="black"/>
</g>
<defs>
<linearGradient id="paint0_linear_157_4422" x1="186.377" y1="409.513" x2="186.377" y2="62.1591" gradientUnits="userSpaceOnUse">
<stop stop-color="#808080" stop-opacity="0.25"/>
<stop offset="0.54" stop-color="#808080" stop-opacity="0.12"/>
<stop offset="1" stop-color="#808080" stop-opacity="0.1"/>
</linearGradient>
<clipPath id="clip0_157_4422">
<rect width="548" height="418" fill="white"/>
</clipPath>
</defs>
</svg>
